<svg width="256" height="256" fill="none" xmlns="http://www.w3.org/2000/svg"><path d="M248.525 166.196l-34.67-83.814h-27.249V0H89.963v16.964H73.105v65.471H44.054l-.16.583L6.734 166.25H0l.159 5.725c.371 11.08 4.93 21.418 12.882 29.157 8.005 7.74 18.502 11.981 29.634 11.981 11.133 0 21.63-4.241 29.635-12.034 7.952-7.739 12.51-18.077 12.882-29.157l.159-5.725h-6.627L48.613 93.621h24.439v41.562h48.931v92.773H39.018V256h177.116v-28.044h-83.018v-92.773h36.579v-16.964h16.911V93.568h22.265l-32.391 72.575h-6.732l.159 5.725c.371 11.08 4.93 21.418 12.882 29.157 7.952 7.74 18.502 12.034 29.634 12.034 11.133 0 21.63-4.241 29.635-12.034 7.952-7.739 12.511-18.077 12.882-29.157l.159-5.725h-6.574v.053zM64.57 193.127c-5.885 5.725-13.677 8.853-21.894 8.853-8.218 0-15.957-3.128-21.842-8.853a31.528 31.528 0 01-8.8-15.798H73.37a31.53 31.53 0 01-8.8 15.798zm-45.326-26.931l24.439-56.459 22.742 56.459H19.244zM205 244.867H50.151v-5.778H205v5.778zM84.185 124.051V28.097h74.377v95.954H84.185zm85.51-16.965V16.964h-68.599v-5.831h74.377v95.953h-5.778zm43.736 2.439l22.742 56.671h-47.181l24.439-56.671zm20.887 83.602c-5.885 5.725-13.678 8.853-21.842 8.853-8.164 0-15.957-3.128-21.841-8.853a31.527 31.527 0 01-8.8-15.798h61.336c-1.378 5.99-4.4 11.45-8.853 15.798z" fill="#05F"/><path d="M147.375 60.01H95.847v11.134h51.528V60.01zM147.375 82.595H95.847v11.133h51.528V82.595zM123.944 105.231H95.847v11.133h28.097v-11.133zM147.375 37.375H95.847v11.133h51.528V37.375z" fill="#05F"/></svg>