<svg width="128" height="128" fill="none" xmlns="http://www.w3.org/2000/svg"><path fill-rule="evenodd" clip-rule="evenodd" d="M111.457 38.887c1.568 35.645-24.163 75.342-69.618 75.342-13.845 0-26.645-4.186-37.486-11.342 12.93 1.62 25.992-2.16 36.31-10.532-10.71-.27-19.722-7.561-22.857-17.553 3.788.81 7.576.54 11.102-.405C17.153 71.967 9.055 61.03 9.316 49.283c3.265 1.89 7.053 2.97 11.102 3.106-10.84-7.561-13.976-22.414-7.575-33.755C24.99 33.89 43.015 44.018 63.26 45.098 59.734 29.3 71.358 14.043 87.163 14.043c7.053 0 13.453 3.105 17.894 7.966 5.617-1.08 10.841-3.24 15.544-6.21-1.829 5.94-5.748 10.936-10.711 14.041 4.963-.675 9.666-2.025 14.107-4.05-3.658 4.996-7.837 9.451-12.54 13.097z" fill="#000001"/></svg>