<svg width="256" height="256" viewBox="0 0 256 256" fill="none" xmlns="http://www.w3.org/2000/svg">
<path d="M135.144 52.7997H112.958V49.6041H135.144V52.7997V52.7997ZM135.144 43.1672H112.958V46.3628H135.144V43.1672V43.1672ZM135.144 36.7151H112.958V39.9107H135.144V36.7151V36.7151ZM123.229 56.0562H112.958V59.2519H123.229V56.0562ZM143.986 78.6082H103.964V29.3043H111.238V22H151.26V71.3039H143.986V78.6082ZM114.434 29.3043H143.986V68.1083H148.064V25.1956H114.434V29.3043ZM130.701 63.5431C130.701 63.0105 129.955 61.4127 128.951 59.6323C127.932 61.4127 127.201 63.0105 127.201 63.5431C127.201 64.517 127.992 65.2931 128.951 65.2931C129.925 65.2931 130.701 64.5018 130.701 63.5431ZM140.79 32.4999H107.16V75.4126H127.338V72.4757C126.684 72.9778 125.908 73.2822 125.071 73.3278C124.979 73.3278 124.888 73.343 124.812 73.343C123.808 73.343 122.849 72.9778 122.088 72.3083C120.825 71.1974 119.745 67.6518 119.349 66.1757L118.71 63.8322L121.114 64.1822C121.814 64.2888 122.971 64.4714 124.142 64.7605C124.051 64.3649 123.99 63.9692 123.99 63.5431C123.99 61.3823 126.76 56.9997 127.612 55.7062L128.951 53.6671L130.29 55.7062C131.142 56.9997 133.912 61.3823 133.912 63.5431C133.912 63.9388 133.866 64.3344 133.775 64.7149C134.84 64.3953 135.875 64.167 136.514 64.0301L138.903 63.5279L138.401 65.917C138.097 67.4083 137.244 71.0148 136.042 72.2017C135.236 73.0083 134.186 73.4039 133.136 73.4039C132.208 73.4039 131.295 73.0996 130.549 72.4909V75.4126H140.79V32.4999V32.4999ZM132.481 69.9344C132.831 70.2844 133.41 70.2996 133.775 69.9496C133.988 69.6909 134.308 68.8539 134.627 67.7887C133.577 68.1083 132.74 68.4279 132.466 68.6409C132.116 69.0061 132.131 69.5844 132.481 69.9344ZM125.74 69.1583C125.725 68.9148 125.618 68.7018 125.436 68.5344C125.162 68.3366 124.31 68.0627 123.229 67.8192C123.61 68.8539 123.99 69.6757 124.218 69.9192C124.401 70.0713 124.629 70.1626 124.873 70.1322C125.116 70.117 125.345 70.0105 125.512 69.8278C125.664 69.6452 125.755 69.4018 125.74 69.1583ZM202.907 126.543H206.331V123.347H202.907V126.543ZM198.342 118.386H194.918V121.582H198.342V118.386ZM197.733 126.543H201.157V123.347H197.733V126.543ZM203.424 118.386H200V121.582H203.424V118.386ZM192.635 126.543H196.059V123.347H192.635V126.543ZM208.522 126.36H230.085V123.53H208.522V126.36ZM218.702 118.386H215.279V121.582H218.702V118.386ZM247.996 111.493H190.611V73.8756H247.996V111.493V111.493ZM219.448 96.2298C221.639 96.2298 223.42 94.4494 223.42 92.2581C223.42 91.3298 222.187 88.1647 219.463 83.706C217.516 86.9168 215.492 90.8125 215.492 92.2581C215.476 94.4494 217.257 96.2298 219.448 96.2298ZM215.811 98.9993C215.187 98.4515 212.585 97.7211 209.876 97.2037C210.744 99.8363 211.779 102.317 212.403 102.865C213.468 103.808 215.096 103.701 216.039 102.636C216.983 101.571 216.876 99.9428 215.811 98.9993ZM223.039 99.2124C222.552 99.6993 222.279 100.354 222.279 101.038C222.279 101.723 222.552 102.378 223.039 102.865C223.526 103.351 224.181 103.625 224.865 103.625C225.55 103.625 226.205 103.351 226.692 102.865C227.285 102.271 228.168 99.7298 228.852 97.0515C226.189 97.7363 223.633 98.6189 223.039 99.2124ZM244.8 77.0713H193.807V108.297H217.835V105.33C216.77 106.228 215.431 106.699 214.107 106.699C212.753 106.699 211.383 106.228 210.287 105.254C209.694 104.721 208.735 103.565 207.32 99.5776C206.59 97.5233 206.087 95.682 206.057 95.6059L205.418 93.2624L207.822 93.6124C207.898 93.6276 209.785 93.9016 211.931 94.3581C212.189 94.4189 212.433 94.4646 212.661 94.5255C212.418 93.8103 212.296 93.0494 212.296 92.2581C212.296 91.6798 212.296 89.9299 215.279 84.5582C216.679 82.0321 218.063 79.9169 218.124 79.8256L219.463 77.7865L220.802 79.8256C220.863 79.9169 222.248 82.0169 223.648 84.5582C226.631 89.9299 226.631 91.6798 226.631 92.2581C226.631 93.019 226.509 93.7494 226.281 94.4494C226.402 94.4189 226.524 94.3733 226.646 94.3429C228.746 93.7494 230.618 93.3537 230.694 93.3385L233.083 92.8364L232.581 95.2255C232.565 95.3015 232.17 97.1733 231.576 99.2732C230.42 103.336 229.537 104.554 228.974 105.117C227.878 106.212 226.433 106.806 224.896 106.806C223.465 106.806 222.111 106.288 221.061 105.345V108.297H244.831V77.0713H244.8ZM228.898 118.386H225.474V121.582H228.898V118.386ZM239.078 118.386H235.655V121.582H239.078V118.386ZM208.522 118.386H205.098V121.582H208.522V118.386ZM244.176 118.386H240.752V121.582H244.176V118.386ZM233.981 118.386H230.557V121.582H233.981V118.386ZM213.62 118.386H210.196V121.582H213.62V118.386ZM237.435 103.336L240.22 106.106L241.437 104.888L238.652 102.119L240.189 100.582L233.524 98.2537L235.898 104.888L237.435 103.336ZM223.8 118.386H220.376V121.582H223.8V118.386ZM242.578 126.543H246.002V123.347H242.578V126.543ZM182.622 133.056V136.251H256V133.056H182.622ZM247.357 113.014L255.254 131.762H183.398L191.037 113.014H247.357ZM250.446 128.582L245.241 116.225H193.183L188.146 128.582H250.446ZM232.276 126.543H235.7V123.347H232.276V126.543ZM237.496 126.543H240.92V123.347H237.496V126.543ZM39.0323 102.865C36.5062 102.895 33.6454 102.941 30.7236 103.291C27.8172 103.625 25.0172 104.249 22.5215 104.812C19.4781 105.482 16.7846 106.075 14.5021 106.075C12.7673 106.075 11.2608 105.741 9.99774 104.828C8.35428 103.656 7.38037 101.693 7.04559 98.8472C6.42168 93.582 8.26297 87.9364 12.0825 83.356C16.0238 78.6234 21.4563 75.6256 27.4063 74.9256C33.341 74.2256 39.2605 75.8843 44.0844 79.5973C48.7257 83.1734 51.7539 88.2407 52.3626 93.5059C52.6974 96.3972 52.2256 98.5428 50.8865 100.049C48.5887 102.728 44.3735 102.788 39.0323 102.865ZM30.891 88.4538C30.891 87.9212 30.1454 86.3234 29.1411 84.5429C28.1215 86.3234 27.3911 87.9212 27.3911 88.4538C27.3911 89.4277 28.1824 90.2038 29.1411 90.2038C30.0997 90.2038 30.891 89.4125 30.891 88.4538ZM38.9866 99.6689C43.354 99.608 47.1126 99.5472 48.5126 97.9494C49.2126 97.1581 49.4409 95.8189 49.2126 93.8711C48.6952 89.4429 46.1235 85.1669 42.1518 82.1234C38.6062 79.3995 34.391 77.9539 30.0693 77.9539C29.3084 77.9539 28.5476 77.9995 27.7867 78.0908C22.6585 78.6995 17.9564 81.2864 14.5477 85.3799C11.2912 89.3059 9.70861 94.0689 10.226 98.4515C10.4543 100.354 10.9869 101.586 11.8542 102.21C13.6499 103.488 17.439 102.636 21.8368 101.662C23.5868 101.282 25.5041 100.856 27.5128 100.506V97.3559C26.8585 97.858 26.0824 98.1624 25.2454 98.208C25.1541 98.208 25.0628 98.2233 24.9867 98.2233C23.9824 98.2233 23.0237 97.858 22.2629 97.1885C20.9998 96.0776 19.9194 92.532 19.5237 91.0559L18.8846 88.7125L21.2889 89.0625C21.9889 89.169 23.1455 89.3516 24.3172 89.6407C24.2259 89.2451 24.165 88.8494 24.165 88.4233C24.165 86.2625 26.9346 81.8799 27.7867 80.5865L29.1258 78.5473L30.465 80.5865C31.3171 81.8799 34.0867 86.2625 34.0867 88.4233C34.0867 88.819 34.041 89.2146 33.9497 89.5951C35.0149 89.2755 36.0497 89.0473 36.6888 88.9103L39.0779 88.4081L38.5758 90.7972C38.2714 92.2885 37.4192 95.895 36.2171 97.082C35.4106 97.8885 34.3606 98.2841 33.3106 98.2841C32.3823 98.2841 31.4693 97.9798 30.7236 97.3711V100.049C33.6606 99.7602 36.491 99.7146 38.9866 99.6689ZM32.6562 94.845C33.0062 95.195 33.5845 95.2102 33.9497 94.8602C34.1628 94.6016 34.4823 93.7646 34.8019 92.6994C33.7519 93.019 32.9149 93.3385 32.641 93.5516C32.3062 93.9168 32.3062 94.495 32.6562 94.845ZM25.915 94.0842C25.8998 93.8407 25.7933 93.6276 25.6107 93.4603C25.3367 93.2624 24.4846 92.9885 23.4041 92.745C23.7846 93.7798 24.165 94.6016 24.3933 94.845C24.5759 94.9972 24.8041 95.0885 25.0476 95.0581C25.2911 95.0429 25.5193 94.9363 25.6867 94.7537C25.8541 94.5559 25.9302 94.3276 25.915 94.0842ZM3.19562 100.506C3.19562 85.5321 15.3694 73.3583 30.3432 73.3583C43.3692 73.3583 54.5995 82.6408 57.0191 95.4233L57.0647 95.6363L64.5821 110.564C62.8016 111.767 59.6821 113.38 57.5973 112.527L55.543 111.691L55.3908 113.897C55.33 114.856 55.2234 116.164 55.1169 117.564C54.8734 120.79 54.5843 124.443 54.5691 126.299C54.5691 126.634 54.3256 126.999 53.8539 127.38C50.4604 130.103 41.2844 130.027 34.391 128.582L33.7367 131.716C36.3845 132.279 39.0323 132.614 41.5431 132.736C40.7823 135.536 40.8583 138.579 40.9497 139.995H44.1453C44.0692 138.99 43.9018 135.627 44.8605 132.782C49.6387 132.645 53.6408 131.656 55.8473 129.89C57.4147 128.643 57.7495 127.273 57.7647 126.36C57.7952 124.595 58.0691 120.851 58.3125 117.823C58.3582 117.169 58.4038 116.545 58.4495 115.951C62.7103 116.21 67.0777 112.741 67.6255 112.284L68.6146 111.477L60.1234 94.5863C57.3234 80.4038 44.8453 70.1474 30.3584 70.1474C13.6194 70.1474 0 83.7669 0 100.506C0 106.623 1.81085 112.512 5.23474 117.549C5.81299 118.401 6.48255 119.299 7.1369 120.151C7.94341 121.217 8.70427 122.221 9.25209 123.119C10.9564 125.98 12.4477 129.434 12.5086 132.477C12.5847 136.084 10.9564 139.188 10.4999 139.995H13.7564C14.2434 139.082 15.7042 135.993 15.7042 132.477C15.7042 124.914 8.32384 116.088 7.39559 115.008C4.64126 110.671 3.19562 105.68 3.19562 100.506ZM224.165 232.759C224.165 232.759 222.096 233.018 219.068 233.018C214.229 233.018 206.94 232.363 201.766 228.924C199.498 229.533 197.079 229.868 194.553 229.868C181.664 229.868 171.209 221.255 171.209 210.618C171.209 205.185 173.933 200.285 178.331 196.785C178.148 196.785 177.951 196.785 177.768 196.785C176.672 196.785 175.607 196.74 174.542 196.633C169.246 199.144 161.242 199.616 156.038 199.616C152.949 199.616 150.833 199.448 150.833 199.448C156.723 198.398 159.568 194.838 160.892 192.175C155.597 188.796 152.249 183.851 152.249 178.342C152.249 168.162 163.662 159.899 177.753 159.899C191.844 159.899 203.257 168.162 203.257 178.342C203.257 183.44 200.396 188.051 195.77 191.399C208.096 191.931 217.881 200.331 217.881 210.618C217.881 214.453 216.526 218.014 214.198 221.011C215.476 225.242 218.261 231.085 224.165 232.759ZM193.929 188.796C197.885 185.936 200.077 182.223 200.077 178.342C200.077 174.462 197.9 170.764 193.929 167.888C189.653 164.799 183.916 163.094 177.768 163.094C171.62 163.094 165.883 164.799 161.607 167.888C157.651 170.749 155.46 174.462 155.46 178.342C155.46 180.412 156.083 182.436 157.286 184.338C158.518 186.255 160.359 188.036 162.612 189.481L165.031 191.033L163.753 193.605C163.296 194.518 162.764 195.385 162.17 196.192C166.796 195.812 170.601 194.975 173.172 193.757L173.964 193.377L174.831 193.453C175.79 193.544 176.779 193.59 177.768 193.59C183.901 193.59 189.653 191.885 193.929 188.796ZM214.807 229.64C213.27 227.494 212.037 224.907 211.155 221.94L210.683 220.357L211.703 219.048C213.681 216.522 214.716 213.601 214.716 210.618C214.716 206.448 212.707 202.492 209.04 199.464C205.205 196.299 200.061 194.549 194.568 194.549C189.074 194.549 183.931 196.299 180.096 199.464C176.444 202.477 174.42 206.433 174.42 210.618C174.42 214.803 176.429 218.744 180.096 221.772C183.931 224.937 189.074 226.687 194.568 226.687C196.744 226.687 198.89 226.413 200.944 225.866L202.329 225.5L203.531 226.292C206.757 228.407 211.155 229.29 214.807 229.64ZM202.237 208.594L204.642 208.244L204.003 210.588C203.607 212.064 202.527 215.594 201.263 216.72C200.503 217.39 199.544 217.755 198.54 217.755C198.448 217.755 198.357 217.755 198.281 217.74C197.444 217.694 196.653 217.39 196.014 216.887V221.3H192.818V216.903C192.072 217.511 191.144 217.816 190.231 217.816C189.181 217.816 188.116 217.42 187.324 216.614C186.138 215.427 185.285 211.82 184.966 210.329L184.464 207.94L186.853 208.442C187.492 208.579 188.527 208.807 189.592 209.127C189.501 208.746 189.455 208.366 189.455 207.955C189.455 205.794 192.224 201.412 193.077 200.118L194.416 198.079L195.755 200.118C196.607 201.412 199.377 205.794 199.377 207.955C199.377 208.381 199.331 208.777 199.224 209.172C200.381 208.883 201.537 208.701 202.237 208.594ZM190.885 213.053C190.627 212.84 189.79 212.52 188.724 212.201C189.044 213.251 189.364 214.087 189.577 214.361C189.942 214.711 190.52 214.711 190.87 214.346C191.235 213.996 191.235 213.418 190.885 213.053ZM196.166 207.955C196.166 207.422 195.42 205.825 194.416 204.044C193.396 205.825 192.666 207.422 192.666 207.955C192.666 208.929 193.457 209.705 194.416 209.705C195.374 209.705 196.166 208.929 196.166 207.955ZM200.122 212.246C199.042 212.49 198.19 212.764 197.916 212.961C197.733 213.129 197.627 213.342 197.611 213.585C197.596 213.829 197.672 214.072 197.84 214.255C198.007 214.437 198.22 214.544 198.479 214.559C198.722 214.574 198.95 214.498 199.133 214.346C199.361 214.087 199.742 213.281 200.122 212.246ZM186.411 174.736V175.07C186.411 176.927 185.483 178.57 184.083 179.575C185.498 180.579 186.411 182.223 186.411 184.079L186.366 189.359L183.17 189.329L183.216 184.064C183.216 182.786 182.166 181.751 180.888 181.751C179.594 181.751 178.559 182.801 178.559 184.079L178.514 189.359L175.318 189.329L175.349 185.357L170.905 188.507V189.359L167.709 189.344L167.755 180.046C167.755 178.083 168.79 176.349 170.357 175.36C168.79 174.386 167.755 172.651 167.755 170.673V170.338C167.755 167.294 170.235 164.814 173.279 164.814C176.079 164.814 178.407 166.914 178.757 169.623C179.411 169.349 180.127 169.197 180.888 169.197C183.931 169.212 186.411 171.692 186.411 174.736ZM175.607 180.031C175.607 179.97 175.607 179.91 175.592 179.833C175.592 179.818 175.592 179.818 175.592 179.803C175.47 178.631 174.481 177.718 173.264 177.718C171.97 177.718 170.936 178.768 170.936 180.046L170.905 184.581L174.618 181.949C175.12 181.583 175.455 181.051 175.562 180.442C175.592 180.32 175.607 180.183 175.607 180.031ZM175.607 170.353C175.607 169.06 174.557 168.025 173.279 168.025C171.985 168.025 170.951 169.075 170.951 170.353V170.688C170.951 171.981 172.001 173.016 173.279 173.016C174.572 173.016 175.607 171.966 175.607 170.688V170.353ZM183.216 174.736C183.216 173.442 182.166 172.407 180.888 172.407C179.594 172.407 178.559 173.457 178.559 174.736V175.07C178.559 176.364 179.609 177.399 180.888 177.399C182.181 177.399 183.216 176.349 183.216 175.07V174.736ZM185.879 91.2385L160.801 70.6191L158.777 73.0843L183.855 93.7037L185.879 91.2385ZM198.57 139.447L190.003 154.284L192.772 155.881L201.34 141.045L198.57 139.447ZM107.738 189.664H147.486V186.468H107.738V189.664ZM67.6255 152.366L59.8799 138.945L57.1104 140.542L64.856 153.964L67.6255 152.366ZM94.6057 73.0387L92.4449 70.68L69.1777 91.969L71.3385 94.3276L94.6057 73.0387ZM101.362 201.655L103.767 201.153L103.264 203.557C102.884 205.368 101.53 211.379 99.7491 213.159C98.6839 214.224 97.2687 214.818 95.747 214.818C94.3927 214.818 93.1144 214.346 92.0949 213.479V234.403H88.884V213.479C87.8645 214.316 86.6014 214.727 85.3232 214.727C83.9993 214.727 82.6602 214.255 81.595 213.311C79.708 211.653 77.9732 205.718 77.4863 203.938L76.8319 201.579L79.2515 201.929C80.1189 202.051 81.945 202.34 83.8319 202.781C83.6189 202.112 83.5123 201.411 83.5123 200.681C83.5123 199.707 83.8167 197.866 86.4036 193.194C87.7579 190.744 89.0971 188.705 89.1579 188.614L90.4971 186.559L91.8362 188.614C91.897 188.705 93.2362 190.744 94.5905 193.194C97.1774 197.866 97.4818 199.707 97.4818 200.681C97.4818 201.381 97.3752 202.066 97.1774 202.705C98.9122 202.172 100.556 201.822 101.362 201.655ZM87.7579 208.914C87.7123 208.259 87.4232 207.666 86.9362 207.24C86.434 206.798 84.2123 206.098 81.3058 205.52C82.1276 208.016 83.1167 210.374 83.7101 210.892C84.7145 211.774 86.2667 211.683 87.1493 210.679C87.5906 210.192 87.8036 209.553 87.7579 208.914ZM94.2709 200.666C94.2709 199.768 93.084 196.755 90.4971 192.479C87.8949 196.755 86.7232 199.768 86.7232 200.666C86.7232 202.751 88.4123 204.44 90.4971 204.44C92.5818 204.44 94.2709 202.751 94.2709 200.666ZM99.5361 205.383C96.9948 206.053 94.5905 206.89 94.0275 207.438C93.084 208.381 93.084 209.933 94.0275 210.892C94.484 211.348 95.0927 211.607 95.747 211.607C96.4014 211.607 97.01 211.348 97.4666 210.892C98.0296 210.329 98.8665 207.924 99.5361 205.383ZM85.0188 223.385L87.408 222.883L86.9058 225.272C86.5253 227.083 85.5058 231.466 84.0906 232.866C83.1775 233.779 81.9602 234.25 80.758 234.25C79.9058 234.25 79.0385 234.022 78.2928 233.55V234.403H75.0972V233.52C74.3668 233.946 73.545 234.159 72.7081 234.159C71.5972 234.159 70.4864 233.763 69.5885 232.987C68.0972 231.679 66.8038 227.372 66.3016 225.577L65.6625 223.233L68.0668 223.583C68.782 223.69 69.8777 223.857 71.0494 224.116C70.9733 223.75 70.9277 223.37 70.9277 222.974C70.9277 222.183 71.1711 220.707 73.2102 217.024C74.2602 215.122 75.3102 213.54 75.3559 213.464L76.695 211.424L78.0341 213.464C79.0689 215.046 82.4471 220.403 82.4471 222.974C82.4471 223.324 82.4167 223.674 82.3558 224.024C83.4058 223.735 84.3645 223.522 85.0188 223.385ZM73.7124 228.316C73.3472 228.011 71.8863 227.57 70.1364 227.205C70.7298 228.894 71.3385 230.279 71.6885 230.613C72.3124 231.161 73.2863 231.1 73.8342 230.476C74.4124 229.837 74.3515 228.879 73.7124 228.316ZM79.2667 222.99C79.2667 222.153 78.095 219.748 76.7102 217.39C75.3254 219.764 74.1537 222.168 74.1537 222.99C74.1537 224.405 75.295 225.546 76.7102 225.546C78.1102 225.546 79.2667 224.39 79.2667 222.99ZM83.1623 227.129C81.4428 227.616 80.0124 228.133 79.6624 228.468C79.3732 228.757 79.2211 229.137 79.2211 229.548C79.2211 229.959 79.3732 230.34 79.6624 230.629C79.9515 230.918 80.3319 231.07 80.7428 231.07C81.1536 231.07 81.5341 230.918 81.8232 230.629C82.158 230.263 82.6906 228.848 83.1623 227.129ZM71.232 178.966C71.5516 178.433 71.6885 177.688 71.6581 176.79V176.729C71.6581 175.116 71.3081 173.944 70.6233 173.275C69.9081 172.575 68.9038 172.24 67.519 172.24C66.5755 172.24 65.769 172.407 65.1299 172.757C64.4603 173.123 63.9277 173.579 63.5168 174.173C63.0755 174.797 62.7408 175.542 62.5125 176.41C62.269 177.338 62.1625 178.357 62.1625 179.423V181.036H48.9844L49.0148 179.407C49.0605 176.79 49.517 174.355 50.3691 172.164C51.2365 169.942 52.4539 167.994 54.0213 166.366C55.5887 164.723 57.506 163.429 59.7125 162.516C61.9038 161.603 64.3842 161.147 67.0625 161.147C70.4559 161.147 73.3624 161.634 75.6907 162.592C78.0189 163.551 79.9363 164.768 81.3971 166.229C82.858 167.69 83.9384 169.318 84.5775 171.038C85.2014 172.727 85.521 174.34 85.521 175.831C85.521 178.19 85.2014 180.199 84.5623 181.781C83.9384 183.333 83.1471 184.688 82.2036 185.799C81.2754 186.894 80.2406 187.853 79.1145 188.629C78.1254 189.314 77.1819 189.999 76.3146 190.668C75.5233 191.277 74.8081 191.992 74.1994 192.783C73.682 193.438 73.3624 194.259 73.2102 195.294V199.357H60.869V194.594C61.0212 192.464 61.4473 190.638 62.1321 189.162C62.8016 187.716 63.6082 186.468 64.506 185.433C65.3886 184.429 66.332 183.546 67.3212 182.801C68.1733 182.162 68.9951 181.507 69.7255 180.853C70.3342 180.244 70.8516 179.62 71.232 178.966ZM74.0015 180.579C73.4385 181.538 72.7081 182.42 71.8103 183.212C71.0037 183.912 70.1364 184.627 69.2081 185.327C68.4016 185.936 67.6255 186.666 66.8799 187.503C66.1799 188.309 65.5407 189.299 64.9929 190.47C64.4755 191.581 64.156 193.012 64.0342 194.716V196.101H69.9538V195.035L69.969 194.929C70.182 193.301 70.745 191.901 71.6124 190.775C72.3885 189.77 73.3015 188.872 74.3059 188.081C75.2189 187.381 76.208 186.651 77.258 185.936C78.1559 185.327 78.9776 184.566 79.708 183.683C80.4232 182.831 81.0471 181.766 81.5493 180.533C82.0363 179.331 82.2797 177.733 82.2797 175.786C82.2797 174.675 82.0363 173.442 81.5341 172.118C81.0471 170.84 80.2406 169.607 79.0993 168.466C77.9428 167.31 76.3906 166.336 74.4581 165.529C72.5255 164.738 70.0298 164.327 67.0473 164.327C64.7951 164.327 62.7408 164.707 60.9299 165.453C59.1343 166.199 57.5973 167.249 56.3343 168.557C55.0713 169.881 54.0669 171.479 53.3517 173.305C52.8191 174.69 52.4691 176.197 52.3017 177.81H59.0125C59.0886 177.049 59.2104 176.303 59.393 175.603C59.7125 174.355 60.2147 173.244 60.8995 172.301C61.5995 171.312 62.5125 170.52 63.6082 169.927C64.719 169.334 66.0277 169.029 67.519 169.029C69.7407 169.029 71.5516 169.684 72.8755 170.977C74.1994 172.27 74.8689 174.203 74.8841 176.699C74.9146 178.205 74.6254 179.514 74.0015 180.579ZM73.2559 213.479H60.793V201.214H73.2559V213.479ZM70.0451 204.425H64.0038V210.268H70.0451V204.425ZM59.256 225.592L59.1799 234.174L55.9691 234.144L56.0452 225.577C56.0452 222.959 53.8995 220.814 51.267 220.814C48.6344 220.814 46.4887 222.959 46.4887 225.592L46.4126 234.174L43.2018 234.144L43.2779 225.698L33.9649 232.287L33.9497 234.174L30.7389 234.159L30.815 219.064C30.815 215.746 32.8541 212.885 35.7606 211.683C32.8388 210.496 30.7845 207.62 30.7845 204.288C30.7845 199.89 34.3758 196.299 38.7736 196.299C43.0192 196.299 46.504 199.631 46.7474 203.801C48.0257 202.933 49.5626 202.416 51.2213 202.416C55.6191 202.416 59.2104 206.007 59.2104 210.405C59.2104 213.935 56.9126 216.933 53.7169 217.998C56.9278 219.033 59.256 222.046 59.256 225.592ZM38.7736 209.051C41.4062 209.051 43.5518 206.905 43.5518 204.272C43.5518 201.64 41.4062 199.494 38.7736 199.494C36.141 199.494 33.9954 201.64 33.9954 204.272C33.9954 206.905 36.141 209.051 38.7736 209.051ZM43.2475 210.892C42.8062 211.196 42.3192 211.455 41.817 211.668C42.4409 211.927 43.0192 212.246 43.5518 212.642C43.3996 212.079 43.2931 211.485 43.2475 210.892ZM43.5975 219.033C43.5822 216.416 41.4518 214.285 38.8192 214.285C36.1866 214.285 34.041 216.431 34.041 219.064L33.9954 228.331L41.5888 222.959C42.6235 222.229 43.3083 221.133 43.5366 219.87C43.567 219.581 43.5975 219.307 43.5975 219.033ZM48.7713 218.014C47.9496 217.74 47.1887 217.344 46.504 216.842C46.7018 217.527 46.8083 218.242 46.8083 218.972C47.4018 218.561 48.0713 218.242 48.7713 218.014ZM55.9995 210.405C55.9995 207.772 53.8539 205.627 51.2213 205.627C48.5887 205.627 46.4431 207.772 46.4431 210.405C46.4431 213.037 48.5887 215.183 51.2213 215.183C53.8691 215.183 55.9995 213.037 55.9995 210.405Z" fill="#1ED261"/>
</svg>
