<svg width="128" height="128" fill="none" xmlns="http://www.w3.org/2000/svg"><path d="M96.151 84.635c-4.048-4.05-9.01-4.05-13.058 0-3.004 3.105-6.138 6.21-9.14 9.45-.784.81-1.568 1.08-2.482.54-1.959-1.08-4.048-2.025-6.007-3.24-8.88-5.805-16.323-13.229-22.852-21.463-3.264-4.185-6.137-8.64-8.226-13.499-.392-.945-.392-1.62.522-2.43l9.01-9.314c4.179-4.32 4.179-9.449 0-13.768l-7.182-7.425-7.443-7.694c-4.048-4.05-9.01-4.05-13.058 0-3.134 3.105-6.007 6.345-9.141 9.45-2.873 2.834-4.31 6.344-4.701 10.393C1.87 42.25 3.438 48.46 5.657 54.533c4.57 12.554 11.361 23.758 19.718 34.017 11.23 13.904 24.68 24.838 40.481 32.667 7.052 3.51 14.495 6.344 22.46 6.749 5.485.27 10.316-1.08 14.103-5.534 2.612-2.97 5.615-5.805 8.357-8.639 4.048-4.32 4.179-9.449 0-13.769-4.831-5.264-9.793-10.394-14.625-15.389zM91.187 63.443l9.533-1.62c-1.437-9.044-5.615-17.144-11.883-23.623-6.66-6.884-14.887-11.069-24.158-12.419l-1.306 9.854c7.051 1.08 13.58 4.32 18.673 9.584 4.832 4.995 7.966 11.34 9.141 18.224zM105.944 20.913C94.975 9.573 81.134 2.42 65.856.26l-1.306 9.854c13.189 1.89 25.202 8.099 34.604 17.818 9.01 9.314 14.887 20.923 16.976 33.882l9.532-1.62c-2.481-14.984-9.271-28.617-19.718-39.281z" fill="#1ED261"/></svg>