<svg width="128" height="128" viewBox="0 0 128 128" fill="none" xmlns="http://www.w3.org/2000/svg">
<g clip-path="url(#clip0)">
<path d="M64.0036 0C38.4847 0 17.6914 20.7932 17.6914 46.3122C17.6914 78.0422 59.1429 124.624 60.8982 126.65C62.5184 128.54 65.4889 128.54 67.1091 126.65C68.8644 124.624 110.316 78.0422 110.316 46.3122C110.451 20.7932 89.6577 0 64.0036 0ZM64.0036 69.6708C51.1766 69.6708 40.645 59.1392 40.645 46.3122C40.645 33.4852 51.1766 22.9536 64.0036 22.9536C76.8306 22.9536 87.3623 33.4852 87.3623 46.3122C87.3623 59.1392 76.9657 69.6708 64.0036 69.6708Z" fill="#000001"/>
</g>
<defs>
<clipPath id="clip0">
<rect width="128" height="128" fill="white"/>
</clipPath>
</defs>
</svg>
