<svg width="256" height="256" fill="none" xmlns="http://www.w3.org/2000/svg"><path d="M201.915 93.534c12.749 0 24.17-5.83 31.767-15.028a41.615 41.615 0 0022.151-36.846c0-22.943-18.539-41.66-41.381-41.66-12.749 0-24.17 5.83-31.767 15.027-13.174 6.953-22.205 20.857-22.205 36.9.054 22.943 18.593 41.607 41.435 41.607zm42.816-51.874c0 3.262-.531 6.417-1.487 9.358-.425-19.252-13.865-35.295-31.767-39.627a28.704 28.704 0 013.028-.16c16.627 0 30.226 13.636 30.226 30.429zm-42.816-20.162c16.68 0 30.226 13.637 30.226 30.43 0 16.792-13.546 30.429-30.226 30.429s-30.226-13.637-30.226-30.43c0-16.792 13.546-30.429 30.226-30.429zM251.211 120.38c-5.152-5.722-13.014-7.755-18.167-7.113-8.181.963-13.015 6.097-17.69 11.07-6.799 7.219-14.502 15.401-35.644 17.968-12.909 1.605-27.57 1.925-40.319 1.23 1.806-.16 3.612-.321 5.418-.534 14.927-1.712 27.411-4.707 33.413-8.129 5.684-3.209 8.766-8.77 8.606-15.615-.159-7.487-4.621-16.258-9.509-18.718-2.496-1.23-6.215-1.337-18.805-1.443-16.361-.107-41.062-.321-56.84-5.188-33.36-10.267-60.983 5.99-65.923 9.145-3.56 1.069-20.983 5.989-35.751 2.246v11.498c18.858 3.636 38.991-2.995 39.947-3.316l.744-.267.637-.428c.266-.161 26.136-17.701 57.106-8.182 17.318 5.347 43.028 5.561 60.027 5.668 5.525.054 11.74.107 13.971.375 1.328 1.39 3.559 5.882 3.294 9.733-.16 2.139-1.063 3.583-2.869 4.599-4.568 2.567-16.308 5.294-29.217 6.738-14.13 1.604-27.357 1.551-35.485-.107-3.028-.642-5.896 1.016-6.959 4.011-1.221 3.315-.159 10.16 3.825 12.406 7.65 4.279 22.364 5.936 33.307 6.578 14.184.802 29.748.374 42.763-1.23 25.127-3.102 35.113-13.69 42.391-21.391 4.409-4.706 6.959-7.219 10.89-7.647 2.072-.214 6.268.856 8.606 3.476 1.806 2.032 2.284 4.652 1.54 8.128-4.728 21.445-39.469 37.969-41.382 38.825-1.54.642-23.373 9.305-53.546 12.086-18.274 1.711-35.857.963-52.325-2.193-20.505-3.957-39.256-11.765-55.883-23.102l-1.488-1.016-1.806.054c-1.116 0-23.16.481-38.035 3.636v11.498c10.2-2.567 28.048-3.637 36.548-3.904 4.25 2.834 8.659 5.508 13.174 7.914 7.012 21.445 20.664 33.798 30.917 40.376 11.314 7.273 21.089 9.305 21.514 9.358l2.178-11.016c-.266-.053-25.924-5.562-39.629-31.712 9.668 3.904 19.814 6.899 30.332 8.931 4.144.802 8.394 1.444 12.696 1.978 15.99 18.129 36.548 25.295 37.398 25.616l3.612-10.642c-.159-.053-11.74-4.118-23.533-13.744 1.807.054 3.613.107 5.472.107 6.534 0 13.174-.321 19.867-.962 5.1-.482 9.934-1.123 14.502-1.819 6.428 4.813 8.022 5.562 16.787 9.306 1.487.641 3.24 1.39 5.259 2.299l4.409-10.321c-2.072-.909-3.825-1.658-5.312-2.3-2.072-.855-3.612-1.55-4.94-2.139 15.723-3.636 25.551-7.7 26.188-7.968l.16-.053c.956-.428 14.449-6.685 26.985-17.06-2.921 6.846-6.587 14.225-11.261 21.605-9.668 15.402-21.568 27.755-35.326 36.846-17.158 11.284-37.398 17.434-60.187 18.289-21.248.803-42.39-5.24-59.496-16.898-15.617-10.642-25.71-24.974-27.092-38.344l-.318-3.048-2.71-1.39c-.265-.161-6.693-3.423-15.617-4.172-8.128-.695-15.777.91-22.577 4.6v13.529c11.9-10.107 25.127-6.952 30.598-5.027 2.816 15.776 14.077 31.338 31.448 43.157 17.955 12.246 39.894 18.877 62.099 18.877 1.381 0 2.709 0 4.09-.053 24.914-.909 47.172-7.701 66.083-20.215 15.14-10 28.155-23.583 38.673-40.429 17.796-28.45 22.311-56.044 22.47-57.274 1.7-8.61-1.381-14.332-4.303-17.647z" fill="#fff"/></svg>