<svg width="128" height="128" fill="none" xmlns="http://www.w3.org/2000/svg"><g clip-path="url(#clip0)"><path d="M64.004 0C38.484 0 17.69 20.793 17.69 46.312c0 31.73 41.452 78.312 43.207 80.338 1.62 1.89 4.59 1.89 6.211 0 1.755-2.026 43.207-48.608 43.207-80.338C110.451 20.793 89.658 0 64.004 0zm0 69.67c-12.827 0-23.359-10.53-23.359-23.358 0-12.827 10.532-23.358 23.359-23.358 12.827 0 23.358 10.531 23.358 23.358S76.966 69.671 64.004 69.671z" fill="#000001"/></g><defs><clipPath id="clip0"><path fill="#fff" d="M0 0h128v128H0z"/></clipPath></defs></svg>