<svg width="128" height="128" fill="none" xmlns="http://www.w3.org/2000/svg"><path fill-rule="evenodd" clip-rule="evenodd" d="M62.474 2.272c-14.89 0-16.98.135-23.119.405-6.4.27-10.71 1.35-14.498 2.835-3.918 1.62-7.314 3.646-10.58 7.156-3.265 3.376-5.355 6.886-6.922 10.937-1.437 3.916-2.482 8.371-2.743 14.987-.262 6.617-.392 8.642-.392 25.384 0 16.743.13 18.903.392 25.384.26 6.616 1.306 11.072 2.742 14.988 1.568 4.05 3.527 7.561 6.923 10.936 3.266 3.376 6.662 5.536 10.58 7.157 3.788 1.485 8.098 2.565 14.498 2.835 6.4.27 8.36.405 24.556.405 16.197 0 18.286-.135 24.556-.405 6.4-.27 10.71-1.35 14.498-2.835 3.919-1.621 7.315-3.646 10.58-7.157 3.266-3.375 5.355-6.886 6.923-10.936 1.437-3.916 2.481-8.372 2.743-14.988.261-6.346.392-8.506.392-23.898v-3.106c0-15.392-.131-17.553-.392-23.899-.262-6.616-1.306-11.071-2.743-14.987-1.568-4.05-3.527-7.561-6.923-10.937-3.265-3.375-6.661-5.536-10.58-7.156-3.788-1.485-8.098-2.565-14.498-2.835-6.14-.27-8.229-.405-23.12-.405h-2.873v.135zm40.491 28.76c0 4.05-3.265 7.425-7.184 7.425-3.918 0-7.184-3.24-7.184-7.426 0-4.05 3.266-7.426 7.184-7.426 3.919 0 7.184 3.376 7.184 7.426zM63.911 84.634c-10.972 0-19.854-9.182-19.854-20.524 0-11.341 8.882-20.523 19.854-20.523s19.854 9.182 19.854 20.523c0 11.342-8.882 20.524-19.854 20.524zm0-52.254c16.98 0 30.695 14.178 30.695 31.73 0 17.553-13.715 31.73-30.695 31.73s-30.695-14.177-30.695-31.73c0-17.552 13.715-31.73 30.695-31.73zm0-18.902c15.935 0 17.764 0 24.164.405 5.878.27 9.013 1.215 11.102 2.16 2.743 1.08 4.833 2.43 6.923 4.59 2.09 2.16 3.396 4.186 4.441 7.157.784 2.16 1.829 5.4 2.09 11.476.261 6.481.392 8.507.392 24.98 0 16.472 0 18.362-.392 24.978-.261 6.076-1.176 9.317-2.09 11.477-1.045 2.836-2.351 4.996-4.441 7.156-2.09 2.161-4.049 3.511-6.923 4.591-2.09.81-5.224 1.89-11.102 2.16-6.27.27-8.229.405-24.164.405-15.935 0-17.764 0-24.164-.405-5.877-.27-9.012-1.215-11.102-2.16-2.743-1.08-4.833-2.43-6.923-4.591-2.09-2.16-3.396-4.185-4.44-7.156-.784-2.16-1.83-5.4-2.09-11.477-.262-6.48-.392-8.506-.392-24.979 0-16.472 0-18.362.391-24.978.262-6.076 1.176-9.317 2.09-11.477 1.045-2.836 2.351-4.996 4.441-7.156 2.09-2.16 4.05-3.51 6.923-4.591 2.09-.81 5.225-1.89 11.102-2.16 6.4-.405 8.229-.405 24.164-.405z" fill="#000001"/></svg>