<svg width="256" height="256" viewBox="0 0 256 256" fill="none" xmlns="http://www.w3.org/2000/svg">
<path d="M248.525 166.196L213.855 82.3823H186.606V0H89.9631V16.9642H73.105V82.4353H44.0538L43.8948 83.0184L6.73266 166.249H0L0.159039 171.974C0.530131 183.054 5.08925 193.392 13.0412 201.131C21.0462 208.871 31.5428 213.112 42.6755 213.112C53.8082 213.112 64.3048 208.871 72.3098 201.078C80.2618 193.339 84.8209 183.001 85.192 171.921L85.351 166.196H78.7244L48.613 93.621H73.052V135.183H121.983V227.956H39.0176V256H216.134V227.956H133.116V135.183H169.695V118.219H186.606V93.568H208.871L176.48 166.143H169.748L169.907 171.868C170.278 182.948 174.837 193.286 182.789 201.025C190.741 208.765 201.291 213.059 212.423 213.059C223.556 213.059 234.053 208.818 242.058 201.025C250.01 193.286 254.569 182.948 254.94 171.868L255.099 166.143H248.525V166.196ZM64.5699 193.127C58.6854 198.852 50.8925 201.98 42.6755 201.98C34.4585 201.98 26.7186 198.852 20.8341 193.127C16.381 188.779 13.3593 183.319 12.034 177.329H73.3701C72.0447 183.319 69.023 188.779 64.5699 193.127ZM19.2437 166.196L43.6828 109.737L66.4254 166.196H19.2437ZM205.001 244.867H50.1503V239.089H205.001V244.867V244.867ZM84.1847 124.051V28.0969H158.562V124.051H84.1847ZM169.695 107.086V16.9642H101.096V11.1327H175.473V107.086H169.695ZM213.431 109.525L236.173 166.196H188.992L213.431 109.525ZM234.318 193.127C228.433 198.852 220.64 201.98 212.476 201.98C204.312 201.98 196.519 198.852 190.635 193.127C186.182 188.779 183.16 183.319 181.835 177.329H243.171C241.793 183.319 238.771 188.779 234.318 193.127Z" fill="#0055FF"/>
<path d="M147.375 60.0107H95.8467V71.1435H147.375V60.0107Z" fill="#0055FF"/>
<path d="M147.375 82.5952H95.8467V93.728H147.375V82.5952Z" fill="#0055FF"/>
<path d="M123.944 105.231H95.8467V116.364H123.944V105.231Z" fill="#0055FF"/>
<path d="M147.375 37.375H95.8467V48.5077H147.375V37.375Z" fill="#0055FF"/>
</svg>
