<svg width="256" height="256" fill="none" xmlns="http://www.w3.org/2000/svg"><path d="M135.144 52.8h-22.186v-3.196h22.186V52.8zm0-9.633h-22.186v3.196h22.186v-3.196zm0-6.452h-22.186v3.196h22.186v-3.196zm-11.915 19.341h-10.271v3.196h10.271v-3.196zm20.757 22.552h-40.022V29.304h7.274V22h40.022v49.304h-7.274v7.304zm-29.552-49.304h29.552v38.804h4.078V25.196h-33.63v4.108zm16.267 34.24c0-.533-.746-2.131-1.75-3.912-1.019 1.78-1.75 3.379-1.75 3.911a1.75 1.75 0 003.5 0zM140.79 32.5h-33.63v42.913h20.178v-2.937a4.068 4.068 0 01-2.267.852c-.092 0-.183.015-.259.015a4.108 4.108 0 01-2.724-1.035c-1.263-1.11-2.343-4.656-2.739-6.132l-.639-2.344 2.404.35c.7.107 1.857.29 3.028.578a5.35 5.35 0 01-.152-1.217c0-2.16 2.77-6.543 3.622-7.837l1.339-2.039 1.339 2.04c.852 1.293 3.622 5.675 3.622 7.836 0 .396-.046.791-.137 1.172a35.43 35.43 0 012.739-.685l2.389-.502-.502 2.389c-.304 1.491-1.157 5.098-2.359 6.285a4.087 4.087 0 01-2.906 1.202 4.072 4.072 0 01-2.587-.913v2.922h10.241V32.5zm-8.309 37.434c.35.35.929.366 1.294.016.213-.26.533-1.096.852-2.161-1.05.32-1.887.639-2.161.852a.928.928 0 00.015 1.293zm-6.741-.776a.91.91 0 00-.304-.624c-.274-.197-1.126-.471-2.207-.715.381 1.035.761 1.857.989 2.1a.858.858 0 00.655.213.943.943 0 00.639-.304.972.972 0 00.228-.67zm77.167 57.385h3.424v-3.196h-3.424v3.196zm-4.565-8.157h-3.424v3.196h3.424v-3.196zm-.609 8.157h3.424v-3.196h-3.424v3.196zm5.691-8.157H200v3.196h3.424v-3.196zm-10.789 8.157h3.424v-3.196h-3.424v3.196zm15.887-.183h21.563v-2.83h-21.563v2.83zm10.18-7.974h-3.423v3.196h3.423v-3.196zm29.294-6.893h-57.385V73.876h57.385v37.617zM219.448 96.23a3.975 3.975 0 003.972-3.972c0-.928-1.233-4.093-3.957-8.552-1.947 3.21-3.971 7.106-3.971 8.552a3.951 3.951 0 003.956 3.972zM215.811 99c-.624-.549-3.226-1.279-5.935-1.796.868 2.632 1.903 5.113 2.527 5.661a2.576 2.576 0 003.408-3.866zm7.228.212a2.58 2.58 0 00-.76 1.826c0 .685.273 1.34.76 1.827.487.486 1.142.76 1.826.76.685 0 1.34-.274 1.827-.76.593-.594 1.476-3.135 2.16-5.813-2.663.684-5.219 1.567-5.813 2.16zm21.761-22.14h-50.993v31.225h24.028v-2.967a5.813 5.813 0 01-3.728 1.369 5.734 5.734 0 01-3.82-1.445c-.593-.533-1.552-1.689-2.967-5.676-.73-2.055-1.233-3.896-1.263-3.972l-.639-2.344 2.404.35c.076.016 1.963.29 4.109.746.258.06.502.107.73.167a7.023 7.023 0 01-.365-2.267c0-.578 0-2.328 2.983-7.7a81.615 81.615 0 012.845-4.732l1.339-2.04 1.339 2.04a75.659 75.659 0 012.846 4.732c2.983 5.372 2.983 7.122 2.983 7.7 0 .761-.122 1.491-.35 2.191.121-.03.243-.076.365-.106 2.1-.594 3.972-.99 4.048-1.005l2.389-.502-.502 2.39a67.833 67.833 0 01-1.005 4.047c-1.156 4.063-2.039 5.281-2.602 5.844a5.723 5.723 0 01-4.078 1.689 5.711 5.711 0 01-3.835-1.461v2.952h23.77V77.071h-.031zm-15.902 41.314h-3.424v3.196h3.424v-3.196zm10.18 0h-3.423v3.196h3.423v-3.196zm-30.556 0h-3.424v3.196h3.424v-3.196zm35.654 0h-3.424v3.196h3.424v-3.196zm-10.195 0h-3.424v3.196h3.424v-3.196zm-20.361 0h-3.424v3.196h3.424v-3.196zm23.815-15.05l2.785 2.77 1.217-1.218-2.785-2.769 1.537-1.537-6.665-2.328 2.374 6.634 1.537-1.552zm-13.635 15.05h-3.424v3.196h3.424v-3.196zm18.778 8.157h3.424v-3.196h-3.424v3.196zm-59.956 6.513v3.195H256v-3.195h-73.378zm64.735-20.042l7.897 18.748h-71.856l7.639-18.748h56.32zm3.089 15.568l-5.205-12.357h-52.058l-5.037 12.357h62.3zm-18.17-2.039h3.424v-3.196h-3.424v3.196zm5.22 0h3.424v-3.196h-3.424v3.196zM39.032 102.865c-2.526.03-5.387.076-8.308.426-2.907.334-5.707.958-8.203 1.521-3.043.67-5.736 1.263-8.019 1.263-1.735 0-3.241-.334-4.504-1.247-1.644-1.172-2.618-3.135-2.952-5.98-.624-5.266 1.217-10.912 5.036-15.492 3.942-4.733 9.374-7.73 15.324-8.43 5.935-.7 11.855.958 16.678 4.671 4.642 3.576 7.67 8.644 8.279 13.909.334 2.891-.137 5.037-1.477 6.543-2.297 2.679-6.513 2.739-11.854 2.816zm-8.141-14.411c0-.533-.746-2.13-1.75-3.911-1.02 1.78-1.75 3.378-1.75 3.91 0 .975.791 1.75 1.75 1.75a1.76 1.76 0 001.75-1.75zm8.096 11.215c4.367-.061 8.126-.122 9.526-1.72.7-.79.928-2.13.7-4.078-.518-4.428-3.09-8.704-7.061-11.748-3.546-2.724-7.761-4.17-12.083-4.17-.76 0-1.521.046-2.282.138-5.128.609-9.83 3.195-13.24 7.289-3.256 3.926-4.838 8.689-4.321 13.072.228 1.902.76 3.134 1.628 3.758 1.796 1.278 5.585.426 9.983-.548 1.75-.38 3.667-.806 5.676-1.156v-3.15a4.07 4.07 0 01-2.268.852c-.09 0-.182.015-.258.015a4.106 4.106 0 01-2.724-1.034c-1.263-1.111-2.344-4.657-2.74-6.133l-.638-2.343 2.404.35c.7.106 1.856.289 3.028.578a5.333 5.333 0 01-.152-1.218c0-2.16 2.77-6.543 3.622-7.837l1.339-2.039 1.339 2.04c.852 1.293 3.622 5.675 3.622 7.836 0 .396-.046.792-.137 1.172 1.065-.32 2.1-.548 2.739-.685l2.389-.502-.502 2.39c-.305 1.49-1.157 5.097-2.359 6.284a4.09 4.09 0 01-2.906 1.202 4.07 4.07 0 01-2.587-.913v2.678c2.937-.289 5.767-.334 8.263-.38zm-6.33-4.824c.35.35.928.365 1.293.015.213-.258.532-1.095.852-2.16-1.05.319-1.887.638-2.161.852a.943.943 0 00.015 1.293zm-6.742-.76a.908.908 0 00-.304-.625c-.274-.198-1.126-.471-2.207-.715.38 1.035.761 1.857.99 2.1.182.152.41.243.654.213a.943.943 0 00.639-.304.924.924 0 00.228-.67zm-22.72 6.421c0-14.974 12.174-27.148 27.148-27.148 13.026 0 24.256 9.283 26.676 22.065l.046.213 7.517 14.928c-1.78 1.203-4.9 2.816-6.985 1.963l-2.054-.836-.152 2.206c-.061.959-.168 2.267-.274 3.667-.244 3.226-.533 6.879-.548 8.735 0 .335-.243.7-.715 1.081-3.394 2.723-12.57 2.647-19.463 1.202l-.654 3.134c2.648.563 5.295.898 7.806 1.02-.76 2.8-.685 5.843-.593 7.259h3.195c-.076-1.005-.243-4.368.715-7.213 4.779-.137 8.78-1.126 10.987-2.892 1.568-1.247 1.902-2.617 1.918-3.53.03-1.765.304-5.509.547-8.537.046-.654.092-1.278.138-1.872 4.26.259 8.628-3.21 9.175-3.667l.99-.807-8.492-16.89c-2.8-14.183-15.278-24.44-29.765-24.44C13.62 70.147 0 83.767 0 100.506c0 6.117 1.81 12.006 5.235 17.043.578.852 1.248 1.75 1.902 2.602.806 1.066 1.567 2.07 2.115 2.968 1.704 2.861 3.196 6.315 3.257 9.358.076 3.607-1.553 6.711-2.01 7.518h3.257c.487-.913 1.948-4.002 1.948-7.518 0-7.563-7.38-16.389-8.308-17.469a26.937 26.937 0 01-4.2-14.502zm220.97 132.253s-2.069.259-5.097.259c-4.839 0-12.128-.655-17.302-4.094a27.788 27.788 0 01-7.213.944c-12.889 0-23.344-8.613-23.344-19.25 0-5.433 2.724-10.333 7.122-13.833h-.563a32.11 32.11 0 01-3.226-.152c-5.296 2.511-13.3 2.983-18.504 2.983-3.089 0-5.205-.168-5.205-.168 5.89-1.05 8.735-4.61 10.059-7.273-5.295-3.379-8.643-8.324-8.643-13.833 0-10.18 11.413-18.443 25.504-18.443 14.091 0 25.504 8.263 25.504 18.443 0 5.098-2.861 9.709-7.487 13.057 12.326.532 22.111 8.932 22.111 19.219 0 3.835-1.355 7.396-3.683 10.393 1.278 4.231 4.063 10.074 9.967 11.748zm-30.236-43.963c3.956-2.86 6.148-6.573 6.148-10.454 0-3.88-2.177-7.578-6.148-10.454-4.276-3.089-10.013-4.794-16.161-4.794-6.148 0-11.885 1.705-16.161 4.794-3.956 2.861-6.147 6.574-6.147 10.454 0 2.07.623 4.094 1.826 5.996 1.232 1.917 3.073 3.698 5.326 5.143l2.419 1.552-1.278 2.572a17.84 17.84 0 01-1.583 2.587c4.626-.38 8.431-1.217 11.002-2.435l.792-.38.867.076c.959.091 1.948.137 2.937.137 6.133 0 11.885-1.705 16.161-4.794zm20.878 40.844c-1.537-2.146-2.77-4.733-3.652-7.7l-.472-1.583 1.02-1.309c1.978-2.526 3.013-5.447 3.013-8.43 0-4.17-2.009-8.126-5.676-11.154-3.835-3.165-8.979-4.915-14.472-4.915-5.494 0-10.637 1.75-14.472 4.915-3.652 3.013-5.676 6.969-5.676 11.154s2.009 8.126 5.676 11.154c3.835 3.165 8.978 4.915 14.472 4.915 2.176 0 4.322-.274 6.376-.821l1.385-.366 1.202.792c3.226 2.115 7.624 2.998 11.276 3.348zm-12.57-21.046l2.405-.35-.639 2.344c-.396 1.476-1.476 5.006-2.74 6.132a4.101 4.101 0 01-2.723 1.035c-.092 0-.183 0-.259-.015a4.024 4.024 0 01-2.267-.853v4.413h-3.196v-4.397a4.106 4.106 0 01-2.587.913 4.068 4.068 0 01-2.907-1.202c-1.186-1.187-2.039-4.794-2.358-6.285l-.502-2.389 2.389.502c.639.137 1.674.365 2.739.685a4.961 4.961 0 01-.137-1.172c0-2.161 2.769-6.543 3.622-7.837l1.339-2.039 1.339 2.039c.852 1.294 3.622 5.676 3.622 7.837 0 .426-.046.822-.153 1.217 1.157-.289 2.313-.471 3.013-.578zm-11.352 4.459c-.258-.213-1.095-.533-2.161-.852.32 1.05.64 1.886.853 2.16.365.35.943.35 1.293-.015a.913.913 0 00.015-1.293zm5.281-5.098c0-.533-.746-2.13-1.75-3.911-1.02 1.781-1.75 3.378-1.75 3.911a1.75 1.75 0 103.5 0zm3.956 4.291c-1.08.244-1.932.518-2.206.715a.913.913 0 00-.305.624.913.913 0 00.868.974.922.922 0 00.654-.213c.228-.259.609-1.065.989-2.1zm-13.711-37.51v.334c0 1.857-.928 3.5-2.328 4.505a5.507 5.507 0 012.328 4.504l-.045 5.28-3.196-.03.046-5.265a2.325 2.325 0 00-2.328-2.313 2.328 2.328 0 00-2.329 2.328l-.045 5.28-3.196-.03.031-3.972-4.444 3.15v.852l-3.196-.015.046-9.298a5.541 5.541 0 012.602-4.686 5.505 5.505 0 01-2.602-4.687v-.335a5.533 5.533 0 015.524-5.524c2.8 0 5.128 2.1 5.478 4.809a5.487 5.487 0 012.131-.426c3.043.015 5.523 2.495 5.523 5.539zm-10.804 5.295c0-.061 0-.121-.015-.198v-.03a2.33 2.33 0 00-2.328-2.085 2.328 2.328 0 00-2.328 2.328l-.031 4.535 3.713-2.632a2.36 2.36 0 00.944-1.507c.03-.122.045-.259.045-.411zm0-9.678a2.328 2.328 0 00-4.656 0v.335a2.328 2.328 0 004.656 0v-.335zm7.609 4.383a2.328 2.328 0 10-4.657 0v.334a2.329 2.329 0 104.657 0v-.334zm2.663-83.497l-25.078-20.62-2.024 2.465 25.078 20.62 2.024-2.465zm12.691 48.208l-8.567 14.837 2.769 1.597 8.568-14.836-2.77-1.598zm-90.832 50.217h39.748v-3.196h-39.748v3.196zm-40.112-37.298l-7.746-13.421-2.77 1.597 7.746 13.422 2.77-1.598zm26.98-79.327l-2.161-2.359-23.267 21.289 2.16 2.359 23.268-21.29zm6.756 128.616l2.405-.502-.503 2.404c-.38 1.811-1.734 7.822-3.515 9.602a5.617 5.617 0 01-4.002 1.659 5.602 5.602 0 01-3.652-1.339v20.924h-3.211v-20.924c-1.02.837-2.283 1.248-3.56 1.248a5.622 5.622 0 01-3.729-1.416c-1.887-1.658-3.622-7.593-4.109-9.373l-.654-2.359 2.42.35c.867.122 2.693.411 4.58.852a6.885 6.885 0 01-.32-2.1c0-.974.305-2.815 2.892-7.487a76.169 76.169 0 012.754-4.58l1.34-2.055 1.338 2.055c.061.091 1.4 2.13 2.755 4.58 2.586 4.672 2.89 6.513 2.89 7.487 0 .7-.106 1.385-.304 2.024a46.717 46.717 0 014.185-1.05zm-13.604 7.259a2.425 2.425 0 00-.822-1.674c-.502-.442-2.724-1.142-5.63-1.72.822 2.496 1.81 4.854 2.404 5.372 1.005.882 2.557.791 3.44-.213a2.374 2.374 0 00.608-1.765zm6.513-8.248c0-.898-1.187-3.911-3.774-8.187-2.602 4.276-3.774 7.289-3.774 8.187a3.773 3.773 0 107.548 0zm5.265 4.717c-2.541.67-4.945 1.507-5.508 2.055-.944.943-.944 2.495 0 3.454a2.42 2.42 0 001.719.715 2.42 2.42 0 001.72-.715c.563-.563 1.4-2.968 2.07-5.509zM85.02 223.385l2.389-.502-.502 2.389c-.38 1.811-1.4 6.194-2.815 7.594a4.727 4.727 0 01-3.333 1.384c-.852 0-1.72-.228-2.465-.7v.853h-3.196v-.883a4.726 4.726 0 01-2.389.639 4.769 4.769 0 01-3.12-1.172c-1.49-1.308-2.784-5.615-3.286-7.41l-.64-2.344 2.405.35c.715.107 1.81.274 2.982.533a5.59 5.59 0 01-.121-1.142c0-.791.243-2.267 2.282-5.95 1.05-1.902 2.1-3.484 2.146-3.56l1.339-2.04 1.34 2.04c1.034 1.582 4.412 6.939 4.412 9.51 0 .35-.03.7-.091 1.05a44.478 44.478 0 012.663-.639zm-11.307 4.931c-.365-.305-1.826-.746-3.576-1.111.594 1.689 1.203 3.074 1.553 3.408a1.532 1.532 0 002.145-.137 1.508 1.508 0 00-.122-2.16zm5.555-5.326c0-.837-1.172-3.242-2.557-5.6-1.385 2.374-2.556 4.778-2.556 5.6a2.552 2.552 0 002.556 2.556c1.4 0 2.557-1.156 2.557-2.556zm3.895 4.139c-1.72.487-3.15 1.004-3.5 1.339-.289.289-.44.669-.44 1.08a1.507 1.507 0 001.52 1.522c.412 0 .792-.152 1.081-.441.335-.366.868-1.781 1.34-3.5zm-11.93-48.163c.32-.533.457-1.278.426-2.176v-.061c0-1.613-.35-2.785-1.035-3.454-.715-.7-1.72-1.035-3.104-1.035-.944 0-1.75.167-2.39.517-.669.366-1.201.822-1.612 1.416-.442.624-.776 1.369-1.005 2.237-.243.928-.35 1.947-.35 3.013v1.613H48.984l.03-1.629c.046-2.617.503-5.052 1.355-7.243.867-2.222 2.085-4.17 3.652-5.798 1.568-1.643 3.485-2.937 5.691-3.85 2.192-.913 4.672-1.369 7.35-1.369 3.394 0 6.3.487 8.629 1.445 2.328.959 4.245 2.176 5.706 3.637 1.461 1.461 2.541 3.089 3.18 4.809.624 1.689.944 3.302.944 4.793 0 2.359-.32 4.368-.959 5.95-.624 1.552-1.415 2.907-2.358 4.018a15.926 15.926 0 01-3.09 2.83c-.989.685-1.932 1.37-2.8 2.039a11.617 11.617 0 00-2.115 2.115c-.517.655-.837 1.476-.989 2.511v4.063H60.87v-4.763c.152-2.13.578-3.956 1.263-5.432.67-1.446 1.476-2.694 2.374-3.729a18.94 18.94 0 012.815-2.632 36.162 36.162 0 002.404-1.948c.61-.609 1.127-1.233 1.507-1.887zm2.77 1.613a10.805 10.805 0 01-2.192 2.633c-.806.7-1.674 1.415-2.602 2.115a16.29 16.29 0 00-2.328 2.176c-.7.806-1.34 1.796-1.887 2.967-.517 1.111-.837 2.542-.959 4.246v1.385h5.92v-1.066l.015-.106c.213-1.628.776-3.028 1.643-4.154a15.526 15.526 0 012.694-2.694 64.87 64.87 0 012.952-2.145c.898-.609 1.72-1.37 2.45-2.253.715-.852 1.34-1.917 1.841-3.15.487-1.202.73-2.8.73-4.747 0-1.111-.243-2.344-.745-3.668-.487-1.278-1.293-2.511-2.435-3.652-1.156-1.156-2.708-2.13-4.64-2.937-1.934-.791-4.43-1.202-7.412-1.202-2.252 0-4.306.38-6.117 1.126-1.796.746-3.333 1.796-4.596 3.104-1.263 1.324-2.267 2.922-2.982 4.748-.533 1.385-.883 2.892-1.05 4.505h6.71c.077-.761.198-1.507.381-2.207.32-1.248.822-2.359 1.507-3.302a7.845 7.845 0 012.708-2.374c1.111-.593 2.42-.898 3.911-.898 2.222 0 4.033.655 5.356 1.948 1.324 1.293 1.994 3.226 2.01 5.722.03 1.506-.26 2.815-.884 3.88zm-.746 32.9H60.793v-12.265h12.463v12.265zm-3.21-9.054h-6.042v5.843h6.041v-5.843zm-10.79 21.167l-.076 8.582-3.21-.03.075-8.567c0-2.618-2.145-4.763-4.778-4.763a4.786 4.786 0 00-4.778 4.778l-.076 8.582-3.211-.03.076-8.446-9.313 6.589-.015 1.887-3.211-.015.076-15.095c0-3.318 2.04-6.179 4.946-7.381a7.99 7.99 0 01-4.977-7.395c0-4.398 3.592-7.989 7.99-7.989 4.245 0 7.73 3.332 7.973 7.502a7.939 7.939 0 014.474-1.385c4.398 0 7.99 3.591 7.99 7.989 0 3.53-2.298 6.528-5.494 7.593 3.21 1.035 5.539 4.048 5.539 7.594zm-20.482-16.541a4.787 4.787 0 004.778-4.779 4.787 4.787 0 00-4.778-4.778 4.787 4.787 0 00-4.779 4.778 4.787 4.787 0 004.779 4.779zm4.474 1.841a8.118 8.118 0 01-1.431.776 8.068 8.068 0 011.735.974 9.567 9.567 0 01-.304-1.75zm.35 8.141a4.78 4.78 0 00-4.779-4.748 4.787 4.787 0 00-4.778 4.779l-.046 9.267 7.594-5.372a4.78 4.78 0 001.948-3.089c.03-.289.06-.563.06-.837zm5.173-1.019a8.23 8.23 0 01-2.267-1.172c.198.685.304 1.4.304 2.13a7.57 7.57 0 011.963-.958zM56 210.405a4.786 4.786 0 00-4.778-4.778 4.786 4.786 0 00-4.778 4.778 4.787 4.787 0 004.778 4.778A4.777 4.777 0 0056 210.405z" fill="#1ED261"/></svg>