<svg width="128" height="128" fill="none" xmlns="http://www.w3.org/2000/svg"><path d="M11.799 24.438l44.54 36.59c1.959 1.62 4.832 2.43 7.575 2.296 2.743.135 5.486-.54 7.576-2.296l44.671-36.59c3.526-2.97 2.743-5.266-1.829-5.266H13.627c-4.702 0-5.486 2.43-1.828 5.266z" fill="#000"/><path d="M119.295 34.16l-48.72 38.21c-1.828 1.35-4.18 2.16-6.53 2.026-2.351 0-4.833-.675-6.662-2.026L8.663 34.16c-3.657-2.836-6.53-1.35-6.53 3.375v62.785c0 4.725 3.657 8.506 8.229 8.506h107.366c4.571 0 8.228-3.916 8.228-8.506V37.535c-.13-4.726-3.134-6.211-6.661-3.376z" fill="#000"/></svg>