<svg width="256" height="256" fill="none" xmlns="http://www.w3.org/2000/svg"><path d="M204.717 153.983c-24.793 0-44.947 20.148-44.947 44.932 0 24.785 20.154 44.932 44.947 44.932 24.792 0 44.946-20.147 44.946-44.932 0-24.784-20.154-44.932-44.946-44.932zm-.64 81.336l-35.723-32.193 7.518-8.368 23.246 20.947v-49.409h11.25v48.609l23.3-20.254 7.358 8.475-36.949 32.193z" fill="#FFB600"/><path d="M172.245 244.754H17.25V11.246H160.57V48.45h37.909v94.661a59.362 59.362 0 016.238-.32c1.706 0 3.359.053 5.012.213V40.721l-3.626-3.57-34.283-33.58L168.193 0H6v256h203.781v-1.119c-1.653.16-3.359.213-5.012.213-12.156 0-23.353-3.838-32.524-10.34zm-.426-225.726l18.554 18.175h-18.554V19.028z" fill="#FFB600"/><path d="M61.506 101.378c3.306 0 6.078-.479 8.371-1.439 2.293-.959 4.159-2.238 5.652-3.784a14.07 14.07 0 003.145-5.383c.64-2.026 1.013-4.104 1.013-6.236 0-2.132-.32-4.264-1.013-6.236-.64-2.026-1.706-3.785-3.145-5.384-1.44-1.545-3.306-2.825-5.652-3.784-2.293-.96-5.118-1.44-8.37-1.44H37.832v52.501h11.57v-18.815h12.103zM49.35 76.701h8.957c1.333 0 2.613.106 3.839.32 1.226.213 2.293.586 3.252 1.119.907.586 1.653 1.385 2.24 2.398.586 1.013.853 2.399.853 4.051 0 1.652-.267 3.038-.853 4.05-.587 1.014-1.333 1.813-2.24 2.4-.906.586-2.026.959-3.252 1.119-1.226.213-2.506.32-3.839.32H49.35V76.7zM127.46 112.625c1.972-2.345 3.465-5.17 4.425-8.368.96-3.252 1.493-6.77 1.493-10.607 0-4.37-.587-8.155-1.813-11.406-1.226-3.251-2.879-5.916-5.012-8.102-2.132-2.132-4.638-3.784-7.571-4.85-2.932-1.066-6.078-1.6-9.437-1.6h-22.66v52.501h22.66c3.999 0 7.518-.693 10.503-2.025 2.986-1.333 5.439-3.145 7.412-5.543zm-13.863-2.932c-1.546.533-3.199.8-4.852.8h-10.29v-33.1h8.264c2.826 0 5.225.427 7.198 1.226 1.919.8 3.519 1.972 4.692 3.518 1.173 1.546 2.026 3.358 2.559 5.49.533 2.132.747 4.53.747 7.196 0 2.878-.374 5.33-1.12 7.355-.747 2.025-1.706 3.624-2.933 4.904-1.279 1.172-2.665 2.078-4.265 2.611zM178.377 77.394v-9.701h-36.949v52.554h11.516V98.554h22.021v-9.008h-22.021V77.393h25.433zM178.693 134.155H37.4v11.247h141.293v-11.247zM77.442 182.821H37.4v11.247h40.042v-11.247zM156.726 169.76c.266-.48.586-.959.906-1.386.053-.106.16-.213.213-.319.267-.374.534-.747.8-1.173.054-.107.107-.16.16-.267.64-.906 1.333-1.812 2.026-2.718.054-.053.107-.16.16-.213.32-.426.64-.8 1.013-1.226l.107-.107c.746-.906 1.546-1.758 2.346-2.611l.106-.107 1.227-1.226H37.4v11.247l119.326.106z" fill="#FFB600"/></svg>