<svg width="256" height="256" fill="none" xmlns="http://www.w3.org/2000/svg"><path d="M228.073 21H27.87v128.959h200.203V21zm-111.489 98.597c-3.292 3.652-8.973 4.017-12.689.782-2.177-1.878-5.787-10.433-8.813-19.406 9.45 1.826 18.529 4.278 20.705 6.156 3.717 3.182 4.088 8.816.797 12.468zm24.421-11.738c2.07-2.034 10.936-5.06 20.28-7.408-2.442 9.182-5.521 17.894-7.538 19.928a9.082 9.082 0 01-12.742 0c-1.699-1.669-2.655-3.912-2.655-6.26 0-2.347.956-4.59 2.655-6.26zm-12.529-10.277c-7.645 0-13.857-6.103-13.857-13.616 0-4.956 7.061-18.31 13.857-29.318 9.503 15.285 13.803 26.136 13.803 29.318.053 7.565-6.158 13.616-13.803 13.616zm88.448 41.421h-82.927v-10.12a20.223 20.223 0 0013.379 5.008c5.362 0 10.458-2.035 14.228-5.791 1.964-1.93 5.043-6.103 9.078-20.032 2.071-7.199 3.451-13.616 3.504-13.877l1.752-8.19-8.335 1.721c-.265.053-6.795 1.409-14.122 3.444-.425.104-.849.26-1.274.365a23.482 23.482 0 001.221-7.512c0-1.983 0-7.982-10.406-26.397-4.884-8.66-9.715-15.911-9.927-16.224l-4.619-6.99-4.672 6.99c-.213.313-5.044 7.512-9.928 16.224-10.406 18.415-10.406 24.414-10.406 26.397 0 2.712.478 5.32 1.274 7.773-.796-.21-1.645-.366-2.548-.574-7.433-1.618-14.016-2.556-14.334-2.556l-8.388-1.2 2.23 8.034c.053.26 1.858 6.573 4.406 13.615 4.937 13.668 8.282 17.633 10.352 19.459 3.823 3.339 8.601 4.956 13.326 4.956 4.672 0 9.291-1.565 13.007-4.695v10.172H39.019V31.955h177.905v107.048zM225.845 155.175H29.359L2.708 219.498h250.691l-27.554-64.323zm-189 10.955h181.621l18.157 42.36H19.273l17.572-42.36zM256 223.879H0v10.955h256v-10.955z" fill="#1ED261"/><path d="M191.229 121.996l9.715 9.495 4.247-4.174-9.715-9.494 5.362-5.269-23.2-7.982 8.282 22.693 5.309-5.269zM165.589 191.171H90.36v9.703h75.229v-9.703zM54.845 173.591H42.899v10.956h11.946v-10.956zM72.621 173.591H60.676v10.956H72.62v-10.956zM90.403 173.591H78.458v10.956h11.945v-10.956zM108.14 173.591H96.194v10.956h11.946v-10.956zM125.93 173.591h-11.946v10.956h11.946v-10.956zM143.72 173.591h-11.946v10.956h11.946v-10.956zM161.45 173.591h-11.945v10.956h11.945v-10.956zM179.232 173.591h-11.945v10.956h11.945v-10.956zM197.015 173.591h-11.946v10.956h11.946v-10.956zM214.745 173.591H202.8v10.956h11.945v-10.956zM46.88 190.598H34.935v10.955H46.88v-10.955zM64.67 190.598H52.725v10.955H64.67v-10.955zM203.391 190.598h-11.946v10.955h11.946v-10.955zM185.181 190.598h-11.946v10.955h11.946v-10.955zM221.12 190.598h-11.945v10.955h11.945v-10.955zM82.715 190.598H70.769v10.955h11.946v-10.955z" fill="#1ED261"/></svg>