<svg width="256" height="256" fill="none" xmlns="http://www.w3.org/2000/svg"><path d="M214.162 95.788a20.014 20.014 0 0013.329 5.078c5.13 0 10.261-1.957 14.175-5.871 1.957-1.957 5.025-6.188 9.045-20.31 2.063-7.3 3.438-13.806 3.491-14.07l1.745-8.304-8.304 1.745c-.265.053-6.77 1.428-14.069 3.491-.424.106-.847.265-1.27.37a24.195 24.195 0 001.217-7.616c0-2.01 0-8.093-10.367-26.764-4.866-8.78-9.68-16.132-9.891-16.45L208.661 0l-4.654 7.088c-.212.317-5.025 7.616-9.891 16.45-10.367 18.67-10.367 24.753-10.367 26.763 0 2.75.476 5.395 1.269 7.88-.793-.21-1.64-.37-2.539-.581-7.405-1.64-13.963-2.592-14.281-2.592l-8.357-1.216 2.222 8.145c.053.265 1.851 6.665 4.39 13.805 4.919 13.858 8.251 17.878 10.314 19.73 3.808 3.384 8.568 5.024 13.276 5.024 4.654 0 9.256-1.587 12.959-4.76v72.409H147.57c5.924-29.566 4.285-54.373-4.972-73.838-3.596-7.51-7.722-12.905-11.213-16.555 3.121-3.808 5.025-8.674 5.025-14.016V62.36c0-12.165-9.891-22.056-22.056-22.056-12.166 0-22.056 9.891-22.056 22.056v1.376c0 12.165 9.89 22.056 22.056 22.056a21.53 21.53 0 007.881-1.481 37.464 37.464 0 013.279 3.543c-3.544 10.42-10.42 18.513-20.522 24.067-7.828 4.337-14.704 5.448-14.757 5.448l.106.846-.953-.423c-8.462 19.676-23.96 26.71-31.365 29.038-.529-3.332-1.11-6.559-1.798-9.627 5.87-3.967 9.732-10.684 9.732-18.248v-1.375c0-12.165-9.89-22.056-22.056-22.056s-22.056 9.891-22.056 22.056v1.375c0 12.166 9.89 22.057 22.056 22.057.582 0 1.163-.053 1.745-.053 4.92 23.748 3.597 44.958-4.02 61.567-5.923 13.276-13.804 19.094-13.857 19.094l6.4 9.097c.423-.264 9.996-7.193 17.296-22.743 3.12-6.612 5.183-13.488 6.505-20.417 5.818 3.385 13.858 10.579 16.714 25.283v31.577H0v11.107h85.739v-32.317h37.924v-43.954h131.226v-11.108h-40.727V95.788zm27.24-28.879c-2.433 9.31-5.501 18.142-7.511 20.205-3.491 3.49-9.203 3.49-12.694 0-3.491-3.49-3.491-9.203 0-12.694 2.01-2.01 10.896-5.078 20.205-7.51zm-32.741-46.387c9.468 15.498 13.752 26.5 13.752 29.726 0 7.617-6.188 13.805-13.805 13.805-7.616 0-13.805-6.188-13.805-13.805.053-4.972 7.141-18.512 13.858-29.726zm-11.848 65.852c-3.279 3.702-8.939 4.072-12.641.793-2.169-1.904-5.765-10.579-8.78-19.676 9.415 1.851 18.459 4.337 20.628 6.241 3.702 3.227 4.073 8.94.793 12.642zM33.005 119.06v-1.375c0-6.03 4.919-10.949 10.949-10.949s10.949 4.919 10.949 10.949v1.375c0 6.03-4.92 10.949-10.95 10.949-6.029 0-10.948-4.919-10.948-10.949zm103.193 49.084h-12.535c.846-9.414 8.621-20.205 16.132-28.403-.317 10.103-1.745 19.888-3.597 28.403zm-32.74-104.357v-1.375c0-6.03 4.919-10.948 10.949-10.948 6.029 0 10.948 4.918 10.948 10.948v1.375c0 6.03-4.919 10.95-10.948 10.95-6.083-.054-10.949-4.92-10.949-10.95zM85.792 212.1c-2.698-15.656-10.314-24.912-16.503-30.043a42.587 42.587 0 00-9.838-6.082 117.63 117.63 0 00-.106-17.825c7.934-2.169 26.605-9.362 37.924-30.942 8.728-2.539 25.865-9.627 35.386-27.822.052.159.158.317.211.529 3.544 7.722 5.501 16.132 6.4 24.648-3.226 3.015-7.881 7.616-12.377 13.17-10.208 12.589-15.021 23.961-14.387 33.957v40.41h-26.71z" fill="#1ED261"/><path d="M254.888 233.573H95.575v11.108h159.313v-11.108zM254.889 212.1H132.812v11.107h122.077V212.1zM254.889 190.625H132.812v11.107h122.077v-11.107z" fill="#1ED261"/></svg>