<svg width="128" height="128" viewBox="0 0 128 128" fill="none" xmlns="http://www.w3.org/2000/svg">
<path d="M63.8791 0C39.2057 0 19.1016 20.7823 19.1016 46.2878C19.1016 78.001 59.1794 124.559 60.8765 126.583C62.4431 128.472 65.3152 128.472 66.8817 126.583C68.5788 124.559 108.657 78.001 108.657 46.2878C108.787 20.7823 88.683 0 63.8791 0ZM63.8791 69.6342C51.4771 69.6342 41.2945 59.1081 41.2945 46.2878C41.2945 33.4676 51.4771 22.9415 63.8791 22.9415C76.281 22.9415 86.4637 33.4676 86.4637 46.2878C86.4637 59.1081 76.4116 69.6342 63.8791 69.6342Z" fill="white"/>
</svg>
