<svg width="256" height="256" fill="none" xmlns="http://www.w3.org/2000/svg"><g clip-path="url(#clip0)" fill="#FFB600"><path d="M102.295 190.262H50.14v11.142h52.155v-11.142zM102.295 168.721H50.14v11.142h52.155v-11.142zM102.295 147.181H50.14v11.142h52.155v-11.142zM127.654 243.426c-7.747-3.501-30.826-12.946-54.119-12.946-26.793 0-47.008 9.02-54.33 12.787v12.734s2.175-1.114 2.865-1.592c.212-.159 21.541-12.787 51.412-12.787 25.309 0 51.572 12.893 51.837 12.999l2.759 1.38 2.6-1.592c.212-.106 21.541-12.787 51.412-12.787 27.537 0 50.298 12.257 51.678 12.946a37.534 37.534 0 012.652 1.433v-12.575c-7.428-3.554-29.181-12.946-54.33-12.946-26.847 0-47.327 9.232-54.436 12.946z"/><path d="M179.439 104.575c3.077 0 6.154-.159 9.126-.424 15.015 7.11 37.67 8.436 52.42 8.436 8.754 0 14.75-.478 14.75-.478-16.66-2.971-24.725-13.052-28.492-20.639 15.015-9.55 24.459-23.61 24.459-39.209C251.702 23.398 219.338 0 179.439 0c-33.744 0-62.077 16.713-70.035 39.315-8.914-4.032-19.154-6.314-30.03-6.314-34.54 0-62.555 23.08-62.555 51.572 0 10.24 3.608 19.79 9.869 27.855C23.292 123.782 15.81 139.434 0 143.944c0 0 5.571.689 13.689.689 1.75 0 3.555-.053 5.518-.106v94.389s22.337-13.583 54.33-13.583c26.953 0 54.33 13.583 54.33 13.583s22.497-13.583 54.331-13.583c29.393 0 54.33 13.583 54.33 13.583V130.149s-20.374-13.583-54.33-13.583c-34.063 0-54.331 13.583-54.331 13.583s-3.448-2.282-9.815-4.988c11.036-7.162 19.047-17.296 22.284-28.969v.053c11.248 5.253 24.671 8.33 39.103 8.33zm-44.568-80.169c11.779-8.489 27.59-13.211 44.568-13.211 16.978 0 32.789 4.669 44.568 13.211 10.664 7.694 16.553 17.615 16.553 27.908 0 5.465-1.644 10.824-4.881 15.864-3.289 5.2-8.33 10.028-14.484 13.954l-8.436 5.412 4.456 8.967c.69 1.326 1.38 2.653 2.176 3.873-10.877-1.167-19.844-3.343-26.104-6.314l-2.759-1.326-3.025.265c-2.652.265-5.411.371-8.117.371-13.795 0-26.794-3.077-37.512-8.807v-.053c0-15.97-8.807-30.243-22.602-39.687 2.175-7.48 7.481-14.59 15.599-20.427zm31.622 162.302c.637.583 1.008 1.326 1.061 2.175.053.849-.212 1.698-.796 2.334a3.184 3.184 0 01-2.228 1.062 3.213 3.213 0 01-2.282-.743c-.796-.849-2.122-3.714-3.448-7.322 3.714.902 6.738 1.804 7.693 2.494zm24.512.371c.902-.743 3.82-1.857 7.534-2.971-1.114 3.661-2.228 6.579-2.971 7.534-1.273 1.22-3.289 1.22-4.51-.053-1.273-1.221-1.273-3.237-.053-4.51zm-12.256-11.673a6.102 6.102 0 01-6.102-6.101c0-1.857 2.6-7.428 6.102-13.636 3.555 6.208 6.102 11.779 6.102 13.636 0 3.342-2.759 6.101-6.102 6.101zm-31.887-41.915c7.534-2.652 19.737-5.836 35.336-5.836 15.492 0 27.749 3.184 35.283 5.836a80.23 80.23 0 017.852 3.237v85.316c-10.505-3.714-25.043-7.535-41.066-7.853v-13.742c2.6 2.123 5.836 3.184 9.02 3.184 3.661 0 7.375-1.38 10.134-4.192 4.138-4.138 7.109-16.713 8.223-21.912l1.751-8.33-8.33 1.751c-2.228.477-5.836 1.273-9.55 2.387.318-1.326.478-2.653.478-4.085 0-7.534-9.657-22.815-12.628-27.325l-4.669-7.109-4.669 7.109c-2.971 4.51-12.628 19.791-12.628 27.325 0 1.485.16 2.865.531 4.244-4.085-1.008-8.118-1.644-10.558-2.016l-8.383-1.22 2.228 8.171c1.379 5.146 5.147 17.455 9.55 21.382 2.653 2.334 5.996 3.608 9.497 3.608.319 0 .637 0 .902-.054a14.042 14.042 0 007.906-2.971v14.06c-16.925 1.221-30.826 5.731-39.846 9.445v-83.99l.796-.53c.424-.266 4.934-3.078 12.84-5.89zm-24.725 6.208v84.626c-11.248-4.351-29.818-10.187-48.6-10.187-17.615 0-32.577 3.767-43.188 7.534v-78.047c10.134-1.326 21.01-4.191 29.711-9.921 6.102 1.644 12.575 2.493 19.313 2.493 8.808 0 17.138-1.485 24.725-4.191 1.698.53 3.289 1.008 4.669 1.538 7.905 2.812 12.468 5.624 12.946 5.89l.424.265zm-16.182-8.383c.053 0 .053 0 .106-.053-.053.053-.106.053-.106.053zm10.293-5.04l.318-.16-.318.16zm-6.685 3.501c.053 0 .106-.053.159-.053-.053.053-.106.053-.159.053zm1.698-.795c.053-.054.159-.054.212-.107a.404.404 0 01-.212.107zm3.395-1.804l.319-.16-.319.16zm1.857-14.697c-9.815 8.118-23.027 12.574-37.14 12.574a65.308 65.308 0 01-16.447-2.122l-4.829-1.273-4.191 2.759c-5.783 3.873-13.954 6.579-23.663 7.958 2.865-4.934 5.252-10.505 7.11-16.713l1.644-5.518-3.555-4.563c-4.934-6.313-7.534-13.582-7.534-21.01 0-10.4 5.04-20.268 14.272-27.855 9.816-8.118 23.027-12.575 37.14-12.575s27.325 4.457 37.14 12.575c9.179 7.587 14.272 17.509 14.272 27.855.053 10.399-4.987 20.321-14.219 27.908zm24.247-17.986c-.053.159-.053.318-.106.477.053-.212.106-.371.106-.477zm1.167-8.437v.425c-.053-.16 0-.318 0-.425zm-.106 1.38c0 .16 0 .318-.053.53.053-.159.053-.318.053-.53zm-.106 1.433c0 .159-.053.37-.053.53 0-.16.053-.371.053-.53zm-.159 1.379c0 .212-.053.371-.053.584 0-.213.053-.372.053-.584zm-.212 1.38c-.053.159-.053.37-.106.53.053-.16.106-.318.106-.53zm-.265 1.432c-.054.16-.054.371-.107.53.053-.212.107-.37.107-.53z"/></g><defs><clipPath id="clip0"><path fill="#fff" d="M0 0h256v256H0z"/></clipPath></defs></svg>