<svg width="128" height="128" fill="none" xmlns="http://www.w3.org/2000/svg"><path d="M118.38 7.273H9.446c-2.612 0-4.702 2.16-4.702 4.86v79.933c0 2.7 2.09 4.86 4.702 4.86h86.207l27.56 31.056V12.269c0-2.7-2.221-4.996-4.833-4.996zM48.37 26.31c6.922 0 12.408 5.806 12.408 12.827 0 7.156-5.616 12.827-12.408 12.827-6.923 0-12.409-5.806-12.409-12.827-.13-7.021 5.486-12.827 12.409-12.827zm23.51 51.983H24.729v-7.561c0-13.502 10.58-17.823 23.642-17.823 13.061 0 23.641 4.32 23.641 17.823v7.561h-.13zm14.499-35.78c4.702 0 8.62 3.915 8.62 8.91 0 4.862-3.787 8.912-8.62 8.912-4.702 0-8.62-3.915-8.62-8.911 0-4.996 3.918-8.912 8.62-8.912zm16.196 35.78H79.979v-7.561c0-3.51-.523-6.481-1.306-9.047 2.22-.675 4.832-.945 7.575-.945 9.013 0 16.197 2.97 16.197 12.287v5.266h.13z" fill="#1ED261"/></svg>