<svg width="256" height="215" viewBox="0 0 256 215" fill="none" xmlns="http://www.w3.org/2000/svg">
<path d="M48.8975 187.606C48.8975 202.701 39.3415 215 23.8061 215C8.32654 215 0 202.645 0 187.606V182.854H48.8975V187.606Z" fill="#6394AB" fill-opacity="0.5"/>
<g style="mix-blend-mode:multiply">
<path d="M42.432 186.795V106.805C42.432 47.9198 90.2626 0.144351 149.215 0.144351C208.168 0.144351 255.999 47.9198 255.999 106.805V186.795C255.999 202.337 242.917 215 226.954 215H17.71C33.2117 214.367 42.432 201.934 42.432 186.795Z" fill="#6394AB" fill-opacity="0.2"/>
</g>
<path d="M48.8985 187.606V111.381C48.8985 54.1886 95.2813 7.78597 152.449 7.78597C209.618 7.78597 256 54.1886 256 111.381V187.606C256 202.701 243.315 215 227.835 215H24.9248C39.9573 214.385 48.8985 202.309 48.8985 187.606Z" fill="white"/>
<path d="M50.1069 111.381V187.606C50.1069 199.159 44.7255 209.309 35.1836 213.792H227.835C242.681 213.792 254.792 202.001 254.792 187.606V111.381C254.792 54.8554 208.95 8.99432 152.449 8.99432C95.9491 8.99432 50.1069 54.8554 50.1069 111.381Z" stroke="#6394AB" stroke-opacity="0.2" stroke-width="2.41671"/>
<g clip-path="url(#clip0)">
<path d="M182.815 33.1445H119.858V73.6974H182.815V33.1445ZM147.756 64.1498C146.721 65.2981 144.934 65.4129 143.766 64.3958C143.081 63.8053 141.946 61.1149 140.994 58.2932C143.966 58.8674 146.821 59.6384 147.505 60.229C148.674 61.2297 148.791 63.0014 147.756 64.1498ZM155.435 60.4587C156.086 59.8189 158.874 58.8674 161.813 58.1292C161.045 61.0164 160.076 63.756 159.442 64.3958C158.908 64.9208 158.19 65.2161 157.439 65.2161C156.687 65.2161 155.97 64.9208 155.435 64.3958C154.901 63.8709 154.601 63.1655 154.601 62.4272C154.601 61.689 154.901 60.9836 155.435 60.4587ZM151.495 57.2269C149.091 57.2269 147.138 55.3075 147.138 52.9452C147.138 51.3868 149.358 47.1871 151.495 43.7257C154.484 48.5323 155.836 51.9445 155.836 52.9452C155.853 55.3239 153.899 57.2269 151.495 57.2269ZM179.309 70.2524H153.232V67.0698C154.4 68.0869 155.869 68.6447 157.439 68.6447C159.125 68.6447 160.728 68.0049 161.913 66.8238C162.531 66.2168 163.499 64.9044 164.768 60.5243C165.419 58.2604 165.853 56.2426 165.87 56.1606L166.421 53.585L163.799 54.1264C163.716 54.1428 161.662 54.5693 159.359 55.2091C159.225 55.2419 159.091 55.2911 158.958 55.3239C159.208 54.5857 159.342 53.7819 159.342 52.9616C159.342 52.3382 159.342 50.4517 156.07 44.6608C154.534 41.9375 153.015 39.6573 152.948 39.5588L151.495 37.3606L150.026 39.5588C149.959 39.6573 148.44 41.9211 146.904 44.6608C143.632 50.4517 143.632 52.3382 143.632 52.9616C143.632 53.8147 143.782 54.6349 144.033 55.406C143.782 55.3403 143.515 55.2911 143.231 55.2255C140.894 54.717 138.824 54.4217 138.724 54.4217L136.086 54.0444L136.787 56.5707C136.804 56.6527 137.371 58.6377 138.173 60.8524C139.725 65.1505 140.777 66.3972 141.428 66.9714C142.63 68.0213 144.133 68.5299 145.619 68.5299C147.088 68.5299 148.54 68.0377 149.709 67.0534V70.2524H123.364V36.5896H179.309V70.2524Z" fill="#1ED261"/>
<path d="M182.115 75.3379H120.327L111.946 95.5651H190.78L182.115 75.3379ZM122.681 78.7829H179.794L185.504 92.1037H117.155L122.681 78.7829Z" fill="#1ED261"/>
<path d="M191.598 96.9429H111.095V100.388H191.598V96.9429Z" fill="#1ED261"/>
<path d="M171.229 64.9045L174.284 67.8902L175.62 66.5778L172.565 63.5921L174.251 61.9352L166.955 59.4253L169.559 66.5614L171.229 64.9045Z" fill="#1ED261"/>
<path d="M163.166 86.6572H139.51V89.7086H163.166V86.6572Z" fill="#1ED261"/>
<path d="M128.341 81.1289H124.585V84.5739H128.341V81.1289Z" fill="#1ED261"/>
<path d="M133.931 81.1289H130.175V84.5739H133.931V81.1289Z" fill="#1ED261"/>
<path d="M139.523 81.1289H135.767V84.5739H139.523V81.1289Z" fill="#1ED261"/>
<path d="M145.101 81.1289H141.345V84.5739H145.101V81.1289Z" fill="#1ED261"/>
<path d="M150.696 81.1289H146.939V84.5739H150.696V81.1289Z" fill="#1ED261"/>
<path d="M156.29 81.1289H152.533V84.5739H156.29V81.1289Z" fill="#1ED261"/>
<path d="M161.865 81.1289H158.108V84.5739H161.865V81.1289Z" fill="#1ED261"/>
<path d="M167.458 81.1289H163.701V84.5739H167.458V81.1289Z" fill="#1ED261"/>
<path d="M173.049 81.1289H169.293V84.5739H173.049V81.1289Z" fill="#1ED261"/>
<path d="M178.625 81.1289H174.868V84.5739H178.625V81.1289Z" fill="#1ED261"/>
<path d="M125.836 86.4771H122.08V89.922H125.836V86.4771Z" fill="#1ED261"/>
<path d="M131.431 86.4771H127.675V89.922H131.431V86.4771Z" fill="#1ED261"/>
<path d="M175.054 86.4771H171.298V89.922H175.054V86.4771Z" fill="#1ED261"/>
<path d="M169.328 86.4771H165.571V89.922H169.328V86.4771Z" fill="#1ED261"/>
<path d="M180.629 86.4771H176.873V89.922H180.629V86.4771Z" fill="#1ED261"/>
<path d="M137.106 86.4771H133.35V89.922H137.106V86.4771Z" fill="#1ED261"/>
</g>
<path d="M112.001 121.76V133.012H115.036V121.76H119.174V119.208H107.863V121.76H112.001ZM120.765 119.208V133.012H123.801V127.057H129.388V133.012H132.424V119.208H129.388V124.505H123.801V119.208H120.765ZM135.096 119.208V133.012H138.131V119.208H135.096ZM142.866 128.43H139.928C139.915 129.281 140.069 130.015 140.392 130.634C140.714 131.253 141.146 131.762 141.687 132.162C142.241 132.561 142.873 132.851 143.582 133.032C144.303 133.225 145.045 133.322 145.805 133.322C146.746 133.322 147.571 133.212 148.28 132.993C149.002 132.774 149.601 132.471 150.078 132.084C150.568 131.685 150.935 131.214 151.18 130.673C151.425 130.131 151.547 129.545 151.547 128.913C151.547 128.14 151.38 127.509 151.044 127.019C150.722 126.516 150.336 126.117 149.884 125.82C149.433 125.524 148.976 125.311 148.512 125.182C148.061 125.04 147.706 124.944 147.448 124.892C146.585 124.673 145.882 124.492 145.341 124.351C144.813 124.209 144.394 124.067 144.084 123.925C143.788 123.784 143.588 123.629 143.485 123.461C143.382 123.294 143.33 123.075 143.33 122.804C143.33 122.508 143.395 122.263 143.524 122.069C143.653 121.876 143.814 121.715 144.007 121.586C144.213 121.457 144.439 121.367 144.684 121.315C144.929 121.264 145.173 121.238 145.418 121.238C145.792 121.238 146.134 121.27 146.443 121.335C146.765 121.399 147.049 121.509 147.294 121.663C147.539 121.818 147.732 122.031 147.874 122.301C148.028 122.572 148.119 122.914 148.144 123.326H151.083C151.083 122.527 150.928 121.85 150.619 121.296C150.323 120.729 149.917 120.265 149.401 119.904C148.886 119.543 148.293 119.285 147.622 119.131C146.965 118.963 146.275 118.879 145.554 118.879C144.935 118.879 144.316 118.963 143.698 119.131C143.079 119.298 142.525 119.556 142.035 119.904C141.545 120.252 141.146 120.69 140.836 121.219C140.54 121.734 140.392 122.346 140.392 123.055C140.392 123.687 140.508 124.228 140.74 124.679C140.984 125.118 141.3 125.485 141.687 125.781C142.074 126.078 142.512 126.323 143.002 126.516C143.491 126.697 143.994 126.851 144.51 126.98C145.012 127.122 145.509 127.251 145.998 127.367C146.488 127.483 146.926 127.618 147.313 127.773C147.7 127.927 148.009 128.121 148.241 128.353C148.486 128.585 148.608 128.888 148.608 129.261C148.608 129.609 148.518 129.899 148.338 130.131C148.157 130.351 147.932 130.525 147.661 130.653C147.39 130.782 147.1 130.873 146.791 130.924C146.482 130.963 146.192 130.982 145.921 130.982C145.521 130.982 145.135 130.937 144.761 130.847C144.387 130.744 144.059 130.595 143.775 130.402C143.504 130.196 143.285 129.932 143.118 129.609C142.95 129.287 142.866 128.894 142.866 128.43ZM158.734 119.208V133.012H161.769V119.208H158.734ZM166.505 128.43H163.566C163.553 129.281 163.708 130.015 164.03 130.634C164.352 131.253 164.784 131.762 165.325 132.162C165.88 132.561 166.511 132.851 167.22 133.032C167.942 133.225 168.683 133.322 169.443 133.322C170.384 133.322 171.209 133.212 171.918 132.993C172.64 132.774 173.239 132.471 173.716 132.084C174.206 131.685 174.573 131.214 174.818 130.673C175.063 130.131 175.186 129.545 175.186 128.913C175.186 128.14 175.018 127.509 174.683 127.019C174.361 126.516 173.974 126.117 173.523 125.82C173.072 125.524 172.614 125.311 172.15 125.182C171.699 125.04 171.345 124.944 171.087 124.892C170.223 124.673 169.521 124.492 168.979 124.351C168.451 124.209 168.032 124.067 167.723 123.925C167.426 123.784 167.227 123.629 167.123 123.461C167.02 123.294 166.969 123.075 166.969 122.804C166.969 122.508 167.033 122.263 167.162 122.069C167.291 121.876 167.452 121.715 167.645 121.586C167.852 121.457 168.077 121.367 168.322 121.315C168.567 121.264 168.812 121.238 169.057 121.238C169.431 121.238 169.772 121.27 170.081 121.335C170.404 121.399 170.687 121.509 170.932 121.663C171.177 121.818 171.37 122.031 171.512 122.301C171.667 122.572 171.757 122.914 171.783 123.326H174.722C174.722 122.527 174.567 121.85 174.258 121.296C173.961 120.729 173.555 120.265 173.04 119.904C172.524 119.543 171.931 119.285 171.261 119.131C170.603 118.963 169.914 118.879 169.192 118.879C168.573 118.879 167.955 118.963 167.336 119.131C166.717 119.298 166.163 119.556 165.673 119.904C165.184 120.252 164.784 120.69 164.475 121.219C164.178 121.734 164.03 122.346 164.03 123.055C164.03 123.687 164.146 124.228 164.378 124.679C164.623 125.118 164.939 125.485 165.325 125.781C165.712 126.078 166.15 126.323 166.64 126.516C167.13 126.697 167.633 126.851 168.148 126.98C168.651 127.122 169.147 127.251 169.637 127.367C170.127 127.483 170.565 127.618 170.951 127.773C171.338 127.927 171.647 128.121 171.879 128.353C172.124 128.585 172.247 128.888 172.247 129.261C172.247 129.609 172.157 129.899 171.976 130.131C171.796 130.351 171.57 130.525 171.299 130.653C171.029 130.782 170.739 130.873 170.429 130.924C170.12 130.963 169.83 130.982 169.559 130.982C169.16 130.982 168.773 130.937 168.399 130.847C168.026 130.744 167.697 130.595 167.413 130.402C167.143 130.196 166.924 129.932 166.756 129.609C166.589 129.287 166.505 128.894 166.505 128.43ZM185.853 127.676L187.651 122.611H187.689L189.429 127.676H185.853ZM186.143 119.208L180.923 133.012H183.977L185.06 129.938H190.222L191.266 133.012H194.417L189.255 119.208H186.143ZM63.7725 155.712H59.7318C59.7141 156.882 59.9267 157.892 60.3698 158.742C60.8129 159.593 61.4066 160.293 62.1509 160.843C62.913 161.392 63.7814 161.791 64.7561 162.039C65.7486 162.305 66.7676 162.438 67.8133 162.438C69.107 162.438 70.2412 162.287 71.216 161.986C72.2084 161.684 73.0325 161.268 73.6883 160.736C74.3617 160.187 74.8668 159.54 75.2036 158.796C75.5403 158.051 75.7087 157.245 75.7087 156.376C75.7087 155.313 75.4783 154.445 75.0175 153.771C74.5744 153.08 74.0427 152.531 73.4224 152.123C72.8022 151.715 72.173 151.423 71.535 151.246C70.9147 151.051 70.4273 150.918 70.0729 150.847C68.8855 150.546 67.9196 150.298 67.1752 150.103C66.4486 149.908 65.8726 149.713 65.4473 149.518C65.0397 149.323 64.765 149.11 64.6232 148.88C64.4814 148.649 64.4105 148.348 64.4105 147.976C64.4105 147.568 64.4991 147.232 64.6764 146.966C64.8536 146.7 65.0751 146.478 65.341 146.301C65.6245 146.124 65.9347 146 66.2714 145.929C66.6081 145.858 66.9449 145.823 67.2816 145.823C67.7955 145.823 68.2652 145.867 68.6905 145.956C69.1336 146.044 69.5235 146.195 69.8602 146.408C70.1969 146.62 70.4628 146.913 70.6577 147.285C70.8704 147.657 70.9945 148.127 71.0299 148.694H75.0706C75.0706 147.595 74.858 146.664 74.4326 145.902C74.025 145.123 73.4667 144.485 72.7578 143.988C72.0489 143.492 71.2337 143.138 70.3121 142.925C69.4083 142.695 68.4601 142.579 67.4677 142.579C66.617 142.579 65.7663 142.695 64.9156 142.925C64.0649 143.155 63.3029 143.51 62.6294 143.988C61.956 144.467 61.4066 145.069 60.9812 145.796C60.5736 146.505 60.3698 147.347 60.3698 148.322C60.3698 149.19 60.5293 149.934 60.8483 150.555C61.185 151.157 61.6192 151.662 62.1509 152.07C62.6826 152.477 63.2851 152.814 63.9586 153.08C64.6321 153.328 65.3232 153.541 66.0321 153.718C66.7233 153.913 67.4056 154.09 68.0791 154.25C68.7526 154.409 69.3551 154.595 69.8868 154.808C70.4185 155.021 70.8438 155.287 71.1628 155.606C71.4995 155.925 71.6679 156.341 71.6679 156.855C71.6679 157.333 71.5439 157.732 71.2957 158.051C71.0476 158.353 70.7375 158.592 70.3653 158.769C69.9931 158.946 69.5944 159.07 69.169 159.141C68.7437 159.194 68.3449 159.221 67.9728 159.221C67.4234 159.221 66.8917 159.159 66.3777 159.035C65.8638 158.893 65.4119 158.689 65.022 158.423C64.6498 158.14 64.3485 157.777 64.1181 157.333C63.8877 156.89 63.7725 156.35 63.7725 155.712ZM94.3017 154.835V143.031H90.1281V154.835C90.1281 156.252 89.8445 157.298 89.2774 157.971C88.7103 158.627 87.6824 158.955 86.1937 158.955C85.343 158.955 84.6607 158.84 84.1467 158.609C83.6505 158.361 83.2606 158.051 82.977 157.679C82.6935 157.289 82.5074 156.846 82.4188 156.35C82.3302 155.854 82.2859 155.349 82.2859 154.835V143.031H78.1122V154.835C78.1122 157.422 78.8122 159.336 80.2123 160.577C81.6301 161.817 83.6239 162.438 86.1937 162.438C88.728 162.438 90.7129 161.817 92.1485 160.577C93.584 159.318 94.3017 157.404 94.3017 154.835ZM100.741 155.712H96.6999C96.6822 156.882 96.8948 157.892 97.3379 158.742C97.781 159.593 98.3747 160.293 99.119 160.843C99.8811 161.392 100.749 161.791 101.724 162.039C102.717 162.305 103.736 162.438 104.781 162.438C106.075 162.438 107.209 162.287 108.184 161.986C109.177 161.684 110.001 161.268 110.656 160.736C111.33 160.187 111.835 159.54 112.172 158.796C112.508 158.051 112.677 157.245 112.677 156.376C112.677 155.313 112.446 154.445 111.986 153.771C111.543 153.08 111.011 152.531 110.391 152.123C109.77 151.715 109.141 151.423 108.503 151.246C107.883 151.051 107.395 150.918 107.041 150.847C105.854 150.546 104.888 150.298 104.143 150.103C103.417 149.908 102.841 149.713 102.415 149.518C102.008 149.323 101.733 149.11 101.591 148.88C101.45 148.649 101.379 148.348 101.379 147.976C101.379 147.568 101.467 147.232 101.644 146.966C101.822 146.7 102.043 146.478 102.309 146.301C102.593 146.124 102.903 146 103.24 145.929C103.576 145.858 103.913 145.823 104.25 145.823C104.764 145.823 105.233 145.867 105.659 145.956C106.102 146.044 106.492 146.195 106.828 146.408C107.165 146.62 107.431 146.913 107.626 147.285C107.839 147.657 107.963 148.127 107.998 148.694H112.039C112.039 147.595 111.826 146.664 111.401 145.902C110.993 145.123 110.435 144.485 109.726 143.988C109.017 143.492 108.202 143.138 107.28 142.925C106.376 142.695 105.428 142.579 104.436 142.579C103.585 142.579 102.734 142.695 101.884 142.925C101.033 143.155 100.271 143.51 99.5975 143.988C98.9241 144.467 98.3747 145.069 97.9493 145.796C97.5417 146.505 97.3379 147.347 97.3379 148.322C97.3379 149.19 97.4974 149.934 97.8164 150.555C98.1531 151.157 98.5873 151.662 99.119 152.07C99.6507 152.477 100.253 152.814 100.927 153.08C101.6 153.328 102.291 153.541 103 153.718C103.691 153.913 104.374 154.09 105.047 154.25C105.721 154.409 106.323 154.595 106.855 154.808C107.387 155.021 107.812 155.287 108.131 155.606C108.468 155.925 108.636 156.341 108.636 156.855C108.636 157.333 108.512 157.732 108.264 158.051C108.016 158.353 107.706 158.592 107.333 158.769C106.961 158.946 106.562 159.07 106.137 159.141C105.712 159.194 105.313 159.221 104.941 159.221C104.391 159.221 103.86 159.159 103.346 159.035C102.832 158.893 102.38 158.689 101.99 158.423C101.618 158.14 101.317 157.777 101.086 157.333C100.856 156.89 100.741 156.35 100.741 155.712ZM119.36 146.54V162.012H123.534V146.54H129.223V143.031H113.671V146.54H119.36ZM133.756 154.675L136.229 147.71H136.282L138.674 154.675H133.756ZM134.155 143.031L126.977 162.012H131.178L132.666 157.785H139.764L141.2 162.012H145.533L138.435 143.031H134.155ZM147.17 143.031V162.012H151.343V143.031H147.17ZM155.01 143.031V162.012H158.918V149.305H158.971L166.866 162.012H171.04V143.031H167.132V155.765H167.079L159.157 143.031H155.01ZM179.499 154.675L181.971 147.71H182.025L184.417 154.675H179.499ZM179.898 143.031L172.72 162.012H176.921L178.409 157.785H185.507L186.943 162.012H191.276L184.178 143.031H179.898ZM197.086 150.714V146.275H200.994C201.366 146.275 201.721 146.31 202.057 146.381C202.412 146.434 202.722 146.54 202.988 146.7C203.254 146.859 203.466 147.081 203.626 147.365C203.785 147.648 203.865 148.011 203.865 148.454C203.865 149.252 203.626 149.828 203.147 150.182C202.669 150.537 202.057 150.714 201.313 150.714H197.086ZM192.913 143.031V162.012H202.111C202.961 162.012 203.785 161.906 204.583 161.693C205.398 161.481 206.116 161.153 206.736 160.71C207.374 160.267 207.879 159.699 208.251 159.008C208.624 158.299 208.81 157.466 208.81 156.509C208.81 155.322 208.517 154.312 207.932 153.479C207.365 152.628 206.497 152.034 205.327 151.698C206.178 151.29 206.816 150.767 207.241 150.129C207.684 149.491 207.906 148.694 207.906 147.737C207.906 146.851 207.755 146.106 207.454 145.504C207.17 144.901 206.763 144.423 206.231 144.068C205.699 143.696 205.061 143.43 204.317 143.271C203.573 143.111 202.749 143.031 201.845 143.031H192.913ZM197.086 158.769V153.559H201.632C202.536 153.559 203.263 153.771 203.812 154.197C204.361 154.604 204.636 155.295 204.636 156.27C204.636 156.766 204.547 157.174 204.37 157.493C204.211 157.812 203.989 158.069 203.706 158.264C203.422 158.441 203.094 158.574 202.722 158.663C202.35 158.734 201.96 158.769 201.552 158.769H197.086ZM211.63 143.031V162.012H225.055V158.503H215.804V143.031H211.63ZM227.388 143.031V162.012H241.797V158.503H231.562V153.851H240.76V150.608H231.562V146.54H241.584V143.031H227.388ZM111.028 191.012L116.132 172.031H112.038L108.928 185.111H108.874L105.631 172.031H101.723L98.4269 184.951H98.3737L95.3698 172.031H91.1961L96.2205 191.012H100.447L103.611 178.092H103.664L106.881 191.012H111.028ZM118.055 172.031V191.012H132.463V187.503H122.228V182.851H131.426V179.608H122.228V175.54H132.25V172.031H118.055ZM139.466 179.714V175.275H143.374C143.746 175.275 144.101 175.31 144.437 175.381C144.792 175.434 145.102 175.54 145.368 175.7C145.634 175.859 145.846 176.081 146.006 176.365C146.165 176.648 146.245 177.011 146.245 177.454C146.245 178.252 146.006 178.828 145.527 179.182C145.049 179.537 144.437 179.714 143.693 179.714H139.466ZM135.293 172.031V191.012H144.491C145.341 191.012 146.165 190.906 146.963 190.693C147.778 190.481 148.496 190.153 149.116 189.71C149.754 189.267 150.259 188.699 150.632 188.008C151.004 187.299 151.19 186.466 151.19 185.509C151.19 184.322 150.897 183.312 150.312 182.479C149.745 181.628 148.877 181.034 147.707 180.698C148.558 180.29 149.196 179.767 149.621 179.129C150.064 178.491 150.286 177.694 150.286 176.737C150.286 175.851 150.135 175.106 149.834 174.504C149.55 173.901 149.143 173.423 148.611 173.068C148.079 172.696 147.441 172.43 146.697 172.271C145.953 172.111 145.129 172.031 144.225 172.031H135.293ZM139.466 187.769V182.559H144.012C144.916 182.559 145.643 182.771 146.192 183.197C146.741 183.604 147.016 184.295 147.016 185.27C147.016 185.766 146.927 186.174 146.75 186.493C146.591 186.812 146.369 187.069 146.086 187.264C145.802 187.441 145.474 187.574 145.102 187.663C144.73 187.734 144.34 187.769 143.932 187.769H139.466ZM156.855 184.712H152.814C152.796 185.882 153.009 186.892 153.452 187.742C153.895 188.593 154.489 189.293 155.233 189.843C155.995 190.392 156.864 190.791 157.838 191.039C158.831 191.305 159.85 191.438 160.896 191.438C162.189 191.438 163.324 191.287 164.298 190.986C165.291 190.684 166.115 190.268 166.771 189.736C167.444 189.187 167.949 188.54 168.286 187.796C168.623 187.051 168.791 186.245 168.791 185.376C168.791 184.313 168.561 183.445 168.1 182.771C167.657 182.08 167.125 181.531 166.505 181.123C165.884 180.715 165.255 180.423 164.617 180.246C163.997 180.051 163.51 179.918 163.155 179.847C161.968 179.546 161.002 179.298 160.258 179.103C159.531 178.908 158.955 178.713 158.53 178.518C158.122 178.323 157.847 178.11 157.706 177.88C157.564 177.649 157.493 177.348 157.493 176.976C157.493 176.568 157.581 176.232 157.759 175.966C157.936 175.7 158.157 175.478 158.423 175.301C158.707 175.124 159.017 175 159.354 174.929C159.69 174.858 160.027 174.823 160.364 174.823C160.878 174.823 161.347 174.867 161.773 174.956C162.216 175.044 162.606 175.195 162.943 175.408C163.279 175.62 163.545 175.913 163.74 176.285C163.953 176.657 164.077 177.127 164.112 177.694H168.153C168.153 176.595 167.94 175.664 167.515 174.902C167.107 174.123 166.549 173.485 165.84 172.988C165.131 172.492 164.316 172.138 163.394 171.925C162.491 171.695 161.542 171.579 160.55 171.579C159.699 171.579 158.849 171.695 157.998 171.925C157.147 172.155 156.385 172.51 155.712 172.988C155.038 173.467 154.489 174.069 154.064 174.796C153.656 175.505 153.452 176.347 153.452 177.322C153.452 178.19 153.612 178.934 153.931 179.555C154.267 180.157 154.702 180.662 155.233 181.07C155.765 181.477 156.367 181.814 157.041 182.08C157.714 182.328 158.406 182.541 159.114 182.718C159.806 182.913 160.488 183.09 161.161 183.25C161.835 183.409 162.437 183.595 162.969 183.808C163.501 184.021 163.926 184.287 164.245 184.606C164.582 184.925 164.75 185.341 164.75 185.855C164.75 186.333 164.626 186.732 164.378 187.051C164.13 187.353 163.82 187.592 163.448 187.769C163.075 187.946 162.677 188.07 162.251 188.141C161.826 188.194 161.427 188.221 161.055 188.221C160.506 188.221 159.974 188.159 159.46 188.035C158.946 187.893 158.494 187.689 158.104 187.423C157.732 187.14 157.431 186.777 157.2 186.333C156.97 185.89 156.855 185.35 156.855 184.712ZM171.274 172.031V191.012H175.448V172.031H171.274ZM183.315 175.54V191.012H187.488V175.54H193.177V172.031H177.626V175.54H183.315ZM195.366 172.031V191.012H209.774V187.503H199.539V182.851H208.737V179.608H199.539V175.54H209.562V172.031H195.366Z" fill="#1ED261"/>
<defs>
<clipPath id="clip0">
<rect width="80.5029" height="67.2436" fill="white" transform="translate(111.095 33.144)"/>
</clipPath>
</defs>
</svg>
