<svg width="128" height="128" viewBox="0 0 128 128" fill="none" xmlns="http://www.w3.org/2000/svg">
<path d="M116.825 115.619H11.1746C8.21091 115.619 5.36861 114.442 3.27296 112.346C1.17732 110.25 0 107.408 0 104.444V23.1746C0 20.2109 1.17732 17.3686 3.27296 15.273C5.36861 13.1773 8.21091 12 11.1746 12H116.825C119.789 12 122.631 13.1773 124.727 15.273C126.823 17.3686 128 20.2109 128 23.1746V104.444C128 107.408 126.823 110.25 124.727 112.346C122.631 114.442 119.789 115.619 116.825 115.619ZM11.1746 18.0952C9.82747 18.0952 8.53552 18.6304 7.58295 19.583C6.63038 20.5355 6.09524 21.8275 6.09524 23.1746V104.444C6.09524 105.792 6.63038 107.084 7.58295 108.036C8.53552 108.989 9.82747 109.524 11.1746 109.524H116.825C118.173 109.524 119.464 108.989 120.417 108.036C121.37 107.084 121.905 105.792 121.905 104.444V23.1746C121.905 21.8275 121.37 20.5355 120.417 19.583C119.464 18.6304 118.173 18.0952 116.825 18.0952H11.1746Z" fill="#999999"/>
<path d="M3.48882 105.579C3.04942 105.568 2.61794 105.46 2.22479 105.263C1.83163 105.066 1.48635 104.786 1.21327 104.442C0.759542 103.845 0.538216 103.104 0.590551 102.356C0.642885 101.609 0.965305 100.906 1.49771 100.378L39.8977 66.8136C42.0484 64.9048 44.8563 63.9057 47.7294 64.027C50.6025 64.1483 53.3162 65.3805 55.2984 67.4638L82.3612 95.9082C82.7107 96.1805 82.9966 96.5256 83.1991 96.9197C83.4015 97.3137 83.5156 97.7471 83.5335 98.1897C83.5513 98.6324 83.4724 99.0736 83.3024 99.4826C83.1323 99.8917 82.875 100.259 82.5486 100.558C82.2222 100.858 81.8344 101.082 81.4122 101.217C80.9901 101.351 80.5437 101.392 80.1043 101.336C79.6648 101.28 79.2428 101.129 78.8676 100.893C78.4925 100.658 78.1732 100.343 77.932 99.9717L50.9098 71.5273C50.0016 70.5849 48.767 70.026 47.4596 69.9656C46.1522 69.9051 44.8712 70.3476 43.8799 71.2022L5.52057 104.807C4.96122 105.306 4.23794 105.58 3.48882 105.579V105.579Z" fill="#999999"/>
<path d="M124.137 106.677C123.736 106.679 123.339 106.601 122.97 106.447C122.6 106.294 122.264 106.068 121.983 105.783L96.0173 79.8175C95.056 78.8937 93.7746 78.3778 92.4414 78.3778C91.1082 78.3778 89.8268 78.8937 88.8655 79.8175L75.9436 92.7394C75.3659 93.2777 74.6018 93.5708 73.8122 93.5568C73.0227 93.5429 72.2694 93.2231 71.711 92.6647C71.1526 92.1063 70.8328 91.353 70.8188 90.5635C70.8049 89.7739 71.098 89.0098 71.6363 88.4321L84.5582 75.5102C86.6869 73.4924 89.5083 72.3677 92.4414 72.3677C95.3744 72.3677 98.1958 73.4924 100.325 75.5102L126.29 101.476C126.861 102.047 127.182 102.822 127.182 103.63C127.182 104.437 126.861 105.212 126.29 105.783C126.009 106.068 125.673 106.294 125.304 106.447C124.934 106.601 124.537 106.679 124.137 106.677V106.677Z" fill="#999999"/>
<path d="M80.253 33.3335C82.2622 33.3335 84.2263 33.9293 85.8969 35.0456C87.5675 36.1618 88.8696 37.7484 89.6384 39.6047C90.4073 41.4609 90.6085 43.5035 90.2165 45.4741C89.8246 47.4447 88.857 49.2548 87.4363 50.6756C86.0156 52.0963 84.2055 53.0638 82.2349 53.4558C80.2643 53.8478 78.2217 53.6466 76.3654 52.8777C74.5092 52.1088 72.9226 50.8067 71.8063 49.1361C70.6901 47.4655 70.0943 45.5015 70.0943 43.4923C70.0943 40.798 71.1646 38.2141 73.0697 36.3089C74.9748 34.4038 77.5587 33.3335 80.253 33.3335V33.3335ZM80.253 27.2383C77.0383 27.2383 73.8957 28.1916 71.2228 29.9776C68.5498 31.7636 66.4665 34.3021 65.2363 37.2721C64.0061 40.2422 63.6842 43.5103 64.3113 46.6632C64.9385 49.8162 66.4866 52.7124 68.7597 54.9855C71.0329 57.2587 73.929 58.8067 77.082 59.4339C80.235 60.0611 83.5031 59.7392 86.4731 58.509C89.4431 57.2787 91.9817 55.1954 93.7677 52.5225C95.5537 49.8495 96.507 46.707 96.507 43.4923C96.507 39.1814 94.7945 35.0472 91.7463 31.999C88.6981 28.9508 84.5638 27.2383 80.253 27.2383V27.2383Z" fill="#999999"/>
</svg>
