<svg width="256" height="215" fill="none" xmlns="http://www.w3.org/2000/svg"><path d="M48.898 187.606c0 15.095-9.556 27.394-25.092 27.394C8.326 215 0 202.645 0 187.606v-4.752h48.898v4.752z" fill="#6394AB" fill-opacity=".5"/><path d="M42.432 186.795v-79.99C42.432 47.92 90.262.145 149.215.145s106.784 47.775 106.784 106.66v79.99c0 15.542-13.082 28.205-29.045 28.205H17.71c15.502-.633 24.722-13.066 24.722-28.205z" fill="#6394AB" fill-opacity=".2"/><path d="M48.898 187.606v-76.225c0-57.192 46.383-103.595 103.551-103.595C209.618 7.786 256 54.189 256 111.381v76.225C256 202.701 243.315 215 227.835 215H24.925c15.032-.615 23.973-12.691 23.973-27.394z" fill="#fff"/><path d="M50.107 111.381v76.225c0 11.553-5.382 21.703-14.923 26.186h192.651c14.846 0 26.957-11.791 26.957-26.186v-76.225c0-56.526-45.842-102.387-102.343-102.387-56.5 0-102.342 45.861-102.342 102.387z" stroke="#6394AB" stroke-opacity=".2" stroke-width="2.417"/><g clip-path="url(#clip0)" fill="#1ED261"><path d="M182.815 33.145h-62.957v40.552h62.957V33.144zM147.756 64.15a2.862 2.862 0 01-3.99.246c-.685-.59-1.82-3.281-2.772-6.103 2.972.574 5.827 1.345 6.511 1.936a2.743 2.743 0 01.251 3.92zm7.679-3.691c.651-.64 3.439-1.592 6.378-2.33-.768 2.887-1.737 5.627-2.371 6.267a2.855 2.855 0 01-4.007 0 2.758 2.758 0 01-.834-1.969c0-.738.3-1.443.834-1.968zm-3.94-3.232c-2.404 0-4.357-1.92-4.357-4.282 0-1.558 2.22-5.758 4.357-9.22 2.989 4.807 4.341 8.22 4.341 9.22.017 2.379-1.937 4.282-4.341 4.282zm27.814 13.025h-26.077V67.07a6.356 6.356 0 004.207 1.575c1.686 0 3.289-.64 4.474-1.821.618-.607 1.586-1.92 2.855-6.3a71.922 71.922 0 001.102-4.363l.551-2.576-2.622.541c-.083.017-2.137.443-4.44 1.083-.134.033-.268.082-.401.115.25-.738.384-1.542.384-2.362 0-.624 0-2.51-3.272-8.301a87.486 87.486 0 00-3.122-5.102l-1.453-2.198-1.469 2.198a81.4 81.4 0 00-3.122 5.102c-3.272 5.79-3.272 7.677-3.272 8.3 0 .854.15 1.674.401 2.445-.251-.066-.518-.115-.802-.18-2.337-.509-4.407-.804-4.507-.804l-2.638-.378.701 2.527c.017.082.584 2.067 1.386 4.281 1.552 4.298 2.604 5.545 3.255 6.12a6.355 6.355 0 004.191 1.558 6.325 6.325 0 004.09-1.477v3.2h-26.345V36.59h55.945v33.662zM182.115 75.338h-61.788l-8.381 20.227h78.834l-8.665-20.227zm-59.434 3.445h57.113l5.71 13.32h-68.349l5.526-13.32zM191.598 96.943h-80.503v3.445h80.503v-3.445z"/><path d="M171.229 64.904l3.055 2.986 1.336-1.312-3.055-2.986 1.686-1.657-7.296-2.51 2.604 7.136 1.67-1.657zM163.166 86.657H139.51v3.052h23.656v-3.052zM128.341 81.129h-3.756v3.445h3.756v-3.445zM133.931 81.129h-3.756v3.445h3.756v-3.445zM139.523 81.129h-3.756v3.445h3.756v-3.445zM145.101 81.129h-3.756v3.445h3.756v-3.445zM150.696 81.129h-3.757v3.445h3.757v-3.445zM156.29 81.129h-3.757v3.445h3.757v-3.445zM161.865 81.129h-3.757v3.445h3.757v-3.445zM167.458 81.129h-3.757v3.445h3.757v-3.445zM173.049 81.129h-3.756v3.445h3.756v-3.445zM178.625 81.129h-3.757v3.445h3.757v-3.445zM125.836 86.477h-3.756v3.445h3.756v-3.445zM131.431 86.477h-3.756v3.445h3.756v-3.445zM175.054 86.477h-3.756v3.445h3.756v-3.445zM169.328 86.477h-3.757v3.445h3.757v-3.445zM180.629 86.477h-3.756v3.445h3.756v-3.445zM137.106 86.477h-3.756v3.445h3.756v-3.445z"/></g><path d="M112.001 121.76v11.252h3.035V121.76h4.138v-2.552h-11.311v2.552h4.138zm8.764-2.552v13.804h3.036v-5.955h5.587v5.955h3.036v-13.804h-3.036v5.297h-5.587v-5.297h-3.036zm14.331 0v13.804h3.035v-13.804h-3.035zm7.77 9.222h-2.938c-.013.851.141 1.585.464 2.204a4.39 4.39 0 001.295 1.528 5.563 5.563 0 001.895.87c.721.193 1.463.29 2.223.29.941 0 1.766-.11 2.475-.329.722-.219 1.321-.522 1.798-.909a3.86 3.86 0 001.102-1.411 4.22 4.22 0 00.367-1.76c0-.773-.167-1.404-.503-1.894a3.962 3.962 0 00-1.16-1.199 4.889 4.889 0 00-1.372-.638 11.014 11.014 0 00-1.064-.29c-.863-.219-1.566-.4-2.107-.541a8.29 8.29 0 01-1.257-.426c-.296-.141-.496-.296-.599-.464-.103-.167-.155-.386-.155-.657 0-.296.065-.541.194-.735.129-.193.29-.354.483-.483.206-.129.432-.219.677-.271.245-.051.489-.077.734-.077.374 0 .716.032 1.025.097.322.064.606.174.851.328.245.155.438.368.58.638.154.271.245.613.27 1.025h2.939c0-.799-.155-1.476-.464-2.03a3.842 3.842 0 00-1.218-1.392 5.02 5.02 0 00-1.779-.773 8.32 8.32 0 00-2.068-.252 7.05 7.05 0 00-1.856.252 5.17 5.17 0 00-1.663.773c-.49.348-.889.786-1.199 1.315-.296.515-.444 1.127-.444 1.836 0 .632.116 1.173.348 1.624.244.439.56.806.947 1.102.387.297.825.542 1.315.735.489.181.992.335 1.508.464.502.142.999.271 1.488.387.49.116.928.251 1.315.406.387.154.696.348.928.58.245.232.367.535.367.908 0 .348-.09.638-.27.87a1.93 1.93 0 01-.677.522c-.271.129-.561.22-.87.271a6.963 6.963 0 01-.87.058c-.4 0-.786-.045-1.16-.135a3.296 3.296 0 01-.986-.445 2.313 2.313 0 01-.657-.793c-.168-.322-.252-.715-.252-1.179zm15.868-9.222v13.804h3.035v-13.804h-3.035zm7.771 9.222h-2.939c-.013.851.142 1.585.464 2.204a4.39 4.39 0 001.295 1.528 5.571 5.571 0 001.895.87c.722.193 1.463.29 2.223.29.941 0 1.766-.11 2.475-.329.722-.219 1.321-.522 1.798-.909a3.86 3.86 0 001.102-1.411 4.22 4.22 0 00.368-1.76c0-.773-.168-1.404-.503-1.894a3.974 3.974 0 00-1.16-1.199 4.894 4.894 0 00-1.373-.638 11.01 11.01 0 00-1.063-.29c-.864-.219-1.566-.4-2.108-.541a8.234 8.234 0 01-1.256-.426c-.297-.141-.496-.296-.6-.464-.103-.167-.154-.386-.154-.657 0-.296.064-.541.193-.735.129-.193.29-.354.483-.483.207-.129.432-.219.677-.271.245-.051.49-.077.735-.077.374 0 .715.032 1.024.097.323.064.606.174.851.328.245.155.438.368.58.638.155.271.245.613.271 1.025h2.939c0-.799-.155-1.476-.464-2.03a3.861 3.861 0 00-1.218-1.392 5.037 5.037 0 00-1.779-.773 8.329 8.329 0 00-2.069-.252c-.619 0-1.237.084-1.856.252a5.17 5.17 0 00-1.663.773 4.185 4.185 0 00-1.198 1.315c-.297.515-.445 1.127-.445 1.836 0 .632.116 1.173.348 1.624.245.439.561.806.947 1.102.387.297.825.542 1.315.735.49.181.993.335 1.508.464.503.142.999.271 1.489.387.49.116.928.251 1.314.406.387.154.696.348.928.58.245.232.368.535.368.908 0 .348-.09.638-.271.87a1.92 1.92 0 01-.677.522c-.27.129-.56.22-.87.271a6.963 6.963 0 01-.87.058c-.399 0-.786-.045-1.16-.135a3.307 3.307 0 01-.986-.445 2.336 2.336 0 01-.657-.793c-.167-.322-.251-.715-.251-1.179zm19.348-.754l1.798-5.065h.038l1.74 5.065h-3.576zm.29-8.468l-5.22 13.804h3.054l1.083-3.074h5.162l1.044 3.074h3.151l-5.162-13.804h-3.112zm-122.37 36.504h-4.041c-.018 1.17.195 2.18.638 3.03a6.038 6.038 0 001.78 2.101c.763.549 1.631.948 2.606 1.196.993.266 2.012.399 3.057.399 1.294 0 2.428-.151 3.403-.452.992-.302 1.817-.718 2.472-1.25a5.313 5.313 0 001.516-1.94 5.805 5.805 0 00.505-2.42c0-1.063-.23-1.931-.692-2.605-.443-.691-.974-1.24-1.595-1.648-.62-.408-1.249-.7-1.887-.877a15.123 15.123 0 00-1.462-.399 392.635 392.635 0 01-2.898-.744c-.726-.195-1.302-.39-1.728-.585-.407-.195-.682-.408-.824-.638-.142-.231-.213-.532-.213-.904 0-.408.09-.744.266-1.01.178-.266.4-.488.665-.665.284-.177.594-.301.93-.372a4.884 4.884 0 011.01-.106c.514 0 .984.044 1.41.133.443.088.832.239 1.17.452.336.212.602.505.797.877.212.372.337.842.372 1.409h4.04c0-1.099-.212-2.03-.637-2.792a5.305 5.305 0 00-1.675-1.914c-.71-.496-1.524-.85-2.446-1.063a11.492 11.492 0 00-2.844-.346c-.851 0-1.702.116-2.552.346-.851.23-1.613.585-2.287 1.063a5.76 5.76 0 00-1.648 1.808c-.407.709-.611 1.551-.611 2.526 0 .868.16 1.612.478 2.233.337.602.771 1.107 1.303 1.515a7.468 7.468 0 001.808 1.01c.673.248 1.364.461 2.073.638a50.68 50.68 0 002.047.532 12.76 12.76 0 011.808.558c.531.213.957.479 1.276.798.337.319.505.735.505 1.249 0 .478-.124.877-.372 1.196a2.666 2.666 0 01-.93.718c-.373.177-.772.301-1.197.372-.425.053-.824.08-1.196.08-.55 0-1.081-.062-1.595-.186a4.522 4.522 0 01-1.356-.612 3.193 3.193 0 01-.904-1.09c-.23-.443-.345-.983-.345-1.621zm30.529-.877v-11.804h-4.174v11.804c0 1.417-.284 2.463-.85 3.136-.568.656-1.596.984-3.084.984-.851 0-1.533-.115-2.047-.346-.497-.248-.886-.558-1.17-.93a3.179 3.179 0 01-.558-1.329 8.599 8.599 0 01-.133-1.515v-11.804h-4.174v11.804c0 2.587.7 4.501 2.1 5.742 1.418 1.24 3.412 1.861 5.982 1.861 2.534 0 4.519-.621 5.954-1.861 1.436-1.259 2.154-3.173 2.154-5.742zm6.439.877H96.7c-.018 1.17.195 2.18.638 3.03a6.038 6.038 0 001.781 2.101c.762.549 1.63.948 2.605 1.196.993.266 2.012.399 3.057.399 1.294 0 2.428-.151 3.403-.452.993-.302 1.817-.718 2.472-1.25a5.311 5.311 0 001.516-1.94 5.816 5.816 0 00.505-2.42c0-1.063-.231-1.931-.691-2.605-.443-.691-.975-1.24-1.595-1.648a6.702 6.702 0 00-1.888-.877 15.13 15.13 0 00-1.462-.399 406.84 406.84 0 01-2.898-.744c-.726-.195-1.302-.39-1.728-.585-.407-.195-.682-.408-.824-.638-.141-.231-.212-.532-.212-.904 0-.408.088-.744.265-1.01.178-.266.399-.488.665-.665.284-.177.594-.301.931-.372a4.875 4.875 0 011.01-.106c.514 0 .983.044 1.409.133a3.4 3.4 0 011.169.452c.337.212.603.505.798.877.213.372.337.842.372 1.409h4.041c0-1.099-.213-2.03-.638-2.792a5.308 5.308 0 00-1.675-1.914 6.944 6.944 0 00-2.446-1.063 11.492 11.492 0 00-2.844-.346c-.851 0-1.702.116-2.552.346a7.125 7.125 0 00-2.287 1.063 5.76 5.76 0 00-1.648 1.808c-.407.709-.611 1.551-.611 2.526 0 .868.16 1.612.478 2.233.337.602.771 1.107 1.303 1.515a7.46 7.46 0 001.808 1.01c.673.248 1.364.461 2.073.638a50.81 50.81 0 002.047.532c.674.159 1.276.345 1.808.558.532.213.957.479 1.276.798.337.319.505.735.505 1.249 0 .478-.124.877-.372 1.196a2.66 2.66 0 01-.931.718 4.492 4.492 0 01-1.196.372c-.425.053-.824.08-1.196.08-.55 0-1.081-.062-1.595-.186a4.524 4.524 0 01-1.356-.612 3.202 3.202 0 01-.904-1.09c-.23-.443-.345-.983-.345-1.621zm18.619-9.172v15.472h4.174V146.54h5.689v-3.509h-15.552v3.509h5.689zm14.396 8.135l2.473-6.965h.053l2.392 6.965h-4.918zm.399-11.644l-7.178 18.981h4.201l1.488-4.227h7.098l1.436 4.227h4.333l-7.098-18.981h-4.28zm13.015 0v18.981h4.173v-18.981h-4.173zm7.84 0v18.981h3.908v-12.707h.053l7.895 12.707h4.174v-18.981h-3.908v12.734h-.053l-7.922-12.734h-4.147zm24.489 11.644l2.472-6.965h.054l2.392 6.965h-4.918zm.399-11.644l-7.178 18.981h4.201l1.488-4.227h7.098l1.436 4.227h4.333l-7.098-18.981h-4.28zm17.188 7.683v-4.439h3.908c.372 0 .727.035 1.063.106.355.053.665.159.931.319.266.159.478.381.638.665.159.283.239.646.239 1.089 0 .798-.239 1.374-.718 1.728-.478.355-1.09.532-1.834.532h-4.227zm-4.173-7.683v18.981h9.198c.85 0 1.674-.106 2.472-.319a6.464 6.464 0 002.153-.983 4.828 4.828 0 001.515-1.702c.373-.709.559-1.542.559-2.499 0-1.187-.293-2.197-.878-3.03-.567-.851-1.435-1.445-2.605-1.781.851-.408 1.489-.931 1.914-1.569.443-.638.665-1.435.665-2.392 0-.886-.151-1.631-.452-2.233a3.457 3.457 0 00-1.223-1.436c-.532-.372-1.17-.638-1.914-.797a11.78 11.78 0 00-2.472-.24h-8.932zm4.173 15.738v-5.21h4.546c.904 0 1.631.212 2.18.638.549.407.824 1.098.824 2.073 0 .496-.089.904-.266 1.223a2.006 2.006 0 01-.664.771c-.284.177-.612.31-.984.399a6.232 6.232 0 01-1.17.106h-4.466zm14.544-15.738v18.981h13.425v-3.509h-9.251v-15.472h-4.174zm15.758 0v18.981h14.409v-3.509h-10.235v-4.652h9.198v-3.243h-9.198v-4.068h10.022v-3.509h-14.196zm-116.36 47.981l5.104-18.981h-4.094l-3.11 13.08h-.054l-3.243-13.08h-3.908l-3.296 12.92h-.053l-3.004-12.92h-4.174l5.025 18.981h4.226l3.164-12.92h.053l3.217 12.92h4.147zm7.027-18.981v18.981h14.408v-3.509h-10.235v-4.652h9.198v-3.243h-9.198v-4.068h10.022v-3.509h-14.195zm21.411 7.683v-4.439h3.908c.372 0 .727.035 1.063.106.355.053.665.159.931.319.266.159.478.381.638.665.159.283.239.646.239 1.089 0 .798-.239 1.374-.718 1.728-.478.355-1.09.532-1.834.532h-4.227zm-4.173-7.683v18.981h9.198c.85 0 1.674-.106 2.472-.319a6.464 6.464 0 002.153-.983 4.84 4.84 0 001.516-1.702c.372-.709.558-1.542.558-2.499 0-1.187-.293-2.197-.878-3.03-.567-.851-1.435-1.445-2.605-1.781.851-.408 1.489-.931 1.914-1.569.443-.638.665-1.435.665-2.392 0-.886-.151-1.631-.452-2.233a3.457 3.457 0 00-1.223-1.436c-.532-.372-1.17-.638-1.914-.797a11.78 11.78 0 00-2.472-.24h-8.932zm4.173 15.738v-5.21h4.546c.904 0 1.631.212 2.18.638.549.407.824 1.098.824 2.073 0 .496-.089.904-.266 1.223a2.006 2.006 0 01-.664.771c-.284.177-.612.31-.984.399a6.232 6.232 0 01-1.17.106h-4.466zm17.389-3.057h-4.041c-.018 1.17.195 2.18.638 3.03a6.04 6.04 0 001.781 2.101 7.631 7.631 0 002.605 1.196c.993.266 2.012.399 3.058.399 1.293 0 2.428-.151 3.402-.452.993-.302 1.817-.718 2.473-1.25a5.319 5.319 0 001.515-1.94 5.8 5.8 0 00.505-2.42c0-1.063-.23-1.931-.691-2.605-.443-.691-.975-1.24-1.595-1.648a6.702 6.702 0 00-1.888-.877 15.053 15.053 0 00-1.462-.399 391.073 391.073 0 01-2.897-.744c-.727-.195-1.303-.39-1.728-.585-.408-.195-.683-.408-.824-.638-.142-.231-.213-.532-.213-.904 0-.408.088-.744.266-1.01.177-.266.398-.488.664-.665.284-.177.594-.301.931-.372a4.875 4.875 0 011.01-.106c.514 0 .983.044 1.409.133.443.088.833.239 1.17.452.336.212.602.505.797.877.213.372.337.842.372 1.409h4.041c0-1.099-.213-2.03-.638-2.792a5.308 5.308 0 00-1.675-1.914 6.944 6.944 0 00-2.446-1.063 11.487 11.487 0 00-2.844-.346c-.851 0-1.701.116-2.552.346a7.118 7.118 0 00-2.286 1.063 5.748 5.748 0 00-1.648 1.808c-.408.709-.612 1.551-.612 2.526 0 .868.16 1.612.479 2.233a4.9 4.9 0 001.302 1.515 7.466 7.466 0 001.808 1.01c.673.248 1.365.461 2.073.638.692.195 1.374.372 2.047.532.674.159 1.276.345 1.808.558.532.213.957.479 1.276.798.337.319.505.735.505 1.249 0 .478-.124.877-.372 1.196a2.666 2.666 0 01-.93.718 4.5 4.5 0 01-1.197.372c-.425.053-.824.08-1.196.08a6.78 6.78 0 01-1.595-.186 4.524 4.524 0 01-1.356-.612 3.202 3.202 0 01-.904-1.09c-.23-.443-.345-.983-.345-1.621zm14.419-12.681v18.981h4.174v-18.981h-4.174zm12.041 3.509v15.472h4.173V175.54h5.689v-3.509h-15.551v3.509h5.689zm12.051-3.509v18.981h14.408v-3.509h-10.235v-4.652h9.198v-3.243h-9.198v-4.068h10.023v-3.509h-14.196z" fill="#1ED261"/><defs><clipPath id="clip0"><path fill="#fff" transform="translate(111.095 33.144)" d="M0 0h80.503v67.244H0z"/></clipPath></defs></svg>