<svg width="128" height="128" fill="none" xmlns="http://www.w3.org/2000/svg"><path d="M116.825 115.619H11.175A11.173 11.173 0 010 104.444v-81.27A11.174 11.174 0 0111.175 12h105.65A11.175 11.175 0 01128 23.175v81.269a11.174 11.174 0 01-11.175 11.175zM11.175 18.095a5.08 5.08 0 00-5.08 5.08v81.269a5.078 5.078 0 005.08 5.08h105.65a5.078 5.078 0 005.08-5.08v-81.27a5.078 5.078 0 00-5.08-5.079H11.175z" fill="#999"/><path d="M3.489 105.579a3.016 3.016 0 01-2.276-1.137 3.09 3.09 0 01.285-4.064l38.4-33.564a11.093 11.093 0 0115.4.65l27.063 28.444a3.048 3.048 0 11-4.429 4.064L50.91 71.527a5.12 5.12 0 00-7.03-.325L5.52 104.807a3.045 3.045 0 01-2.031.772z" fill="#999"/><path d="M124.137 106.677a2.991 2.991 0 01-1.167-.23 2.993 2.993 0 01-.987-.664L96.017 79.817a5.16 5.16 0 00-7.151 0L75.944 92.74a3.047 3.047 0 01-4.308-4.307L84.558 75.51a11.459 11.459 0 0115.767 0l25.965 25.966a3.047 3.047 0 010 4.307 2.999 2.999 0 01-2.153.894zM80.253 33.334a10.158 10.158 0 110 20.316 10.158 10.158 0 010-20.316zm0-6.096a16.254 16.254 0 100 32.508 16.254 16.254 0 000-32.508z" fill="#999"/></svg>