<svg width="128" height="728" fill="none" xmlns="http://www.w3.org/2000/svg"><g clip-path="url(#clip0)" fill="#1ED261"><path d="M64.506 336.977c-6.14 10.526-11.336 21.187-11.336 24.83 0 6.276 5.06 11.336 11.336 11.336 6.275 0 11.335-5.06 11.335-11.336 0-3.643-5.195-14.304-11.335-24.83zM75.706 390.956c0 1.822.675 3.509 1.957 4.791 1.282 1.282 2.969 1.957 4.79 1.957 1.822 0 3.51-.675 4.791-1.957 1.485-1.552 3.779-7.827 5.938-15.519-7.625 2.159-13.967 4.453-15.52 5.937-1.281 1.282-1.956 2.969-1.956 4.791zM51.281 385.491c-1.619-1.349-8.097-3.306-15.856-4.926 2.631 7.49 5.33 13.63 6.882 15.115 1.35 1.214 3.104 1.754 4.858 1.687a6.87 6.87 0 004.656-2.294 6.59 6.59 0 001.687-4.926c-.067-1.754-.877-3.441-2.227-4.656z"/><path d="M64.034 300C28.677 300 0 328.677 0 364.034c0 35.357 28.677 64.033 64.034 64.033 35.357 0 64.033-28.676 64.033-64.033C128 328.677 99.323 300 64.034 300zM97.23 405.733a20.961 20.961 0 01-14.777 6.14c-3.778 0-7.624-1.012-10.93-3.103v3.778h-14.17v-3.913a20.891 20.891 0 01-9.244 2.834c-.473 0-.877.067-1.35.067-5.128 0-9.986-1.822-13.832-5.263-6.613-5.803-12.348-24.898-14.575-32.86l-2.834-10.391 10.661 1.552c3.172.472 8.03 1.214 13.225 2.361a24.735 24.735 0 01-.54-5.06c0-3.509 1.08-10.054 10.122-26.383 4.79-8.502 9.379-15.519 9.581-15.857l5.938-9.041 5.938 9.041c4.588 7.018 19.568 30.769 19.568 42.172 0 1.552-.135 3.104-.405 4.656 4.656-1.282 8.906-2.227 11.74-2.834l10.594-2.227-2.227 10.594c-1.619 8.097-6.207 27.53-12.483 33.737z"/></g><path transform="matrix(0 1 1 0 72 0)" stroke="#1ED261" stroke-width="14" d="M0-7h300"/><path transform="matrix(0 1 1 0 72 428)" stroke="#1ED261" stroke-width="14" d="M0-7h300"/><defs><clipPath id="clip0"><path fill="#fff" d="M0 300h128v128H0z"/></clipPath></defs></svg>