<svg width="256" height="256" fill="none" xmlns="http://www.w3.org/2000/svg"><path d="M180.299 15.156h-36.07v11.382h36.07V15.156zM196.556 41.642c5.844 0 10.625-4.855 10.625-10.788V10.788C207.181 4.855 202.4 0 196.556 0c-5.843 0-10.624 4.855-10.624 10.788v20.066c0 5.933 4.781 10.788 10.624 10.788zM111.717 15.156h-36.07v11.382h36.07V15.156zM127.974 41.642c5.844 0 10.625-4.855 10.625-10.788V10.788C138.599 4.855 133.818 0 127.974 0c-5.843 0-10.624 4.855-10.624 10.788v20.066c0 5.933 4.781 10.788 10.624 10.788zM59.443 41.642c5.844 0 10.625-4.855 10.625-10.788V10.788C70.068 4.855 65.287 0 59.443 0 53.6 0 48.82 4.855 48.82 10.788v20.066c-.053 5.933 4.78 10.788 10.624 10.788zM116.764 206.213h17.531v-87.815h-13.971c-.478 3.345-1.541 6.15-3.081 8.415a18.504 18.504 0 01-5.738 5.448c-2.284 1.402-4.834 2.319-7.649 2.859-2.816.539-5.79.755-8.819.701v13.431h21.727v56.961zM67.146 189.6c-2.71 2.481-6.056 3.721-9.987 3.721-2.55 0-4.782-.431-6.588-1.402-1.859-.917-3.4-2.158-4.621-3.722-1.222-1.564-2.178-3.398-2.869-5.502a27.933 27.933 0 01-1.116-6.688H25.232c-.107 5.124.637 9.601 2.178 13.539 1.54 3.937 3.665 7.282 6.48 9.979 2.816 2.697 6.216 4.8 10.2 6.203 3.985 1.402 8.447 2.157 13.281 2.157 4.197 0 8.234-.647 12.112-1.888 3.878-1.24 7.278-3.074 10.253-5.502 2.975-2.427 5.312-5.447 7.118-9.008 1.753-3.613 2.656-7.713 2.656-12.298 0-5.016-1.38-9.331-4.09-12.945-2.71-3.614-6.48-5.934-11.262-7.013v-.269c4.037-1.187 7.065-3.399 9.084-6.635 2.019-3.236 3.028-7.012 3.028-11.273 0-3.938-.85-7.39-2.603-10.411a25.711 25.711 0 00-6.747-7.659c-2.762-2.104-5.896-3.668-9.35-4.693-3.452-1.025-6.905-1.564-10.358-1.564-4.463 0-8.5.755-12.112 2.211-3.613 1.456-6.747 3.56-9.35 6.203-2.603 2.697-4.622 5.88-6.056 9.602-1.434 3.721-2.231 7.821-2.39 12.352h16.68c-.106-4.531 1.01-8.253 3.294-11.22 2.284-2.966 5.63-4.477 10.093-4.477 3.188 0 6.056 1.025 8.5 3.021 2.497 1.996 3.718 4.908 3.718 8.63 0 2.536-.584 4.531-1.806 6.042-1.168 1.51-2.71 2.643-4.568 3.452-1.86.809-3.825 1.294-6.003 1.456a37.766 37.766 0 01-6.056 0v12.568c2.125 0 4.409.054 6.746.162 2.338.108 4.516.593 6.481 1.402 1.966.81 3.613 2.05 4.888 3.83 1.275 1.78 1.912 4.315 1.912 7.66.053 4.153-1.328 7.497-4.037 9.979z" fill="#FF892F"/><path d="M212.811 15.156v11.382h31.98v41.965H11.209V26.538h31.98V15.156H0V256h256V15.156h-43.189zm-27.624 223.42c-.956 1.079-2.231 1.726-3.666 1.834-1.434.108-2.762-.378-3.824-1.349-1.222-1.132-3.347-6.095-5.419-12.082 6.109 1.294 11.156 2.859 12.484 3.937 2.125 1.996 2.337 5.394.425 7.66zm9.934-17.477c-4.94 0-8.925-4.045-8.925-9.062 0-2.912 4.091-11.489 8.925-19.85 4.834 8.415 8.925 16.938 8.925 19.85.053 4.963-3.985 9.062-8.925 9.062zm17.902 17.962c-1.009 1.025-2.337 1.565-3.771 1.565-1.435 0-2.763-.54-3.772-1.565s-1.541-2.373-1.541-3.829c0-1.457.532-2.805 1.541-3.83 1.222-1.187 6.162-3.021 12.218-4.747-1.647 6.149-3.506 11.166-4.675 12.406zm31.768 5.502h-21.94c3.931-6.473 6.8-18.825 7.916-24.435l1.753-8.468-8.341 1.78c-2.231.485-5.631 1.24-9.243 2.265.212-1.186.319-2.427.319-3.722 0-9.115-11.794-28.102-15.406-33.712l-4.675-7.228-4.675 7.228c-.159.216-3.771 5.879-7.49 12.622-7.119 13.053-7.969 18.286-7.969 21.09 0 1.403.16 2.751.425 4.046-4.09-.917-7.968-1.51-10.412-1.888l-8.393-1.241 2.231 8.307c1.434 5.34 4.887 16.991 9.031 23.302H11.209V79.884h233.582v164.679z" fill="#FF892F"/><path d="M232.519 120.664H147.31v11.381h85.209v-11.381zM232.519 96.876H147.31v11.382h85.209V96.876zM232.519 145.315H147.31v11.382h85.209v-11.382zM178.758 169.911h-30.917v11.381h30.917v-11.381z" fill="#FF892F"/></svg>