<svg width="56" height="43" fill="none" xmlns="http://www.w3.org/2000/svg"><path d="M.208 28.528v-1.909h8.589v2.464L2.7 32.866v.035h6.096v1.908H.207v-2.568l5.958-3.644v-.034H.208v-.035zm5.09-6.074v-3.748h-1.73v3.714H1.973v-3.922H.242v5.83h8.59V18.29H7.1v4.164H5.299zM1.975 36.961H.242V43h1.732v-2.082h5.09V43h1.733V36.961H7.065v2.083H1.974V36.96zM7.03 11.28c.173.313.243.66.243 1.041 0 .348-.07.66-.208.938a1.82 1.82 0 01-.589.763 3.03 3.03 0 01-.866.52c-.346.14-.692.174-1.108.174-.38 0-.762-.07-1.108-.173a3.03 3.03 0 01-.866-.521 2.282 2.282 0 01-.589-.798 2.333 2.333 0 01-.207-.972c0-.347.069-.66.173-.937.104-.278.311-.486.52-.694L1.246 9.162c-.243.174-.416.382-.589.625s-.277.486-.38.729c-.105.243-.174.52-.209.763-.034.278-.069.52-.069.764a5.6 5.6 0 00.312 1.874c.207.555.52 1.041.9 1.457.381.417.866.73 1.42.972.554.243 1.178.347 1.87.347.693 0 1.316-.104 1.87-.347s1.04-.555 1.42-.972c.381-.416.693-.902.9-1.457.208-.555.312-1.18.312-1.874 0-.59-.104-1.18-.346-1.736-.242-.555-.623-1.006-1.143-1.388l-1.177 1.562c.311.243.52.486.692.798zm-.692-9.717c.277.208.52.45.692.729.173.312.243.659.243 1.04 0 .348-.07.66-.208.938a1.82 1.82 0 01-.589.763 3.591 3.591 0 01-.866.52c-.346.14-.692.174-1.108.174-.38 0-.762-.069-1.108-.173a3.027 3.027 0 01-.866-.52c-.242-.174-.45-.452-.589-.764a2.221 2.221 0 01-.207-.972c0-.347.069-.66.173-.937.104-.278.311-.486.52-.694L1.246.208a3.385 3.385 0 00-.589.625c-.139.243-.277.486-.38.729-.105.277-.174.52-.209.798-.034.243-.069.52-.069.763a5.6 5.6 0 00.312 1.875c.207.555.52 1.04.9 1.457.381.417.866.729 1.42.972.554.243 1.178.347 1.87.347.693 0 1.316-.104 1.87-.347s1.04-.555 1.42-.972c.381-.416.693-.902.9-1.457a5.6 5.6 0 00.312-1.875c0-.59-.104-1.18-.346-1.735C8.416.833 8.035.382 7.515 0L6.338 1.562zM34.493 15.34c.797 0 1.455-.66 1.455-1.458v-.173c0-.799-.658-1.458-1.455-1.458-.796 0-1.454.66-1.454 1.458v.173c0 .798.658 1.458 1.454 1.458zm1.49 3.783c0-.799-.658-1.458-1.455-1.458-.796 0-1.454.66-1.454 1.458v2.81l2.285-1.63c.381-.278.624-.73.624-1.18zm-8.554-1.389c-.797 0-1.455.66-1.455 1.458v.174c0 .798.658 1.457 1.455 1.457.796 0 1.454-.66 1.454-1.457v-.174c0-.798-.658-1.457-1.454-1.457zm-7.1-5.518c-.797 0-1.454.66-1.454 1.458v.208c0 .798.657 1.458 1.454 1.458.796 0 1.455-.66 1.455-1.458v-.173c0-.833-.659-1.493-1.455-1.493zm28.294 3.124c.797 0 1.455-.66 1.455-1.458v-.173c0-.799-.658-1.458-1.455-1.458-.796 0-1.454.66-1.454 1.458v.173c0 .798.658 1.458 1.454 1.458zm-6.96 2.082c-.797 0-1.455.66-1.455 1.458v.208c0 .798.658 1.458 1.454 1.458.797 0 1.455-.66 1.455-1.458v-.174c0-.833-.623-1.492-1.455-1.492zM56 0v43H13.09V0H56zM23.238 13.709a2.944 2.944 0 10-5.887 0v.173c0 1.145.658 2.152 1.627 2.638a2.953 2.953 0 00-1.627 2.637h1.489c0-.52.277-1.006.727-1.249v7.496a1.49 1.49 0 01-.727-1.249h-1.49a2.944 2.944 0 105.888 0h-1.49c0 .52-.276 1.006-.726 1.25v-7.532c.415.243.727.73.727 1.25h1.49a2.953 2.953 0 00-1.629-2.638 2.953 2.953 0 001.628-2.637v-.14zm7.1 5.483a2.944 2.944 0 10-5.888 0v.174c0 1.145.658 2.151 1.628 2.637a2.953 2.953 0 00-1.628 2.638v7.635h1.524v-7.635c0-.798.658-1.458 1.455-1.458.796 0 1.454.66 1.454 1.458v7.635h1.49v-7.635a2.953 2.953 0 00-1.628-2.638 2.953 2.953 0 001.627-2.637v-.174h-.034zm2.701 4.894v-.348l3.151-2.255a2.947 2.947 0 00.693-4.096c-.277-.381-.658-.694-1.074-.937a2.953 2.953 0 001.628-2.637v-.174a2.944 2.944 0 10-5.887 0v.243c0 1.145.658 2.152 1.628 2.638a2.953 2.953 0 00-1.628 2.637v4.963a2.944 2.944 0 105.887 0h-1.489c0 .799-.658 1.458-1.455 1.458-.796 0-1.454-.66-1.454-1.492zm11.567-5.172a2.944 2.944 0 10-5.887 0v.174c0 1.11.623 2.082 1.558 2.603-1.004.486-1.697 1.492-1.697 2.672v4.963a2.944 2.944 0 105.888 0h-1.49c0 .798-.658 1.458-1.454 1.458-.797 0-1.455-.66-1.455-1.458v-4.998c0-.798.658-1.457 1.455-1.457.796 0 1.454.66 1.454 1.457h1.49c0-1.11-.624-2.082-1.559-2.602 1.004-.486 1.697-1.493 1.697-2.673v-.139zm2.701 5.172v-4.963c0-.799.658-1.458 1.455-1.458.796 0 1.455.66 1.455 1.458h1.489c0-1.18-.693-2.187-1.697-2.673a2.902 2.902 0 001.558-2.602v-.174a2.944 2.944 0 10-5.887 0v.208c0 1.18.692 2.187 1.697 2.673a2.968 2.968 0 00-1.559 2.602v4.963a2.944 2.944 0 105.888 0h-1.49c0 .799-.658 1.458-1.454 1.458-.797 0-1.455-.66-1.455-1.492z" fill="#fff"/></svg>