<svg width="172" height="58" viewBox="0 0 172 58" fill="none" xmlns="http://www.w3.org/2000/svg">
<g clip-path="url(#clip0)">
<path d="M57.0003 0.523438H0V57.6519H57.0003V0.523438Z" fill="#1ED261"/>
<path d="M19.0207 22.0859C16.8693 22.0859 15.1201 23.8391 15.1201 25.9953V26.2371C15.1201 27.7484 15.9847 29.0784 17.2513 29.7232C15.9847 30.3681 15.1201 31.698 15.1201 33.2094V43.3454H17.0905V33.2295C17.0905 32.1615 17.9551 31.295 19.0207 31.295C20.0863 31.295 20.9508 32.1615 20.9508 33.2295V43.3655H22.9212V33.2295C22.9212 31.7182 22.0567 30.3882 20.79 29.7434C22.0567 29.0985 22.9212 27.7686 22.9212 26.2572V26.0154C22.9212 23.8391 21.172 22.0859 19.0207 22.0859ZM20.9508 26.2371C20.9508 27.3051 20.0863 28.1716 19.0207 28.1716C17.9551 28.1716 17.0905 27.3051 17.0905 26.2371V25.9953C17.0905 24.9273 17.9551 24.0607 19.0207 24.0607C20.0863 24.0607 20.9508 24.9273 20.9508 25.9953V26.2371Z" fill="white"/>
<path d="M47.3901 23.9799C48.4557 23.9799 49.3203 24.8464 49.3203 25.9144H51.2906C51.2906 24.3628 50.3658 23.0127 49.0589 22.388C50.2853 21.723 51.1097 20.4333 51.1097 18.9422V18.7003C51.1097 16.5442 49.3605 14.791 47.2091 14.791C45.0578 14.791 43.3086 16.5442 43.3086 18.7003V18.9422C43.3086 20.4938 44.2335 21.8439 45.5403 22.4686C44.3139 23.1336 43.4895 24.4233 43.4895 25.9144V32.524C43.4895 34.6802 45.2388 36.4333 47.3901 36.4333C49.5414 36.4333 51.2906 34.6802 51.2906 32.524H49.3203C49.3203 33.592 48.4557 34.4585 47.3901 34.4585C46.3245 34.4585 45.4599 33.592 45.4599 32.524V25.9144C45.4599 24.8666 46.3245 23.9799 47.3901 23.9799ZM45.279 18.7003C45.279 17.6323 46.1435 16.7658 47.2091 16.7658C48.2748 16.7658 49.1393 17.6323 49.1393 18.7003V18.9422C49.1393 20.0102 48.2748 20.8767 47.2091 20.8767C46.1435 20.8767 45.279 20.0102 45.279 18.9422V18.7003Z" fill="white"/>
<path d="M9.59098 14.791C7.43965 14.791 5.69043 16.5442 5.69043 18.7003V18.9422C5.69043 20.4535 6.55498 21.7835 7.82166 22.4283C6.55498 23.0731 5.69043 24.4031 5.69043 25.9144H7.66081C7.66081 25.2092 8.04282 24.5845 8.60579 24.2419V34.1764C8.04282 33.8338 7.66081 33.2092 7.66081 32.5039H5.69043C5.69043 34.66 7.43965 36.4132 9.59098 36.4132C11.7423 36.4132 13.4915 34.66 13.4915 32.5039H11.5211C11.5211 33.2092 11.1391 33.8338 10.5762 34.1764V24.2419C11.1391 24.5845 11.5211 25.2092 11.5211 25.9144H13.4915C13.4915 24.4031 12.627 23.0731 11.3603 22.4283C12.627 21.7835 13.4915 20.4535 13.4915 18.9422V18.7003C13.4915 16.5442 11.7423 14.791 9.59098 14.791ZM11.5413 18.9623C11.5413 20.0303 10.6767 20.8968 9.61109 20.8968C8.54547 20.8968 7.68092 20.0303 7.68092 18.9623V18.7205C7.68092 17.6525 8.54547 16.786 9.61109 16.786C10.6767 16.786 11.5413 17.6525 11.5413 18.7205V18.9623Z" fill="white"/>
<path d="M41.861 25.8743V25.6325C41.861 23.4763 40.1117 21.7231 37.9604 21.7231C35.8091 21.7231 34.0599 23.4763 34.0599 25.6325V25.8743C34.0599 27.3655 34.8842 28.6551 36.1107 29.3201C34.7837 29.9448 33.8789 31.2949 33.8789 32.8466V39.4561C33.8789 41.6123 35.6281 43.3655 37.7795 43.3655C39.9308 43.3655 41.68 41.6123 41.68 39.4561H39.7096C39.7096 40.5241 38.8451 41.3906 37.7795 41.3906C36.7138 41.3906 35.8493 40.5241 35.8493 39.4561V32.8466C35.8493 31.7786 36.7138 30.9121 37.7795 30.9121C38.8451 30.9121 39.7096 31.7786 39.7096 32.8466H41.68C41.68 31.3554 40.8557 30.0657 39.6292 29.4007C40.9562 28.776 41.861 27.4259 41.861 25.8743ZM39.9107 25.8743C39.9107 26.9423 39.0461 27.8088 37.9805 27.8088C36.9149 27.8088 36.0503 26.9423 36.0503 25.8743V25.6325C36.0503 24.5645 36.9149 23.698 37.9805 23.698C39.0461 23.698 39.9107 24.5645 39.9107 25.6325V25.8743Z" fill="white"/>
<path d="M30.7018 29.1183C32.451 27.869 32.8733 25.4307 31.6267 23.6775C31.2648 23.1536 30.7822 22.7304 30.1992 22.4483C31.4658 21.8035 32.3304 20.4735 32.3304 18.9622V18.7204C32.3304 16.5642 30.5812 14.811 28.4298 14.811C26.2785 14.811 24.5293 16.5642 24.5293 18.7204V18.9622C24.5293 20.4735 25.3938 21.8035 26.6605 22.4483C25.3938 23.0931 24.5293 24.4231 24.5293 25.9345V32.544C24.5293 34.7002 26.2785 36.4533 28.4298 36.4533C30.5812 36.4533 32.3304 34.7002 32.3304 32.544H30.36C30.36 33.612 29.4955 34.4785 28.4298 34.4785C27.3642 34.4785 26.4997 33.612 26.4997 32.544V32.1007L30.7018 29.1183ZM26.5198 18.7002C26.5198 17.6322 27.3843 16.7657 28.45 16.7657C29.5156 16.7657 30.3801 17.6322 30.3801 18.7002V18.942C30.3801 20.01 29.5156 20.8765 28.45 20.8765C27.3843 20.8765 26.5198 20.01 26.5198 18.942V18.7002ZM28.45 23.9798C29.5156 23.9798 30.3801 24.8463 30.3801 25.9143C30.3801 26.5188 30.0986 27.1234 29.5558 27.4861L26.4997 29.6624V25.9143C26.5198 24.8664 27.3843 23.9798 28.45 23.9798Z" fill="white"/>
<path d="M99.6452 15.7985H99.5849L90.2557 0.523926H83.7012V22.5088H88.5266V6.87153H88.5869L98.1573 22.5088H104.471V0.523926H99.6452V15.7985Z" fill="#1ED261"/>
<path d="M115.126 13.5617H124.636V9.08816H115.126V4.99748H125.179V0.523926H110.301V22.5088H125.742V18.0353H115.126V13.5617Z" fill="#1ED261"/>
<path d="M78.1519 4.99748V0.523926H77.8704H62.9719H62.6904V4.99748H67.9984V18.0353H62.9719H62.6904V22.5088H62.9719H77.8704H78.1519V18.0353H77.8704H72.8439V4.99748H78.1519Z" fill="#1ED261"/>
<path d="M143.637 17.9748C142.873 18.398 141.988 18.5995 141.003 18.5995C140.138 18.5995 139.334 18.4181 138.57 18.0756C137.826 17.733 137.162 17.2292 136.6 16.6045C136.037 15.9799 135.594 15.2343 135.293 14.3678C134.971 13.5013 134.81 12.5542 134.81 11.5265C134.81 10.5189 134.971 9.57179 135.293 8.70529C135.614 7.83879 136.057 7.0932 136.62 6.44836C137.183 5.82368 137.866 5.3199 138.63 4.97733C139.394 4.63476 140.239 4.4534 141.164 4.4534C142.068 4.4534 142.873 4.61461 143.556 4.91688C144.24 5.21914 144.823 5.66247 145.305 6.24685L149.025 3.20403C148.542 2.5995 148.02 2.09572 147.417 1.6927C146.813 1.26952 146.19 0.947103 145.547 0.70529C144.903 0.463476 144.24 0.282117 143.556 0.16121C142.893 0.0403029 142.249 0 141.626 0C139.917 0 138.329 0.261965 136.881 0.806045C135.433 1.35013 134.187 2.11587 133.141 3.12343C132.096 4.13098 131.271 5.34005 130.688 6.77078C130.105 8.20151 129.804 9.79345 129.804 11.5466C129.804 13.2997 130.105 14.8917 130.688 16.3224C131.271 17.7532 132.096 18.9622 133.141 19.9698C134.187 20.9773 135.433 21.7431 136.881 22.2872C138.329 22.8312 139.897 23.0932 141.626 23.0932C143.134 23.0932 144.602 22.7909 146.029 22.1663C147.457 21.5416 148.623 20.5743 149.568 19.2846L145.547 16.2821C145.024 16.9874 144.401 17.5516 143.637 17.9748Z" fill="#1ED261"/>
<path d="M168.347 16.2418C167.844 16.9874 167.221 17.5718 166.457 17.9748C165.693 18.398 164.808 18.5995 163.823 18.5995C162.958 18.5995 162.154 18.4181 161.39 18.0756C160.646 17.733 159.983 17.2292 159.42 16.6045C158.857 15.9799 158.415 15.2343 158.113 14.3678C157.791 13.5013 157.63 12.5542 157.63 11.5265C157.63 10.5189 157.791 9.57179 158.113 8.70529C158.435 7.83879 158.877 7.0932 159.44 6.44836C160.003 5.82368 160.686 5.3199 161.451 4.97733C162.215 4.63476 163.059 4.4534 163.964 4.4534C164.869 4.4534 165.673 4.61461 166.356 4.91688C167.04 5.21914 167.623 5.66247 168.106 6.24685L171.845 3.20403C171.363 2.5995 170.84 2.09572 170.237 1.6927C169.634 1.26952 169.01 0.947103 168.367 0.70529C167.724 0.463476 167.06 0.282117 166.376 0.16121C165.713 0.0403029 165.07 0 164.446 0C162.737 0 161.149 0.261965 159.701 0.806045C158.254 1.35013 157.007 2.11587 155.962 3.12343C154.916 4.13098 154.092 5.34005 153.509 6.77078C152.926 8.20151 152.624 9.79345 152.624 11.5466C152.624 13.2997 152.926 14.8917 153.509 16.3224C154.092 17.7532 154.916 18.9622 155.962 19.9698C157.007 20.9773 158.254 21.7431 159.701 22.2872C161.149 22.8312 162.717 23.0932 164.446 23.0932C165.954 23.0932 167.422 22.7909 168.849 22.1663C170.277 21.5416 171.443 20.5743 172.388 19.2846L168.347 16.2418Z" fill="#1ED261"/>
<path d="M62.6904 30.8716H66.028C66.5106 30.8716 66.9529 30.9119 67.4153 31.0126C67.8577 31.1134 68.2397 31.2545 68.5815 31.4761C68.9233 31.6978 69.1846 31.9799 69.3857 32.3628C69.5868 32.7255 69.6873 33.189 69.6873 33.733C69.6873 34.3577 69.5868 34.8615 69.3656 35.2444C69.1444 35.6273 68.8629 35.9295 68.501 36.131C68.1391 36.3325 67.7169 36.4937 67.2344 36.5542C66.7518 36.6348 66.2492 36.6751 65.7264 36.6751H64.4597V40.7859H62.6904V30.8716V30.8716ZM65.5254 35.1638C65.7867 35.1638 66.028 35.1638 66.3095 35.1436C66.5709 35.1235 66.8322 35.063 67.0534 34.9824C67.2746 34.8817 67.4756 34.7406 67.6164 34.5592C67.7571 34.3779 67.8375 34.1159 67.8375 33.7733C67.8375 33.4711 67.7772 33.2293 67.6365 33.0278C67.4957 32.8464 67.3349 32.7053 67.1338 32.6046C66.9328 32.5038 66.6915 32.4434 66.4502 32.4232C66.1889 32.4031 65.9476 32.3829 65.7264 32.3829H64.4597V35.1638H65.5254V35.1638Z" fill="#1ED261"/>
<path d="M72.3012 38.005C72.3615 38.5088 72.5626 38.9118 72.8843 39.1738C73.2261 39.4559 73.6282 39.5969 74.0906 39.5969C74.5129 39.5969 74.8547 39.5163 75.1562 39.335C75.4377 39.1536 75.6991 38.9521 75.9002 38.6901L77.1065 39.5969C76.7245 40.0806 76.2822 40.4231 75.7996 40.6247C75.3171 40.8262 74.8144 40.9269 74.2716 40.9269C73.7689 40.9269 73.2864 40.8463 72.8441 40.665C72.4017 40.5037 71.9996 40.2619 71.6779 39.9597C71.3562 39.6574 71.0948 39.2745 70.8938 38.8514C70.7128 38.408 70.6123 37.9244 70.6123 37.4005C70.6123 36.8765 70.7128 36.3929 70.8938 35.9496C71.0948 35.5063 71.3361 35.1435 71.6779 34.8413C71.9996 34.539 72.3816 34.2972 72.8441 34.136C73.2864 33.9748 73.7689 33.874 74.2716 33.874C74.734 33.874 75.1562 33.9546 75.5584 34.1158C75.9404 34.277 76.2822 34.5189 76.5436 34.8211C76.825 35.1234 77.0261 35.5063 77.187 35.9697C77.3478 36.4332 77.4081 36.937 77.4081 37.5415V38.005H72.3012ZM75.7393 36.7556C75.7393 36.2519 75.5785 35.869 75.2769 35.5869C74.9753 35.3048 74.5732 35.1637 74.0303 35.1637C73.5277 35.1637 73.1255 35.3048 72.8441 35.607C72.5425 35.8891 72.3615 36.2922 72.3012 36.7758H75.7393V36.7556Z" fill="#1ED261"/>
<path d="M79.2979 37.4205C79.2979 36.8966 79.3984 36.4129 79.5793 35.9696C79.7603 35.5263 80.0217 35.1636 80.3635 34.8613C80.6852 34.559 81.0873 34.3172 81.5296 34.156C81.9719 33.9948 82.4545 33.894 82.9571 33.894C83.4598 33.894 83.9423 33.9746 84.3846 34.156C84.827 34.3172 85.2291 34.559 85.5508 34.8613C85.8725 35.1636 86.1339 35.5464 86.3349 35.9696C86.536 36.4129 86.6164 36.8966 86.6164 37.4205C86.6164 37.9444 86.5159 38.428 86.3349 38.8714C86.1339 39.3147 85.8926 39.6774 85.5508 39.9797C85.2291 40.282 84.827 40.5238 84.3846 40.685C83.9423 40.8462 83.4598 40.9469 82.9571 40.9469C82.4545 40.9469 81.9719 40.8663 81.5296 40.685C81.0873 40.5238 80.7053 40.282 80.3635 39.9797C80.0418 39.6774 79.7804 39.2945 79.5793 38.8714C79.3783 38.4482 79.2979 37.9646 79.2979 37.4205ZM80.9666 37.4205C80.9666 37.6825 81.0069 37.9444 81.1074 38.1862C81.1878 38.428 81.3285 38.6497 81.4894 38.8311C81.6704 39.0124 81.8714 39.1736 82.1127 39.2744C82.354 39.3953 82.6354 39.4356 82.937 39.4356C83.2386 39.4356 83.5201 39.3752 83.7614 39.2744C84.0026 39.1535 84.2037 39.0124 84.3846 38.8311C84.5656 38.6497 84.6862 38.428 84.7667 38.1862C84.8471 37.9444 84.9074 37.6825 84.9074 37.4205C84.9074 37.1585 84.8672 36.9167 84.7667 36.6547C84.6862 36.4129 84.5455 36.1913 84.3846 36.0099C84.2037 35.8286 84.0026 35.6673 83.7614 35.5666C83.5201 35.4457 83.2386 35.4054 82.937 35.4054C82.6354 35.4054 82.354 35.4658 82.1127 35.5666C81.8714 35.6875 81.6704 35.8286 81.4894 36.0099C81.3084 36.1913 81.1878 36.4129 81.1074 36.6547C81.0069 36.9167 80.9666 37.1585 80.9666 37.4205Z" fill="#1ED261"/>
<path d="M88.8076 34.0554H90.396V35.0629H90.4161C90.6574 34.6599 90.9791 34.3577 91.4013 34.1561C91.8034 33.9748 92.2457 33.874 92.7283 33.874C93.251 33.874 93.6934 33.9748 94.1156 34.1561C94.5177 34.3375 94.8796 34.5793 95.1611 34.9017C95.4426 35.2242 95.6638 35.5869 95.8246 36.0302C95.9653 36.4534 96.0458 36.9168 96.0458 37.4206C96.0458 37.9244 95.9653 38.3879 95.8045 38.811C95.6436 39.2342 95.4225 39.6171 95.141 39.9395C94.8595 40.2619 94.5177 40.5037 94.1156 40.6851C93.7135 40.8665 93.2711 40.9672 92.8087 40.9672C92.487 40.9672 92.2055 40.9269 91.9643 40.8665C91.723 40.806 91.5018 40.7254 91.3209 40.6045C91.1399 40.5037 90.9791 40.3828 90.8383 40.2821C90.6976 40.1612 90.597 40.0604 90.5166 39.9395H90.4764V43.9899H88.8076V34.0554ZM94.3569 37.4206C94.3569 37.1587 94.3167 36.9168 94.2161 36.6549C94.1357 36.4131 93.995 36.1914 93.8341 36.01C93.6532 35.8287 93.4521 35.6675 93.2108 35.5667C92.9696 35.4458 92.6881 35.4055 92.3865 35.4055C92.0849 35.4055 91.8034 35.466 91.5621 35.5667C91.3209 35.6876 91.1198 35.8287 90.9388 36.01C90.7579 36.1914 90.6373 36.4131 90.5568 36.6549C90.4764 36.8967 90.4161 37.1587 90.4161 37.4206C90.4161 37.6826 90.4563 37.9446 90.5568 38.1864C90.6373 38.4282 90.778 38.6498 90.9388 38.8312C91.1198 39.0126 91.3209 39.1738 91.5621 39.2745C91.8034 39.3954 92.0849 39.4357 92.3865 39.4357C92.6881 39.4357 92.9696 39.3753 93.2108 39.2745C93.4521 39.1536 93.6532 39.0126 93.8341 38.8312C94.0151 38.6498 94.1357 38.4282 94.2161 38.1864C94.3167 37.9446 94.3569 37.6826 94.3569 37.4206Z" fill="#1ED261"/>
<path d="M99.9461 30.1865H98.2773V40.786H99.9461V30.1865Z" fill="#1ED261"/>
<path d="M103.867 38.005C103.927 38.5088 104.128 38.9118 104.45 39.1738C104.792 39.4559 105.194 39.5969 105.677 39.5969C106.099 39.5969 106.441 39.5163 106.742 39.335C107.024 39.1536 107.285 38.9521 107.486 38.6901L108.692 39.5969C108.31 40.0806 107.868 40.4231 107.386 40.6247C106.903 40.8262 106.4 40.9269 105.858 40.9269C105.355 40.9269 104.872 40.8463 104.43 40.665C103.988 40.5037 103.586 40.2619 103.264 39.9597C102.942 39.6574 102.681 39.2745 102.48 38.8514C102.279 38.408 102.198 37.9244 102.198 37.4005C102.198 36.8765 102.299 36.3929 102.48 35.9496C102.661 35.5063 102.922 35.1435 103.264 34.8413C103.586 34.539 103.968 34.2972 104.43 34.136C104.872 33.9748 105.355 33.874 105.858 33.874C106.32 33.874 106.742 33.9546 107.144 34.1158C107.526 34.277 107.868 34.5189 108.13 34.8211C108.411 35.1234 108.612 35.5063 108.773 35.9697C108.934 36.4332 108.994 36.937 108.994 37.5415V38.005H103.867ZM107.305 36.7556C107.305 36.2519 107.144 35.869 106.843 35.5869C106.541 35.3048 106.139 35.1637 105.596 35.1637C105.094 35.1637 104.691 35.3048 104.41 35.607C104.108 35.8891 103.927 36.2922 103.867 36.7758H107.305V36.7556Z" fill="#1ED261"/>
<path d="M112.654 30.8716H111.227V34.5794H112.654V30.8716Z" fill="#1ED261"/>
<path d="M118.786 35.9293C118.464 35.4658 118.022 35.2442 117.479 35.2442C117.258 35.2442 117.037 35.3046 116.816 35.4054C116.595 35.5263 116.494 35.7076 116.494 35.9495C116.494 36.151 116.574 36.3122 116.755 36.3928C116.936 36.4935 117.158 36.5741 117.419 36.6346C117.68 36.695 117.982 36.7757 118.283 36.8361C118.605 36.8966 118.887 37.0175 119.148 37.1585C119.409 37.2996 119.651 37.5011 119.812 37.7631C119.992 38.025 120.073 38.3676 120.073 38.7908C120.073 39.1938 119.992 39.5364 119.812 39.7983C119.631 40.0804 119.409 40.3021 119.148 40.4633C118.867 40.6245 118.565 40.7454 118.223 40.826C117.881 40.9066 117.54 40.9469 117.198 40.9469C116.675 40.9469 116.192 40.8663 115.75 40.7253C115.308 40.5842 114.926 40.3021 114.584 39.9192L115.71 38.8714C115.931 39.1132 116.152 39.3147 116.394 39.4759C116.635 39.6371 116.936 39.6976 117.298 39.6976C117.419 39.6976 117.54 39.6774 117.68 39.6573C117.801 39.6371 117.942 39.5767 118.042 39.5162C118.163 39.4558 118.243 39.3752 118.324 39.2744C118.404 39.1736 118.424 39.0527 118.424 38.9318C118.424 38.69 118.344 38.5288 118.163 38.4079C117.982 38.287 117.761 38.2064 117.499 38.1258C117.238 38.0653 116.936 37.9847 116.615 37.9243C116.293 37.8638 116.012 37.7631 115.75 37.622C115.489 37.4809 115.247 37.2996 115.087 37.0578C114.906 36.816 114.825 36.4734 114.825 36.0502C114.825 35.6673 114.906 35.3449 115.067 35.083C115.227 34.8008 115.428 34.5792 115.67 34.3978C115.931 34.2165 116.213 34.0956 116.534 34.0149C116.856 33.9343 117.198 33.894 117.519 33.894C117.962 33.894 118.404 33.9746 118.846 34.1157C119.289 34.2769 119.631 34.5389 119.912 34.9016L118.786 35.9293Z" fill="#1ED261"/>
<path d="M128.074 30.8716H130.105L132.819 38.3678L135.594 30.8716H137.484L133.503 40.7859H131.975L128.074 30.8716Z" fill="#1ED261"/>
<path d="M137.545 37.4205C137.545 36.8966 137.645 36.4129 137.826 35.9696C138.027 35.5263 138.269 35.1636 138.611 34.8613C138.932 34.559 139.314 34.3172 139.777 34.156C140.219 33.9948 140.702 33.894 141.204 33.894C141.707 33.894 142.189 33.9746 142.632 34.156C143.074 34.3172 143.456 34.559 143.798 34.8613C144.12 35.1636 144.381 35.5464 144.582 35.9696C144.783 36.4129 144.863 36.8966 144.863 37.4205C144.863 37.9444 144.763 38.428 144.582 38.8714C144.381 39.3147 144.14 39.6774 143.798 39.9797C143.476 40.282 143.094 40.5238 142.632 40.685C142.189 40.8462 141.707 40.9469 141.204 40.9469C140.702 40.9469 140.219 40.8663 139.777 40.685C139.334 40.5238 138.952 40.282 138.611 39.9797C138.289 39.6774 138.027 39.2945 137.826 38.8714C137.645 38.4482 137.545 37.9646 137.545 37.4205ZM139.234 37.4205C139.234 37.6825 139.274 37.9444 139.375 38.1862C139.455 38.428 139.596 38.6497 139.757 38.8311C139.938 39.0124 140.139 39.1736 140.38 39.2744C140.621 39.3953 140.903 39.4356 141.204 39.4356C141.506 39.4356 141.787 39.3752 142.029 39.2744C142.27 39.1535 142.471 39.0124 142.652 38.8311C142.833 38.6497 142.953 38.428 143.034 38.1862C143.114 37.9444 143.175 37.6825 143.175 37.4205C143.175 37.1585 143.134 36.9167 143.034 36.6547C142.953 36.4129 142.813 36.1913 142.652 36.0099C142.471 35.8286 142.27 35.6673 142.029 35.5666C141.787 35.4457 141.506 35.4054 141.204 35.4054C140.903 35.4054 140.621 35.4658 140.38 35.5666C140.139 35.6875 139.938 35.8286 139.757 36.0099C139.576 36.1913 139.455 36.4129 139.375 36.6547C139.274 36.9167 139.234 37.1585 139.234 37.4205Z" fill="#1ED261"/>
<path d="M146.854 31.7781C146.854 31.5161 146.955 31.2743 147.156 31.0728C147.357 30.8713 147.619 30.7705 147.92 30.7705C148.222 30.7705 148.483 30.8713 148.704 31.0526C148.905 31.2541 149.026 31.4758 149.026 31.7781C149.026 32.0602 148.925 32.302 148.704 32.5035C148.503 32.705 148.242 32.7856 147.92 32.7856C147.619 32.7856 147.357 32.6849 147.156 32.4834C146.955 32.2818 146.854 32.04 146.854 31.7781ZM147.096 34.0551H148.765V40.7856H147.096V34.0551Z" fill="#1ED261"/>
<path d="M155.923 36.0707C155.722 35.8692 155.52 35.708 155.299 35.5871C155.078 35.4662 154.857 35.4057 154.636 35.4057C154.334 35.4057 154.053 35.4662 153.811 35.5669C153.57 35.6879 153.369 35.8289 153.188 36.0103C153.007 36.1916 152.887 36.4133 152.806 36.6551C152.726 36.8969 152.665 37.1589 152.665 37.4209C152.665 37.6828 152.706 37.9448 152.806 38.1866C152.887 38.4284 153.027 38.6501 153.188 38.8314C153.369 39.0128 153.57 39.174 153.811 39.2748C154.053 39.3957 154.334 39.436 154.636 39.436C154.897 39.436 155.138 39.3755 155.36 39.2748C155.581 39.174 155.782 39.0128 155.923 38.8113L157.049 40.0204C156.888 40.1816 156.687 40.3428 156.465 40.4637C156.244 40.5846 156.023 40.6853 155.802 40.7659C155.581 40.8466 155.36 40.8869 155.159 40.9272C154.958 40.9675 154.777 40.9675 154.636 40.9675C154.133 40.9675 153.651 40.8869 153.208 40.7055C152.766 40.5443 152.384 40.3025 152.042 40.0002C151.7 39.6979 151.459 39.3151 151.258 38.8919C151.057 38.4486 150.977 37.9649 150.977 37.441C150.977 36.9171 151.077 36.4334 151.258 35.9901C151.459 35.5468 151.7 35.1841 152.042 34.8818C152.384 34.5795 152.746 34.3377 153.208 34.1765C153.651 34.0153 154.133 33.9146 154.636 33.9146C155.058 33.9146 155.5 33.9952 155.923 34.1564C156.365 34.3176 156.727 34.5795 157.069 34.9423L155.923 36.0707Z" fill="#1ED261"/>
<path d="M160.064 38.005C160.124 38.5088 160.325 38.9118 160.647 39.1738C160.989 39.4559 161.391 39.5969 161.853 39.5969C162.276 39.5969 162.617 39.5163 162.919 39.335C163.2 39.1536 163.462 38.9521 163.663 38.6901L164.869 39.5969C164.487 40.0806 164.045 40.4231 163.562 40.6247C163.08 40.8262 162.577 40.9269 162.034 40.9269C161.532 40.9269 161.049 40.8463 160.607 40.665C160.164 40.5037 159.762 40.2619 159.441 39.9597C159.119 39.6574 158.858 39.2745 158.656 38.8514C158.476 38.408 158.375 37.9244 158.375 37.4005C158.375 36.8765 158.476 36.3929 158.656 35.9496C158.837 35.5063 159.099 35.1435 159.441 34.8413C159.762 34.539 160.144 34.2972 160.607 34.136C161.049 33.9748 161.532 33.874 162.034 33.874C162.497 33.874 162.919 33.9546 163.321 34.1158C163.703 34.277 164.045 34.5189 164.306 34.8211C164.588 35.1234 164.789 35.5063 164.95 35.9697C165.11 36.4332 165.171 36.937 165.171 37.5415V38.005H160.064ZM163.502 36.7556C163.502 36.2519 163.341 35.869 163.04 35.5869C162.738 35.3048 162.336 35.1637 161.793 35.1637C161.29 35.1637 160.888 35.3048 160.607 35.607C160.305 35.8891 160.124 36.2922 160.064 36.7758H163.502V36.7556Z" fill="#1ED261"/>
<path d="M170.981 35.9293C170.659 35.4658 170.217 35.2442 169.674 35.2442C169.453 35.2442 169.232 35.3046 169.01 35.4054C168.789 35.5263 168.689 35.7076 168.689 35.9495C168.689 36.151 168.769 36.3122 168.95 36.3928C169.131 36.4935 169.352 36.5741 169.614 36.6346C169.875 36.695 170.177 36.7757 170.498 36.8361C170.82 36.8966 171.101 37.0175 171.363 37.1585C171.624 37.2996 171.865 37.5011 172.026 37.7631C172.207 38.025 172.288 38.3676 172.288 38.7908C172.288 39.1938 172.207 39.5364 172.026 39.7983C171.845 40.0804 171.624 40.3021 171.363 40.4633C171.081 40.6245 170.78 40.7454 170.438 40.826C170.096 40.9066 169.754 40.9469 169.413 40.9469C168.89 40.9469 168.407 40.8663 167.965 40.7253C167.523 40.5842 167.141 40.3021 166.799 39.9192L167.925 38.8714C168.146 39.1132 168.367 39.3147 168.608 39.4759C168.85 39.6371 169.151 39.6976 169.513 39.6976C169.634 39.6976 169.754 39.6774 169.895 39.6573C170.016 39.6371 170.136 39.5767 170.257 39.5162C170.378 39.4558 170.458 39.3752 170.538 39.2744C170.599 39.1736 170.639 39.0527 170.639 38.9318C170.639 38.69 170.559 38.5288 170.378 38.4079C170.197 38.287 169.976 38.2064 169.714 38.1258C169.453 38.0653 169.151 37.9847 168.85 37.9243C168.528 37.8638 168.246 37.7631 167.985 37.622C167.724 37.4809 167.482 37.2996 167.322 37.0578C167.141 36.816 167.06 36.4734 167.06 36.0502C167.06 35.6673 167.141 35.3449 167.281 35.083C167.442 34.8008 167.643 34.5792 167.885 34.3978C168.146 34.2165 168.427 34.0956 168.749 34.0149C169.071 33.9343 169.413 33.894 169.734 33.894C170.177 33.894 170.619 33.9746 171.061 34.1157C171.504 34.2769 171.845 34.5389 172.127 34.9016L170.981 35.9293Z" fill="#1ED261"/>
<path d="M62.6904 47.0325C62.6904 46.7705 62.791 46.5287 62.992 46.3272C63.1931 46.1257 63.4545 46.0249 63.756 46.0249C64.0576 46.0249 64.319 46.1257 64.5402 46.307C64.7412 46.5085 64.8619 46.7302 64.8619 47.0325C64.8619 47.3347 64.7613 47.5564 64.5402 47.7579C64.3391 47.9594 64.0777 48.04 63.756 48.04C63.4545 48.04 63.1931 47.9393 62.992 47.7377C62.791 47.5362 62.6904 47.2944 62.6904 47.0325ZM62.9317 49.3095H64.6005V56.04H62.9317V49.3095Z" fill="#1ED261"/>
<path d="M66.6709 49.3095H68.2593V50.3977H68.2794C68.4402 50.0551 68.6815 49.773 69.0032 49.5312C69.3249 49.2894 69.7672 49.1685 70.3302 49.1685C70.7725 49.1685 71.1545 49.2491 71.4762 49.3901C71.7979 49.5312 72.0392 49.7327 72.2402 49.9745C72.4413 50.2163 72.582 50.4984 72.6625 50.8208C72.7429 51.1433 72.7831 51.4657 72.7831 51.8083V56.0601H71.1143V52.6546C71.1143 52.4732 71.1143 52.2516 71.0942 52.0299C71.0741 51.8082 71.0339 51.5866 70.9535 51.3851C70.873 51.1836 70.7524 51.0224 70.5915 50.8813C70.4307 50.7402 70.1894 50.6798 69.9079 50.6798C69.6265 50.6798 69.3852 50.7201 69.2042 50.8208C69.0233 50.9216 68.8624 51.0425 68.7217 51.2037C68.6011 51.3649 68.5005 51.5463 68.4402 51.7478C68.3799 51.9493 68.3598 52.171 68.3598 52.3926V56.0601H66.691V49.3095H66.6709Z" fill="#1ED261"/>
<path d="M79.1773 46.126H82.5149C82.9975 46.126 83.4398 46.1663 83.8821 46.267C84.3245 46.3678 84.7065 46.5088 85.0483 46.7305C85.3901 46.9522 85.6514 47.2343 85.8525 47.6172C86.0536 47.9799 86.1541 48.4434 86.1541 48.9874C86.1541 49.6121 86.0536 50.1159 85.8324 50.4988C85.6112 50.8816 85.3298 51.1839 84.9678 51.3854C84.6059 51.5869 84.1837 51.7481 83.7012 51.8086C83.2186 51.8892 82.716 51.9295 82.1932 51.9295H80.9265V56.0403H79.1572V46.126H79.1773ZM82.0123 50.4182C82.2737 50.4182 82.5149 50.4182 82.7964 50.398C83.0578 50.3779 83.3192 50.3174 83.5403 50.2368C83.7615 50.136 83.9626 49.995 84.1033 49.8136C84.244 49.6323 84.3245 49.3703 84.3245 49.0277C84.3245 48.7255 84.2641 48.4837 84.1234 48.2821C83.9827 48.1008 83.8218 47.9597 83.6208 47.859C83.4197 47.7582 83.1784 47.6978 82.9371 47.6776C82.6758 47.6575 82.4345 47.6373 82.2133 47.6373H80.9467V50.4182H82.0123Z" fill="#1ED261"/>
<path d="M86.9375 52.6749C86.9375 52.151 87.038 51.6673 87.219 51.224C87.42 50.7807 87.6613 50.418 88.0031 50.1157C88.3248 49.8134 88.7068 49.5716 89.1693 49.4104C89.6116 49.2492 90.0941 49.1484 90.5968 49.1484C91.0994 49.1484 91.582 49.229 92.0243 49.4104C92.4666 49.5716 92.8486 49.8134 93.1904 50.1157C93.5121 50.418 93.7735 50.8008 93.9746 51.224C94.1756 51.6673 94.256 52.151 94.256 52.6749C94.256 53.1988 94.1555 53.6824 93.9746 54.1258C93.7735 54.5691 93.5322 54.9318 93.1904 55.2341C92.8687 55.5364 92.4867 55.7782 92.0243 55.9394C91.582 56.1006 91.0994 56.2013 90.5968 56.2013C90.0941 56.2013 89.6116 56.1207 89.1693 55.9394C88.7269 55.7782 88.3248 55.5364 88.0031 55.2341C87.6814 54.9318 87.42 54.5489 87.219 54.1258C87.038 53.7026 86.9375 53.219 86.9375 52.6749ZM88.6264 52.6749C88.6264 52.9369 88.6666 53.1988 88.7671 53.4406C88.8476 53.6824 88.9883 53.9041 89.1491 54.0855C89.3301 54.2668 89.5312 54.428 89.7724 54.5288C90.0137 54.6497 90.2952 54.69 90.5968 54.69C90.8984 54.69 91.1798 54.6296 91.4211 54.5288C91.6624 54.4079 91.8634 54.2668 92.0444 54.0855C92.2253 53.9041 92.346 53.6824 92.4264 53.4406C92.5068 53.1988 92.5672 52.9369 92.5672 52.6749C92.5672 52.4129 92.5269 52.1711 92.4264 51.9091C92.346 51.6673 92.2052 51.4457 92.0444 51.2643C91.8634 51.0829 91.6624 50.9217 91.4211 50.821C91.1798 50.7001 90.8984 50.6598 90.5968 50.6598C90.2952 50.6598 90.0137 50.7202 89.7724 50.821C89.5312 50.9419 89.3301 51.0829 89.1491 51.2643C88.9682 51.4457 88.8476 51.6673 88.7671 51.9091C88.6666 52.1711 88.6264 52.4129 88.6264 52.6749Z" fill="#1ED261"/>
<path d="M97.2117 45.4404H95.543V56.0399H97.2117V45.4404Z" fill="#1ED261"/>
<path d="M99.0625 47.0325C99.0625 46.7705 99.163 46.5287 99.3641 46.3272C99.5651 46.1257 99.8265 46.0249 100.128 46.0249C100.43 46.0249 100.691 46.1257 100.912 46.307C101.113 46.5085 101.234 46.7302 101.234 47.0325C101.234 47.3347 101.133 47.5564 100.912 47.7579C100.711 47.9594 100.45 48.04 100.128 48.04C99.8265 48.04 99.5651 47.9393 99.3641 47.7377C99.163 47.5362 99.0625 47.2944 99.0625 47.0325ZM99.3038 49.3095H100.973V56.04H99.3038V49.3095Z" fill="#1ED261"/>
<path d="M107.587 51.3251C107.386 51.1236 107.185 50.9624 106.964 50.8415C106.743 50.7206 106.521 50.6601 106.3 50.6601C105.999 50.6601 105.717 50.7206 105.476 50.8213C105.235 50.9422 105.034 51.0833 104.853 51.2647C104.672 51.446 104.551 51.6677 104.471 51.9095C104.39 52.1513 104.33 52.4133 104.33 52.6752C104.33 52.9372 104.37 53.1992 104.471 53.441C104.551 53.6828 104.692 53.9045 104.853 54.0858C105.034 54.2672 105.235 54.4284 105.476 54.5291C105.717 54.65 105.999 54.6903 106.3 54.6903C106.562 54.6903 106.803 54.6299 107.024 54.5291C107.245 54.4284 107.446 54.2672 107.607 54.0657L108.733 55.2747C108.572 55.4359 108.371 55.5971 108.15 55.7181C107.929 55.839 107.708 55.9397 107.487 56.0203C107.265 56.1009 107.044 56.1412 106.843 56.1815C106.642 56.2218 106.461 56.2218 106.32 56.2218C105.818 56.2218 105.335 56.1412 104.893 55.9599C104.451 55.7987 104.069 55.5568 103.727 55.2546C103.405 54.9523 103.144 54.5694 102.943 54.1463C102.742 53.7029 102.661 53.2193 102.661 52.6954C102.661 52.1715 102.762 51.6878 102.943 51.2445C103.124 50.8012 103.385 50.4385 103.727 50.1362C104.048 49.8339 104.451 49.5921 104.893 49.4309C105.335 49.2697 105.818 49.1689 106.32 49.1689C106.743 49.1689 107.185 49.2495 107.607 49.4108C108.05 49.572 108.411 49.8339 108.753 50.1967L107.587 51.3251Z" fill="#1ED261"/>
<path d="M109.315 49.3096H111.165L113.035 53.9846H113.055L114.724 49.3096H116.473L113.296 57.4708C113.176 57.7932 113.035 58.0753 112.894 58.297C112.754 58.5388 112.573 58.7403 112.392 58.9015C112.191 59.0627 111.969 59.1836 111.708 59.2642C111.447 59.3448 111.125 59.3851 110.743 59.3851C110.301 59.3851 109.878 59.3247 109.456 59.2239L109.657 57.7126C109.778 57.7529 109.919 57.7932 110.079 57.8335C110.22 57.8738 110.361 57.8738 110.522 57.8738C110.723 57.8738 110.904 57.8536 111.045 57.8133C111.185 57.773 111.306 57.7126 111.406 57.632C111.507 57.5514 111.587 57.4506 111.648 57.3297C111.708 57.2088 111.788 57.0476 111.849 56.8662L112.17 56.0602L109.315 49.3096Z" fill="#1ED261"/>
<path d="M129.221 48.4433C128.859 48.0605 128.497 47.7985 128.155 47.6574C127.813 47.5365 127.471 47.4559 127.129 47.4559C126.627 47.4559 126.144 47.5567 125.742 47.7381C125.32 47.9194 124.978 48.1814 124.677 48.5038C124.375 48.8262 124.154 49.2091 123.993 49.6323C123.832 50.0554 123.752 50.5189 123.752 51.0227C123.752 51.5466 123.832 52.0504 123.993 52.4937C124.154 52.937 124.395 53.3199 124.677 53.6625C124.958 54.0051 125.34 54.2469 125.742 54.4282C126.164 54.6096 126.627 54.7103 127.129 54.7103C127.532 54.7103 127.914 54.6096 128.296 54.4282C128.678 54.2469 129.019 53.9245 129.341 53.5013L130.789 54.529C130.346 55.1537 129.804 55.597 129.16 55.8791C128.517 56.1612 127.833 56.3023 127.109 56.3023C126.345 56.3023 125.642 56.1814 124.998 55.9396C124.355 55.6978 123.812 55.335 123.35 54.8917C122.887 54.4484 122.525 53.9043 122.264 53.2595C122.002 52.6146 121.882 51.9093 121.882 51.1436C121.882 50.3577 122.002 49.6323 122.264 48.9874C122.525 48.3426 122.887 47.7784 123.35 47.335C123.812 46.8716 124.355 46.529 124.998 46.267C125.642 46.0252 126.345 45.9043 127.109 45.9043C127.773 45.9043 128.396 46.0252 128.979 46.267C129.562 46.5088 130.085 46.9119 130.588 47.4761L129.221 48.4433Z" fill="#1ED261"/>
<path d="M133.624 50.2565H133.644C133.765 49.9744 134.006 49.7125 134.328 49.4908C134.65 49.2691 135.092 49.1482 135.615 49.1482C136.057 49.1482 136.439 49.2288 136.761 49.3699C137.082 49.511 137.324 49.7125 137.525 49.9543C137.726 50.1961 137.867 50.4782 137.947 50.8006C138.027 51.123 138.068 51.4455 138.068 51.788V56.0399H136.399V52.6344C136.399 52.453 136.399 52.2314 136.379 52.0097C136.359 51.788 136.318 51.5664 136.238 51.3649C136.158 51.1633 136.037 51.0021 135.876 50.8611C135.715 50.72 135.474 50.6596 135.193 50.6596C134.911 50.6596 134.67 50.6999 134.489 50.8006C134.308 50.9014 134.147 51.0223 134.006 51.1835C133.886 51.3447 133.785 51.5261 133.725 51.7276C133.664 51.9291 133.644 52.1507 133.644 52.3724V56.0399H131.976V45.4404H133.644V50.2565H133.624Z" fill="#1ED261"/>
<path d="M139.736 52.6749C139.736 52.151 139.837 51.6673 140.018 51.224C140.199 50.7807 140.46 50.418 140.802 50.1157C141.124 49.8134 141.506 49.5716 141.968 49.4104C142.41 49.2492 142.893 49.1484 143.396 49.1484C143.898 49.1484 144.381 49.229 144.823 49.4104C145.265 49.5716 145.647 49.8134 145.989 50.1157C146.311 50.418 146.572 50.8008 146.773 51.224C146.954 51.6673 147.055 52.151 147.055 52.6749C147.055 53.1988 146.954 53.6824 146.773 54.1258C146.572 54.5691 146.331 54.9318 145.989 55.2341C145.668 55.5364 145.286 55.7782 144.823 55.9394C144.381 56.1006 143.898 56.2013 143.396 56.2013C142.893 56.2013 142.41 56.1207 141.968 55.9394C141.526 55.7782 141.124 55.5364 140.802 55.2341C140.48 54.9318 140.219 54.5489 140.018 54.1258C139.817 53.7026 139.736 53.219 139.736 52.6749ZM141.405 52.6749C141.405 52.9369 141.445 53.1988 141.546 53.4406C141.626 53.6824 141.767 53.9041 141.928 54.0855C142.109 54.2668 142.31 54.428 142.551 54.5288C142.792 54.6497 143.074 54.69 143.375 54.69C143.677 54.69 143.959 54.6296 144.2 54.5288C144.441 54.4079 144.642 54.2668 144.823 54.0855C145.004 53.9041 145.125 53.6824 145.205 53.4406C145.286 53.1988 145.346 52.9369 145.346 52.6749C145.346 52.4129 145.306 52.1711 145.205 51.9091C145.125 51.6673 144.984 51.4457 144.823 51.2643C144.642 51.0829 144.441 50.9217 144.2 50.821C143.959 50.7001 143.677 50.6598 143.375 50.6598C143.074 50.6598 142.792 50.7202 142.551 50.821C142.31 50.9419 142.109 51.0829 141.928 51.2643C141.747 51.4457 141.626 51.6673 141.546 51.9091C141.445 52.1711 141.405 52.4129 141.405 52.6749Z" fill="#1ED261"/>
<path d="M148.482 47.0325C148.482 46.7705 148.583 46.5287 148.784 46.3272C148.985 46.1257 149.246 46.0249 149.548 46.0249C149.85 46.0249 150.111 46.1257 150.332 46.307C150.533 46.5085 150.654 46.7302 150.654 47.0325C150.654 47.3347 150.553 47.5564 150.332 47.7579C150.131 47.9594 149.87 48.04 149.548 48.04C149.246 48.04 148.985 47.9393 148.784 47.7377C148.583 47.5362 148.482 47.2944 148.482 47.0325ZM148.724 49.3095H150.392V56.04H148.724V49.3095Z" fill="#1ED261"/>
<path d="M157.007 51.3251C156.806 51.1236 156.605 50.9624 156.384 50.8415C156.163 50.7206 155.941 50.6601 155.72 50.6601C155.419 50.6601 155.137 50.7206 154.896 50.8213C154.655 50.9422 154.454 51.0833 154.273 51.2647C154.092 51.446 153.971 51.6677 153.891 51.9095C153.81 52.1513 153.75 52.4133 153.75 52.6752C153.75 52.9372 153.79 53.1992 153.891 53.441C153.971 53.6828 154.112 53.9045 154.273 54.0858C154.454 54.2672 154.655 54.4284 154.896 54.5291C155.137 54.65 155.419 54.6903 155.72 54.6903C155.982 54.6903 156.223 54.6299 156.444 54.5291C156.665 54.4284 156.866 54.2672 157.027 54.0657L158.153 55.2747C157.992 55.4359 157.791 55.5971 157.57 55.7181C157.349 55.839 157.128 55.9397 156.906 56.0203C156.685 56.1009 156.464 56.1412 156.263 56.1815C156.062 56.2218 155.881 56.2218 155.74 56.2218C155.238 56.2218 154.755 56.1412 154.313 55.9599C153.87 55.7987 153.468 55.5568 153.147 55.2546C152.825 54.9523 152.564 54.5694 152.363 54.1463C152.182 53.7029 152.081 53.2193 152.081 52.6954C152.081 52.1715 152.182 51.6878 152.363 51.2445C152.564 50.8012 152.805 50.4385 153.147 50.1362C153.468 49.8339 153.85 49.5921 154.313 49.4309C154.755 49.2697 155.238 49.1689 155.74 49.1689C156.163 49.1689 156.605 49.2495 157.027 49.4108C157.469 49.572 157.831 49.8339 158.173 50.1967L157.007 51.3251Z" fill="#1ED261"/>
<path d="M160.606 53.2594C160.667 53.7632 160.868 54.146 161.189 54.4282C161.531 54.7103 161.933 54.8513 162.416 54.8513C162.838 54.8513 163.18 54.7707 163.481 54.5894C163.763 54.408 164.024 54.2065 164.225 53.9445L165.432 54.8513C165.05 55.335 164.607 55.6775 164.125 55.879C163.642 56.0806 163.14 56.1813 162.597 56.1813C162.094 56.1813 161.612 56.1007 161.169 55.9193C160.727 55.7581 160.325 55.5163 160.003 55.2141C159.681 54.9118 159.42 54.5289 159.219 54.1057C159.018 53.6624 158.938 53.1788 158.938 52.6549C158.938 52.1309 159.038 51.6473 159.219 51.204C159.4 50.7607 159.661 50.3979 160.003 50.0957C160.325 49.7934 160.707 49.5516 161.169 49.3904C161.612 49.2292 162.094 49.1284 162.597 49.1284C163.059 49.1284 163.481 49.209 163.884 49.3702C164.266 49.5314 164.607 49.7733 164.869 50.0755C165.15 50.3778 165.351 50.7607 165.512 51.2241C165.673 51.6876 165.733 52.1914 165.733 52.7959V53.2594H160.606V53.2594ZM164.044 52.01C164.044 51.5063 163.884 51.1234 163.582 50.8413C163.28 50.5591 162.878 50.4181 162.335 50.4181C161.833 50.4181 161.431 50.5591 161.129 50.8614C160.827 51.1435 160.647 51.5466 160.586 52.0302H164.044V52.01Z" fill="#1ED261"/>
<path d="M170.96 51.1837C170.639 50.7202 170.196 50.4986 169.653 50.4986C169.432 50.4986 169.211 50.559 168.99 50.6598C168.769 50.7807 168.668 50.962 168.668 51.2039C168.668 51.4054 168.749 51.5666 168.93 51.6472C169.111 51.7479 169.332 51.8285 169.593 51.889C169.855 51.9494 170.156 52.0301 170.478 52.0905C170.799 52.151 171.081 52.2719 171.342 52.4129C171.604 52.554 171.845 52.7555 172.006 53.0175C172.187 53.2794 172.267 53.622 172.267 54.0452C172.267 54.4482 172.187 54.7908 172.006 55.0527C171.825 55.3348 171.604 55.5565 171.342 55.7177C171.061 55.8789 170.759 55.9998 170.417 56.0804C170.076 56.161 169.734 56.2013 169.392 56.2013C168.869 56.2013 168.387 56.1207 167.944 55.9797C167.502 55.8386 167.12 55.5565 166.778 55.1736L167.904 54.1258C168.125 54.3676 168.347 54.5691 168.588 54.7303C168.829 54.8915 169.131 54.952 169.493 54.952C169.613 54.952 169.734 54.9318 169.875 54.9117C169.995 54.8915 170.136 54.8311 170.237 54.7706C170.357 54.7102 170.438 54.6296 170.518 54.5288C170.578 54.428 170.619 54.3071 170.619 54.1862C170.619 53.9444 170.538 53.7832 170.357 53.6623C170.176 53.5414 169.955 53.4608 169.694 53.3802C169.432 53.3197 169.131 53.2391 168.829 53.1787C168.507 53.1182 168.226 53.0175 167.965 52.8764C167.703 52.7353 167.462 52.554 167.301 52.3122C167.12 52.0704 167.04 51.7278 167.04 51.3046C167.04 50.9217 167.12 50.5993 167.261 50.3374C167.422 50.0552 167.623 49.8336 167.864 49.6522C168.125 49.4709 168.407 49.35 168.729 49.2693C169.05 49.1887 169.392 49.1484 169.714 49.1484C170.156 49.1484 170.598 49.229 171.041 49.3701C171.483 49.5313 171.825 49.7933 172.106 50.156L170.96 51.1837Z" fill="#1ED261"/>
</g>
<defs>
<clipPath id="clip0">
<rect width="172" height="58" fill="white"/>
</clipPath>
</defs>
</svg>
