<svg width="172" height="58" fill="none" xmlns="http://www.w3.org/2000/svg"><g clip-path="url(#clip0)"><path d="M57 .523H0v57.129h57V.523z" fill="#1ED261"/><path d="M19.02 22.086a3.909 3.909 0 00-3.9 3.91v.241c0 1.511.865 2.841 2.131 3.486a3.918 3.918 0 00-2.13 3.486v10.136h1.97V33.23c0-1.069.864-1.935 1.93-1.935 1.065 0 1.93.866 1.93 1.934v10.136h1.97V33.23a3.918 3.918 0 00-2.131-3.486 3.918 3.918 0 002.131-3.486v-.242c0-2.176-1.749-3.93-3.9-3.93zm1.93 4.151a1.933 1.933 0 01-1.93 1.935 1.933 1.933 0 01-1.93-1.935v-.242c0-1.068.865-1.934 1.93-1.934 1.066 0 1.93.866 1.93 1.934v.242zM47.39 23.98c1.066 0 1.93.866 1.93 1.934h1.97a3.928 3.928 0 00-2.231-3.526 3.906 3.906 0 002.05-3.446V18.7c0-2.156-1.748-3.909-3.9-3.909a3.909 3.909 0 00-3.9 3.91v.241c0 1.552.925 2.902 2.231 3.527a3.906 3.906 0 00-2.05 3.445v6.61c0 2.156 1.749 3.91 3.9 3.91s3.9-1.754 3.9-3.91h-1.97a1.933 1.933 0 01-1.93 1.934 1.933 1.933 0 01-1.93-1.934v-6.61c0-1.047.864-1.934 1.93-1.934zM45.28 18.7c0-1.068.864-1.934 1.93-1.934 1.066 0 1.93.866 1.93 1.934v.242a1.933 1.933 0 01-1.93 1.935 1.933 1.933 0 01-1.93-1.935V18.7zM9.591 14.791a3.909 3.909 0 00-3.9 3.91v.241c0 1.511.864 2.841 2.13 3.486a3.918 3.918 0 00-2.13 3.486h1.97c0-.705.382-1.33.945-1.672v9.934a1.965 1.965 0 01-.945-1.672H5.69c0 2.156 1.749 3.91 3.9 3.91s3.9-1.754 3.9-3.91h-1.97c0 .705-.382 1.33-.945 1.672v-9.934c.563.342.945.967.945 1.672h1.97a3.918 3.918 0 00-2.13-3.486 3.918 3.918 0 002.13-3.486V18.7c0-2.156-1.749-3.909-3.9-3.909zm1.95 4.171a1.933 1.933 0 01-1.93 1.935 1.933 1.933 0 01-1.93-1.935v-.241c0-1.069.864-1.935 1.93-1.935 1.066 0 1.93.866 1.93 1.934v.242zM41.861 25.874v-.241c0-2.157-1.75-3.91-3.9-3.91a3.909 3.909 0 00-3.901 3.91v.241c0 1.492.824 2.781 2.05 3.446a3.893 3.893 0 00-2.231 3.527v6.61c0 2.155 1.75 3.908 3.9 3.908 2.152 0 3.901-1.753 3.901-3.909h-1.97a1.933 1.933 0 01-1.93 1.935 1.933 1.933 0 01-1.93-1.935v-6.61c0-1.067.864-1.934 1.93-1.934 1.065 0 1.93.867 1.93 1.935h1.97c0-1.492-.824-2.781-2.05-3.446a3.893 3.893 0 002.231-3.527zm-1.95 0a1.933 1.933 0 01-1.93 1.935 1.933 1.933 0 01-1.93-1.935v-.241c0-1.069.864-1.935 1.93-1.935 1.065 0 1.93.866 1.93 1.934v.242zM30.702 29.118c1.749-1.249 2.171-3.687.925-5.44a3.673 3.673 0 00-1.428-1.23 3.918 3.918 0 002.131-3.486v-.242c0-2.156-1.749-3.909-3.9-3.909a3.909 3.909 0 00-3.9 3.91v.241c0 1.512.864 2.841 2.13 3.486a3.918 3.918 0 00-2.13 3.486v6.61c0 2.156 1.748 3.91 3.9 3.91 2.151 0 3.9-1.754 3.9-3.91h-1.97a1.933 1.933 0 01-1.93 1.934 1.933 1.933 0 01-1.93-1.934v-.443l4.202-2.983zM26.52 18.7c0-1.068.864-1.934 1.93-1.934 1.066 0 1.93.866 1.93 1.934v.242a1.933 1.933 0 01-1.93 1.934 1.933 1.933 0 01-1.93-1.934V18.7zm1.93 5.28c1.066 0 1.93.866 1.93 1.934 0 .605-.281 1.21-.824 1.572L26.5 29.662v-3.748c.02-1.048.884-1.934 1.95-1.934z" fill="#fff"/><path d="M99.645 15.799h-.06L90.255.524h-6.554v21.985h4.826V6.872h.06l9.57 15.637h6.314V.524h-4.826v15.274zM115.126 13.562h9.51V9.088h-9.51v-4.09h10.053V.523h-14.878v21.985h15.441v-4.474h-10.616v-4.473zM78.152 4.997V.524H62.69v4.473h5.308v13.038H62.69v4.474h15.462v-4.474h-5.308V4.997h5.308zM143.637 17.975c-.764.423-1.649.624-2.634.624a5.865 5.865 0 01-2.433-.523 6.079 6.079 0 01-1.97-1.471 6.486 6.486 0 01-1.307-2.237c-.322-.867-.483-1.814-.483-2.841 0-1.008.161-1.955.483-2.822a7.176 7.176 0 011.327-2.257 6.036 6.036 0 012.01-1.47 6.129 6.129 0 012.534-.525c.904 0 1.709.162 2.392.464a4.705 4.705 0 011.749 1.33l3.72-3.043c-.483-.605-1.005-1.108-1.608-1.511a8.377 8.377 0 00-1.87-.988 11.19 11.19 0 00-1.991-.544 10.69 10.69 0 00-1.93-.161c-1.709 0-3.297.262-4.745.806s-2.694 1.31-3.74 2.317a10.509 10.509 0 00-2.453 3.648c-.583 1.43-.884 3.022-.884 4.776 0 1.753.301 3.345.884 4.775a10.509 10.509 0 002.453 3.648c1.046 1.007 2.292 1.773 3.74 2.317 1.448.544 3.016.806 4.745.806 1.508 0 2.976-.302 4.403-.927 1.428-.624 2.594-1.592 3.539-2.881l-4.021-3.003a5.922 5.922 0 01-1.91 1.693zM168.347 16.242c-.503.745-1.126 1.33-1.89 1.733-.764.423-1.649.624-2.634.624a5.865 5.865 0 01-2.433-.523 6.09 6.09 0 01-1.97-1.471 6.501 6.501 0 01-1.307-2.237c-.322-.867-.483-1.814-.483-2.841 0-1.008.161-1.955.483-2.822a7.195 7.195 0 011.327-2.257 6.03 6.03 0 012.011-1.47 6.098 6.098 0 012.513-.525c.905 0 1.709.162 2.392.464a4.716 4.716 0 011.75 1.33l3.739-3.043c-.482-.605-1.005-1.108-1.608-1.511a8.356 8.356 0 00-1.87-.988 11.167 11.167 0 00-1.991-.544 10.682 10.682 0 00-1.93-.161c-1.709 0-3.297.262-4.745.806-1.447.544-2.694 1.31-3.739 2.317a10.495 10.495 0 00-2.453 3.648c-.583 1.43-.885 3.022-.885 4.776 0 1.753.302 3.345.885 4.775a10.495 10.495 0 002.453 3.648c1.045 1.007 2.292 1.773 3.739 2.317 1.448.544 3.016.806 4.745.806 1.508 0 2.976-.302 4.403-.927 1.428-.624 2.594-1.592 3.539-2.881l-4.041-3.043zM62.69 30.872h3.338c.483 0 .925.04 1.387.14.443.101.825.242 1.166.464.342.222.604.504.805.887.2.362.301.826.301 1.37 0 .625-.1 1.129-.321 1.511-.222.383-.503.685-.865.887a3.484 3.484 0 01-1.267.423c-.482.08-.985.121-1.508.121H64.46v4.11h-1.77v-9.913zm2.835 4.292c.262 0 .503 0 .784-.02.262-.02.523-.081.744-.162.222-.1.423-.241.563-.423.141-.181.222-.443.222-.786 0-.302-.06-.544-.201-.745a1.45 1.45 0 00-.503-.423 1.905 1.905 0 00-.684-.182c-.261-.02-.502-.04-.724-.04H64.46v2.78h1.065zM72.301 38.005c.06.504.262.907.583 1.169.342.282.744.423 1.207.423.422 0 .764-.08 1.065-.262.282-.181.543-.383.744-.645l1.206.907c-.381.484-.824.826-1.306 1.028a3.901 3.901 0 01-1.528.302c-.503 0-.986-.08-1.428-.262a3.416 3.416 0 01-1.166-.705 3.681 3.681 0 01-.784-1.109 3.807 3.807 0 01-.282-1.45c0-.525.1-1.008.282-1.451.2-.444.442-.806.784-1.109a3.232 3.232 0 011.166-.705 4.174 4.174 0 011.428-.262c.462 0 .884.08 1.286.242.382.161.724.403.986.705.281.302.482.685.643 1.149.16.463.221.967.221 1.572v.463h-5.107zm3.438-1.25c0-.503-.16-.886-.462-1.168-.302-.282-.704-.423-1.247-.423-.502 0-.904.14-1.186.443-.301.282-.482.685-.543 1.169h3.438v-.02zM79.298 37.42c0-.523.1-1.007.281-1.45.181-.444.443-.806.785-1.109a3.414 3.414 0 011.166-.705 4.175 4.175 0 011.427-.262c.503 0 .985.08 1.428.262.442.161.844.403 1.166.705.322.303.583.685.784 1.109.201.443.281.927.281 1.45 0 .524-.1 1.008-.281 1.451-.201.444-.442.806-.784 1.109a3.413 3.413 0 01-1.166.705 4.174 4.174 0 01-1.428.262c-.502 0-.985-.08-1.427-.262a3.616 3.616 0 01-1.166-.705 3.683 3.683 0 01-.785-1.109c-.2-.423-.281-.906-.281-1.45zm1.669 0c0 .262.04.524.14.766.08.242.222.464.382.645.181.181.382.343.624.443.241.121.522.162.824.162.302 0 .583-.06.824-.162.242-.12.443-.262.624-.443a1.62 1.62 0 00.382-.645c.08-.242.14-.504.14-.766s-.04-.503-.14-.765a1.892 1.892 0 00-.382-.645 1.956 1.956 0 00-.624-.443c-.24-.121-.522-.162-.824-.162-.302 0-.583.06-.824.162-.242.12-.443.262-.624.443a1.618 1.618 0 00-.382.645c-.1.262-.14.503-.14.765zM88.808 34.055h1.588v1.008h.02c.241-.403.563-.705.985-.907a3.196 3.196 0 011.327-.282c.523 0 .965.1 1.388.282.402.181.764.423 1.045.746.282.322.503.685.664 1.128.14.423.22.887.22 1.39 0 .504-.08.968-.24 1.391-.161.423-.383.806-.664 1.129a2.931 2.931 0 01-1.025.745 3.17 3.17 0 01-1.307.282c-.322 0-.603-.04-.845-.1a2.056 2.056 0 01-.643-.262c-.181-.101-.342-.222-.483-.323a1.676 1.676 0 01-.321-.342h-.04v4.05h-1.67v-9.935zm5.549 3.366c0-.262-.04-.504-.14-.766a1.89 1.89 0 00-.383-.645 1.957 1.957 0 00-.623-.443c-.241-.121-.523-.161-.825-.161-.301 0-.583.06-.824.16-.241.122-.442.263-.623.444a1.62 1.62 0 00-.382.645c-.08.242-.14.504-.14.766s.04.524.14.765c.08.242.221.464.382.645.18.182.382.343.623.444.241.12.523.16.825.16.301 0 .583-.06.824-.16.241-.121.442-.262.623-.444.181-.181.302-.403.382-.645.1-.241.14-.503.14-.765zM99.946 30.186h-1.669v10.6h1.67v-10.6zM103.867 38.005c.06.504.261.907.583 1.169.342.282.744.423 1.227.423.422 0 .764-.08 1.065-.262.282-.181.543-.383.744-.645l1.206.907c-.382.484-.824.826-1.306 1.028a3.906 3.906 0 01-1.528.302c-.503 0-.986-.08-1.428-.262a3.422 3.422 0 01-1.166-.705 3.676 3.676 0 01-.784-1.109c-.201-.443-.282-.927-.282-1.45 0-.525.101-1.008.282-1.451.181-.444.442-.806.784-1.109a3.238 3.238 0 011.166-.705 4.174 4.174 0 011.428-.262c.462 0 .884.08 1.286.242.382.161.724.403.986.705.281.302.482.685.643 1.149.161.463.221.967.221 1.572v.463h-5.127zm3.438-1.25c0-.503-.161-.886-.462-1.168-.302-.282-.704-.423-1.247-.423-.502 0-.905.14-1.186.443-.302.282-.483.685-.543 1.169h3.438v-.02zM112.654 30.872h-1.427v3.707h1.427v-3.707zM118.786 35.93a1.51 1.51 0 00-1.307-.686c-.221 0-.442.06-.663.161a.576.576 0 00-.322.544c0 .202.08.363.261.444.181.1.403.181.664.242.261.06.563.14.864.201.322.06.604.181.865.322.261.142.503.343.664.605.18.262.261.605.261 1.028 0 .403-.081.745-.261 1.007a2.098 2.098 0 01-.664.665 3.399 3.399 0 01-.925.363 4.45 4.45 0 01-1.025.12c-.523 0-1.006-.08-1.448-.22-.442-.142-.824-.424-1.166-.807l1.126-1.048c.221.242.442.444.684.605.241.161.542.222.904.222.121 0 .242-.02.382-.04.121-.02.262-.081.362-.142a.822.822 0 00.282-.242c.08-.1.1-.221.1-.342 0-.242-.08-.403-.261-.524s-.402-.202-.664-.282c-.261-.06-.563-.141-.884-.202a2.935 2.935 0 01-.865-.302c-.261-.141-.503-.322-.663-.564-.181-.242-.262-.585-.262-1.008 0-.383.081-.705.242-.967a2.19 2.19 0 01.603-.685c.261-.181.543-.302.864-.383.322-.08.664-.121.985-.121.443 0 .885.08 1.327.222.443.16.785.423 1.066.786l-1.126 1.027zM128.074 30.872h2.031l2.714 7.496 2.775-7.496h1.89l-3.981 9.914h-1.528l-3.901-9.914zM137.545 37.42c0-.523.1-1.007.281-1.45.201-.444.443-.806.785-1.109a3.221 3.221 0 011.166-.705 4.173 4.173 0 011.427-.262c.503 0 .985.08 1.428.262a3.62 3.62 0 011.166.705c.322.303.583.685.784 1.109.201.443.281.927.281 1.45 0 .524-.1 1.008-.281 1.451-.201.444-.442.806-.784 1.109a3.238 3.238 0 01-1.166.705 4.179 4.179 0 01-1.428.262c-.502 0-.985-.08-1.427-.262a3.6 3.6 0 01-1.166-.705 3.678 3.678 0 01-.785-1.109 3.659 3.659 0 01-.281-1.45zm1.689 0c0 .262.04.524.141.766.08.242.221.464.382.645.181.181.382.343.623.443.241.121.523.162.824.162.302 0 .583-.06.825-.162.241-.12.442-.262.623-.443s.301-.403.382-.645a2.47 2.47 0 00.141-.766c0-.262-.041-.503-.141-.765a1.898 1.898 0 00-.382-.645 1.959 1.959 0 00-.623-.443c-.242-.121-.523-.162-.825-.162-.301 0-.583.06-.824.162-.241.12-.442.262-.623.443a1.613 1.613 0 00-.382.645 2.053 2.053 0 00-.141.765zM146.854 31.778a.98.98 0 01.302-.705c.201-.202.463-.303.764-.303.302 0 .563.101.784.283.201.201.322.423.322.725a.938.938 0 01-.322.726c-.201.201-.462.282-.784.282-.301 0-.563-.101-.764-.303a.98.98 0 01-.302-.705zm.242 2.277h1.669v6.73h-1.669v-6.73zM155.923 36.07a2.747 2.747 0 00-.624-.483 1.37 1.37 0 00-.663-.181c-.302 0-.583.06-.825.16a2.336 2.336 0 00-.623.444 1.624 1.624 0 00-.382.645 2.47 2.47 0 00-.141.766 2 2 0 00.141.766c.081.241.221.463.382.644.181.182.382.343.623.444.242.12.523.161.825.161.261 0 .502-.06.724-.161.221-.101.422-.262.563-.464l1.126 1.21a2.609 2.609 0 01-.584.443c-.221.12-.442.221-.663.302-.221.08-.442.12-.643.161-.201.04-.382.04-.523.04-.503 0-.985-.08-1.428-.261a3.62 3.62 0 01-1.166-.706c-.342-.302-.583-.685-.784-1.108-.201-.443-.281-.927-.281-1.451s.1-1.008.281-1.45c.201-.444.442-.807.784-1.11a3.419 3.419 0 011.166-.705 4.179 4.179 0 011.428-.261c.422 0 .864.08 1.287.241.442.162.804.424 1.146.786l-1.146 1.129zM160.064 38.005c.06.504.261.907.583 1.169.342.282.744.423 1.206.423.423 0 .764-.08 1.066-.262.281-.181.543-.383.744-.645l1.206.907c-.382.484-.824.826-1.307 1.028a3.899 3.899 0 01-1.528.302c-.502 0-.985-.08-1.427-.262a3.403 3.403 0 01-1.166-.705 3.696 3.696 0 01-.785-1.109 3.825 3.825 0 01-.281-1.45c0-.525.101-1.008.281-1.451.181-.444.443-.806.785-1.109a3.221 3.221 0 011.166-.705 4.173 4.173 0 011.427-.262 3.4 3.4 0 011.287.242c.382.161.724.403.985.705.282.302.483.685.644 1.149.16.463.221.967.221 1.572v.463h-5.107zm3.438-1.25c0-.503-.161-.886-.462-1.168-.302-.282-.704-.423-1.247-.423-.503 0-.905.14-1.186.443-.302.282-.483.685-.543 1.169h3.438v-.02zM170.981 35.93a1.51 1.51 0 00-1.307-.686c-.221 0-.442.06-.664.161a.575.575 0 00-.321.544c0 .202.08.363.261.444.181.1.402.181.664.242.261.06.563.14.884.201.322.06.603.181.865.322.261.142.502.343.663.605.181.262.262.605.262 1.028 0 .403-.081.745-.262 1.007a2.095 2.095 0 01-.663.665 3.411 3.411 0 01-.925.363c-.342.08-.684.12-1.025.12-.523 0-1.006-.08-1.448-.22-.442-.142-.824-.424-1.166-.807l1.126-1.048c.221.242.442.444.683.605.242.161.543.222.905.222.121 0 .241-.02.382-.04.121-.02.241-.081.362-.142a.81.81 0 00.281-.242.674.674 0 00.101-.342c0-.242-.08-.403-.261-.524s-.402-.202-.664-.282c-.261-.06-.563-.141-.864-.202a2.925 2.925 0 01-.865-.302c-.261-.141-.503-.322-.663-.564-.181-.242-.262-.585-.262-1.008 0-.383.081-.705.221-.967.161-.282.362-.504.604-.685.261-.181.542-.302.864-.383.322-.08.664-.121.985-.121.443 0 .885.08 1.327.222.443.16.784.423 1.066.786l-1.146 1.027zM62.69 47.032c0-.261.101-.503.302-.705.201-.201.463-.302.764-.302.302 0 .563.1.784.282.201.201.322.423.322.725a.91.91 0 01-.322.726c-.2.201-.462.282-.784.282-.301 0-.563-.1-.764-.302a.979.979 0 01-.302-.706zm.242 2.278H64.6v6.73h-1.668v-6.73zM66.67 49.31h1.59v1.088h.02c.16-.343.401-.625.723-.867.322-.242.764-.362 1.327-.362.442 0 .825.08 1.146.221.322.141.563.343.764.584.201.242.342.524.422.847.08.322.121.645.121.987v4.252h-1.669v-3.405c0-.182 0-.403-.02-.625a2.308 2.308 0 00-.14-.645 1.295 1.295 0 00-.362-.504c-.161-.14-.403-.201-.684-.201-.282 0-.523.04-.704.14-.18.102-.342.222-.482.384-.12.16-.221.342-.282.544a2.27 2.27 0 00-.08.645v3.667H66.69v-6.75h-.02zM79.177 46.126h3.338c.483 0 .925.04 1.367.141.442.1.825.242 1.166.463.342.222.603.504.805.887.2.363.301.826.301 1.37 0 .625-.1 1.129-.322 1.512-.22.383-.502.685-.864.886a3.484 3.484 0 01-1.267.424c-.482.08-.985.12-1.508.12h-1.266v4.111h-1.77v-9.914h.02zm2.835 4.292c.262 0 .503 0 .784-.02.262-.02.523-.08.744-.161.221-.101.423-.242.563-.423.141-.182.222-.444.222-.786 0-.303-.06-.544-.202-.746a1.45 1.45 0 00-.502-.423 1.907 1.907 0 00-.684-.181c-.261-.02-.502-.04-.724-.04h-1.266v2.78h1.065zM86.938 52.675c0-.524.1-1.008.281-1.451.201-.443.442-.806.784-1.108a3.232 3.232 0 011.166-.706 4.174 4.174 0 011.428-.262c.502 0 .985.081 1.427.262.443.162.825.403 1.166.706.322.302.584.685.785 1.108.2.443.281.927.281 1.45 0 .525-.1 1.008-.281 1.452-.201.443-.443.806-.785 1.108a3.233 3.233 0 01-1.166.705 4.175 4.175 0 01-1.427.262c-.503 0-.985-.08-1.428-.262a3.413 3.413 0 01-1.166-.705 3.681 3.681 0 01-.784-1.108 3.659 3.659 0 01-.281-1.451zm1.688 0c0 .262.04.524.141.766.08.241.221.463.382.645.181.18.382.342.623.443.242.12.523.161.825.161.301 0 .583-.06.824-.161.241-.121.442-.262.623-.444a1.62 1.62 0 00.382-.644c.08-.242.141-.504.141-.766s-.04-.504-.14-.766a1.892 1.892 0 00-.383-.645 1.955 1.955 0 00-.623-.443c-.241-.12-.523-.161-.824-.161-.302 0-.583.06-.825.161-.24.12-.442.262-.623.443a1.62 1.62 0 00-.382.645c-.1.262-.14.504-.14.766zM97.212 45.44h-1.669v10.6h1.669v-10.6zM99.063 47.032c0-.261.1-.503.301-.705.201-.201.462-.302.764-.302s.563.1.784.282c.201.201.322.423.322.725a.91.91 0 01-.322.726c-.201.201-.462.282-.784.282-.302 0-.563-.1-.764-.302a.978.978 0 01-.302-.706zm.24 2.278h1.67v6.73h-1.67v-6.73zM107.587 51.325a2.742 2.742 0 00-.623-.483 1.374 1.374 0 00-.664-.182c-.301 0-.583.06-.824.161-.241.121-.442.262-.623.444a1.612 1.612 0 00-.382.645 2.441 2.441 0 00-.141.765c0 .262.04.524.141.766.08.242.221.463.382.645.181.181.382.342.623.443.241.121.523.161.824.161.262 0 .503-.06.724-.16.221-.102.422-.263.583-.464l1.126 1.209a2.629 2.629 0 01-.583.443c-.221.121-.442.222-.663.302-.222.08-.443.121-.644.161-.201.04-.382.04-.523.04-.502 0-.985-.08-1.427-.261a3.623 3.623 0 01-1.166-.705 3.676 3.676 0 01-.784-1.109c-.201-.443-.282-.927-.282-1.45 0-.524.101-1.008.282-1.451.181-.444.442-.806.784-1.109a3.41 3.41 0 011.166-.705 4.173 4.173 0 011.427-.262c.423 0 .865.08 1.287.242.443.161.804.423 1.146.786l-1.166 1.128zM109.315 49.31h1.85l1.87 4.675h.02l1.669-4.675h1.749l-3.177 8.16c-.12.323-.261.605-.402.827-.14.242-.321.443-.502.605a2.03 2.03 0 01-.684.362c-.261.08-.583.121-.965.121a5.49 5.49 0 01-1.287-.161l.201-1.511c.121.04.262.08.422.12.141.04.282.04.443.04.201 0 .382-.02.523-.06.14-.04.261-.1.361-.181a.896.896 0 00.242-.302c.06-.121.14-.282.201-.464l.321-.806-2.855-6.75zM129.221 48.443c-.362-.383-.724-.645-1.066-.786a3.093 3.093 0 00-1.026-.201c-.502 0-.985.1-1.387.282a3.131 3.131 0 00-1.065.766 3.39 3.39 0 00-.684 1.128 3.88 3.88 0 00-.241 1.39c0 .525.08 1.028.241 1.472.161.443.402.826.684 1.169.281.342.663.584 1.065.765.422.182.885.282 1.387.282.403 0 .785-.1 1.167-.282.382-.181.723-.503 1.045-.927l1.448 1.028a3.878 3.878 0 01-1.629 1.35 5.05 5.05 0 01-2.051.423c-.764 0-1.467-.12-2.111-.362a4.807 4.807 0 01-1.648-1.048 4.63 4.63 0 01-1.086-1.633c-.262-.644-.382-1.35-.382-2.115 0-.786.12-1.512.382-2.157.261-.644.623-1.209 1.086-1.652.462-.463 1.005-.806 1.648-1.068a5.957 5.957 0 012.111-.363c.664 0 1.287.121 1.87.363.583.242 1.106.645 1.609 1.21l-1.367.966zM133.624 50.257h.02c.121-.283.362-.544.684-.766.322-.222.764-.343 1.287-.343.442 0 .824.08 1.146.222.321.141.563.343.764.584.201.242.342.524.422.847.08.322.121.645.121.987v4.252h-1.669v-3.406c0-.181 0-.403-.02-.624a2.32 2.32 0 00-.141-.645 1.287 1.287 0 00-.362-.504c-.161-.141-.402-.201-.683-.201-.282 0-.523.04-.704.14-.181.101-.342.222-.483.384-.12.16-.221.342-.281.544a2.244 2.244 0 00-.081.644v3.668h-1.668v-10.6h1.668v4.817h-.02zM139.736 52.675c0-.524.101-1.008.282-1.451.181-.443.442-.806.784-1.108a3.238 3.238 0 011.166-.706 4.174 4.174 0 011.428-.262c.502 0 .985.081 1.427.262a3.62 3.62 0 011.166.706c.322.302.583.685.784 1.108.181.443.282.927.282 1.45 0 .525-.101 1.008-.282 1.452-.201.443-.442.806-.784 1.108a3.221 3.221 0 01-1.166.705 4.173 4.173 0 01-1.427.262c-.503 0-.986-.08-1.428-.262a3.419 3.419 0 01-1.166-.705 3.676 3.676 0 01-.784-1.108c-.201-.423-.282-.907-.282-1.451zm1.669 0c0 .262.04.524.141.766.08.241.221.463.382.645.181.18.382.342.623.443.241.12.523.161.824.161.302 0 .584-.06.825-.161.241-.121.442-.262.623-.444.181-.18.302-.403.382-.644a2.44 2.44 0 00.141-.766c0-.262-.04-.504-.141-.766a1.882 1.882 0 00-.382-.645 1.957 1.957 0 00-.623-.443c-.241-.12-.523-.161-.825-.161-.301 0-.583.06-.824.161-.241.12-.442.262-.623.443a1.613 1.613 0 00-.382.645 2.053 2.053 0 00-.141.766zM148.482 47.032a.98.98 0 01.302-.705c.201-.201.462-.302.764-.302s.563.1.784.282c.201.201.322.423.322.725a.91.91 0 01-.322.726c-.201.201-.462.282-.784.282-.302 0-.563-.1-.764-.302a.98.98 0 01-.302-.706zm.242 2.278h1.668v6.73h-1.668v-6.73zM157.007 51.325a2.742 2.742 0 00-.623-.483 1.374 1.374 0 00-.664-.182c-.301 0-.583.06-.824.161-.241.121-.442.262-.623.444a1.612 1.612 0 00-.382.645 2.441 2.441 0 00-.141.765c0 .262.04.524.141.766.08.242.221.463.382.645.181.181.382.342.623.443.241.121.523.161.824.161.262 0 .503-.06.724-.16.221-.102.422-.263.583-.464l1.126 1.209a2.629 2.629 0 01-.583.443c-.221.121-.442.222-.664.302-.221.08-.442.121-.643.161-.201.04-.382.04-.523.04-.502 0-.985-.08-1.427-.261a3.401 3.401 0 01-1.166-.705 3.676 3.676 0 01-.784-1.109 3.807 3.807 0 01-.282-1.45c0-.524.101-1.008.282-1.451.201-.444.442-.806.784-1.109a3.221 3.221 0 011.166-.705 4.173 4.173 0 011.427-.262c.423 0 .865.08 1.287.242.442.161.804.423 1.146.786l-1.166 1.128zM160.606 53.26c.061.503.262.886.583 1.168.342.282.744.423 1.227.423.422 0 .764-.08 1.065-.262.282-.181.543-.383.744-.645l1.207.907c-.382.484-.825.827-1.307 1.028a3.9 3.9 0 01-1.528.302c-.503 0-.985-.08-1.428-.262a3.42 3.42 0 01-1.166-.705 3.675 3.675 0 01-.784-1.108c-.201-.444-.281-.927-.281-1.451s.1-1.008.281-1.451c.181-.443.442-.806.784-1.108a3.238 3.238 0 011.166-.706 4.179 4.179 0 011.428-.262c.462 0 .884.081 1.287.242.382.161.723.403.985.706.281.302.482.685.643 1.148.161.464.221.967.221 1.572v.463h-5.127zm3.438-1.25c0-.504-.16-.887-.462-1.169-.302-.282-.704-.423-1.247-.423-.502 0-.904.141-1.206.443-.302.283-.482.686-.543 1.17h3.458v-.021zM170.96 51.184a1.51 1.51 0 00-1.307-.685c-.221 0-.442.06-.663.16a.576.576 0 00-.322.545c0 .201.081.363.262.443.181.1.402.181.663.242.262.06.563.141.885.201.321.061.603.182.864.323.262.141.503.343.664.605.181.261.261.604.261 1.027 0 .403-.08.746-.261 1.008a2.088 2.088 0 01-.664.665 3.399 3.399 0 01-.925.362c-.341.081-.683.121-1.025.121-.523 0-1.005-.08-1.448-.221-.442-.141-.824-.423-1.166-.806l1.126-1.048c.221.242.443.443.684.604.241.162.543.222.905.222.12 0 .241-.02.382-.04.12-.02.261-.08.362-.141a.818.818 0 00.281-.242c.06-.101.101-.222.101-.343 0-.242-.081-.403-.262-.524-.181-.12-.402-.201-.663-.282-.262-.06-.563-.14-.865-.201a2.919 2.919 0 01-.864-.303c-.262-.14-.503-.322-.664-.564-.181-.242-.261-.584-.261-1.007 0-.383.08-.706.221-.968.161-.282.362-.503.603-.685.261-.181.543-.302.865-.383.321-.08.663-.12.985-.12.442 0 .884.08 1.327.221.442.161.784.423 1.065.786l-1.146 1.028z" fill="#1ED261"/></g><defs><clipPath id="clip0"><path fill="#fff" d="M0 0h172v58H0z"/></clipPath></defs></svg>