<svg width="256" height="95" fill="none" xmlns="http://www.w3.org/2000/svg"><g clip-path="url(#clip0)" fill="#fff"><path d="M81.147 25.117a12.87 12.87 0 006.762-11.351v-.845C87.909 5.796 82.113 0 74.989 0c-7.125 0-12.922 5.796-12.922 12.92v.846c0 5.132 3.02 9.6 7.427 11.653a12.869 12.869 0 00-6.763 11.35v21.857c0 7.125 5.797 12.921 12.921 12.921 7.125 0 12.921-5.796 12.921-12.92V36.77c0-5.132-3.019-9.6-7.426-11.653zM68.648 13.706v-.846c0-3.562 2.899-6.4 6.4-6.4 3.563 0 6.4 2.898 6.4 6.4v.846c0 3.562-2.898 6.4-6.4 6.4-3.562.06-6.4-2.838-6.4-6.4zm7.004 51.32c-3.562 0-6.4-2.898-6.4-6.4V36.77c0-3.563 2.898-6.4 6.4-6.4 3.502 0 6.4 2.898 6.4 6.4v21.856c0 3.502-2.898 6.4-6.4 6.4zM44.437 22.823c-7.124 0-12.92 5.796-12.92 12.92v.846c0 4.89 2.777 9.177 6.762 11.35-4.347 2.054-7.427 6.522-7.427 11.654v21.856c0 7.125 5.797 12.92 12.921 12.92 7.125 0 12.921-5.795 12.921-12.92h-6.46c0 3.562-2.898 6.4-6.4 6.4-3.502 0-6.4-2.898-6.4-6.4V59.593c0-3.563 2.898-6.4 6.4-6.4 3.562 0 6.4 2.898 6.4 6.4h6.52c0-4.891-2.777-9.178-6.762-11.351a12.903 12.903 0 007.366-11.653v-.846c0-7.124-5.796-12.92-12.92-12.92zm6.4 13.766c0 3.562-2.898 6.4-6.4 6.4-3.562 0-6.4-2.898-6.4-6.4v-.846c0-3.562 2.899-6.4 6.4-6.4 3.563 0 6.4 2.899 6.4 6.4v.846zM20.407 47.276c5.797-4.106 7.186-12.197 3.08-17.993-1.208-1.69-2.838-3.08-4.71-4.045 4.227-2.113 7.064-6.521 7.064-11.532v-.846C25.841 5.796 20.046 0 12.921 0 5.796 0 0 5.796 0 12.92v.846c0 5.011 2.898 9.359 7.064 11.532C2.898 27.411 0 31.758 0 36.77v21.856c0 7.125 5.796 12.921 12.92 12.921 7.125 0 12.921-5.796 12.921-12.92h-6.52c0 3.562-2.898 6.4-6.4 6.4-3.563 0-6.4-2.899-6.4-6.4v-1.45l13.886-9.901zM6.521 13.706v-.846c0-3.562 2.898-6.4 6.4-6.4 3.562 0 6.4 2.898 6.4 6.4v.846c0 3.562-2.898 6.4-6.4 6.4-3.563.06-6.4-2.838-6.4-6.4zm0 23.064c0-3.563 2.898-6.4 6.4-6.4 3.502 0 6.4 2.838 6.4 6.4a6.335 6.335 0 01-2.717 5.192L6.52 49.147V36.77zM126.612 30.43v6.884h-19.563v7.97h17.993v6.34h-17.993v9.116h19.985v6.883H98.898V30.431h27.714zM130.898 37.314V30.43h30.37v6.883h-11.109v30.249h-8.151v-30.25h-11.11zM174.914 30.43v14.25h15.034V30.43h8.151v37.072h-8.151v-15.94h-15.034v16h-8.151V30.432h8.151zM214.643 30.43v37.072h-8.151V30.431h8.151zM246.823 40.332c-.483-.785-1.087-1.449-1.811-2.053-.725-.603-1.57-1.026-2.476-1.388a9.109 9.109 0 00-2.898-.483c-1.811 0-3.381.362-4.649 1.087-1.268.724-2.294 1.69-3.139 2.837a12.59 12.59 0 00-1.751 4.106 20.074 20.074 0 00-.544 4.71c0 1.57.181 3.079.544 4.528a13.128 13.128 0 001.751 3.985 8.923 8.923 0 003.139 2.837c1.268.725 2.838 1.087 4.649 1.087 2.476 0 4.468-.785 5.857-2.294 1.389-1.51 2.234-3.502 2.596-6.038h7.91c-.182 2.294-.725 4.408-1.631 6.28a14.424 14.424 0 01-3.441 4.77c-1.449 1.327-3.079 2.293-5.012 3.018-1.932.664-3.984 1.026-6.279 1.026-2.837 0-5.373-.483-7.668-1.51-2.294-1.026-4.166-2.354-5.736-4.105-1.569-1.75-2.777-3.743-3.562-6.098-.785-2.355-1.268-4.83-1.268-7.547 0-2.777.423-5.313 1.268-7.728.845-2.355 2.053-4.468 3.562-6.22 1.51-1.75 3.442-3.139 5.736-4.165 2.295-1.027 4.831-1.51 7.668-1.51 2.053 0 3.985.302 5.796.906 1.812.604 3.442 1.45 4.891 2.596 1.449 1.147 2.596 2.536 3.562 4.166.906 1.69 1.51 3.563 1.751 5.736h-7.909a6.407 6.407 0 00-.906-2.536zM253.524 81.932H64.302v6.823h189.222v-6.823zM23.004 84.89H0v6.823h23.004v-6.822z"/></g><defs><clipPath id="clip0"><path fill="#fff" d="M0 0h256v94.37H0z"/></clipPath></defs></svg>