<svg width="256" height="256" fill="none" xmlns="http://www.w3.org/2000/svg"><path d="M48.897 208.606c0 15.095-9.556 27.394-25.091 27.394C8.326 236 0 223.645 0 208.606v-4.752h48.897v4.752z" fill="#6394AB" fill-opacity=".5"/><path d="M42.432 207.795v-79.99c0-58.885 47.83-106.66 106.783-106.66s106.783 47.775 106.783 106.66v79.99c0 15.542-13.081 28.205-29.044 28.205H17.71c15.502-.633 24.722-13.066 24.722-28.205z" fill="#6394AB" fill-opacity=".2"/><path d="M48.898 208.606v-76.225c0-57.192 46.383-103.595 103.551-103.595S256 75.19 256 132.381v76.225C256 223.701 243.315 236 227.835 236H24.925c15.032-.615 23.973-12.691 23.973-27.394z" fill="#fff"/><path d="M49.398 132.381v76.225c0 12.725-6.626 23.596-18.125 26.894h196.562c15.217 0 27.665-12.089 27.665-26.894v-76.225c0-56.916-46.159-103.095-103.051-103.095S49.399 75.465 49.399 132.381z" stroke="#6394AB" stroke-opacity=".2"/></svg>