<svg width="256" height="256" viewBox="0 0 256 256" fill="none" xmlns="http://www.w3.org/2000/svg">
<path d="M48.8974 208.606C48.8974 223.701 39.3414 236 23.806 236C8.32653 236 0 223.645 0 208.606V203.854H48.8974V208.606Z" fill="#6394AB" fill-opacity="0.5"/>
<g style="mix-blend-mode:multiply">
<path d="M42.432 207.795V127.805C42.432 68.9202 90.2625 21.1448 149.215 21.1448C208.168 21.1448 255.998 68.9202 255.998 127.805V207.795C255.998 223.337 242.917 236 226.954 236H17.71C33.2117 235.367 42.432 222.934 42.432 207.795Z" fill="#6394AB" fill-opacity="0.2"/>
</g>
<path d="M48.8985 208.606V132.381C48.8985 75.1889 95.2811 28.7864 152.449 28.7864C209.617 28.7864 256 75.1889 256 132.381V208.606C256 223.701 243.315 236 227.835 236H24.9248C39.9573 235.385 48.8985 223.309 48.8985 208.606Z" fill="white"/>
<path d="M49.3985 132.381V208.606C49.3985 221.331 42.7721 232.202 31.2735 235.5H227.835C243.052 235.5 255.5 223.411 255.5 208.606V132.381C255.5 75.4648 209.341 29.2864 152.449 29.2864C95.5575 29.2864 49.3985 75.4648 49.3985 132.381Z" stroke="#6394AB" stroke-opacity="0.2"/>
</svg>
