<svg width="160" height="135" viewBox="0 0 160 135" fill="none" xmlns="http://www.w3.org/2000/svg">
<path d="M30.5609 17.1214C30.5609 7.68716 24.5884 0 14.8788 0C5.20408 0 0 7.7221 0 17.1214V20.0914H30.5609V17.1214Z" fill="#6394AB" fill-opacity="0.5"/>
<g style="mix-blend-mode:multiply">
<path d="M26.52 17.628V67.622C26.52 104.425 56.4141 134.285 93.2594 134.285C130.105 134.285 159.999 104.425 159.999 67.622V17.628C159.999 7.9146 151.823 0 141.846 0H11.0687C20.7573 0.39573 26.52 8.16643 26.52 17.628Z" fill="#6394AB" fill-opacity="0.2"/>
</g>
<path d="M30.5616 17.1214V64.7617C30.5616 100.507 59.5507 129.509 95.2807 129.509C131.011 129.509 160 100.507 160 64.7617V17.1214C160 7.68716 152.072 0 142.397 0H15.578C24.9733 0.384358 30.5616 7.93175 30.5616 17.1214Z" fill="white"/>
<path d="M31.0616 64.7617V17.1214C31.0616 9.52298 27.3052 2.94508 20.7195 0.5H142.397C151.809 0.5 159.5 7.97674 159.5 17.1214V64.7617C159.5 100.231 130.734 129.009 95.2807 129.009C59.8271 129.009 31.0616 100.231 31.0616 64.7617Z" stroke="#6394AB" stroke-opacity="0.2"/>
</svg>
