<svg width="256" height="256" viewBox="0 0 256 256" fill="none" xmlns="http://www.w3.org/2000/svg">
<path d="M48.8831 48.3862C48.8831 33.2958 39.3299 21 23.7991 21C8.32408 21 0 33.3517 0 48.3862V53.1369H48.8831V48.3862Z" fill="#6394AB" fill-opacity="0.5"/>
<g style="mix-blend-mode:multiply">
<path d="M42.4189 49.1965V129.164C42.4189 188.031 90.2354 235.792 149.171 235.792C208.106 235.792 255.922 188.031 255.922 129.164V49.1965C255.922 33.6596 242.845 21 226.887 21H17.7041C33.2013 21.633 42.4189 34.0624 42.4189 49.1965Z" fill="#6394AB" fill-opacity="0.2"/>
</g>
<path d="M48.9589 48.3862V124.588C48.9589 181.764 95.3279 228.153 152.479 228.153C209.63 228.153 256 181.764 256 124.588V48.3862C256 33.2958 243.318 21 227.843 21H24.9922C40.0202 21.6148 48.9589 33.6871 48.9589 48.3862Z" fill="white"/>
<path d="M49.4589 124.588V48.3862C49.4589 35.665 42.8347 24.7977 31.34 21.5H227.843C243.055 21.5 255.5 33.5854 255.5 48.3862V124.588C255.5 181.488 209.354 227.653 152.479 227.653C95.6042 227.653 49.4589 181.488 49.4589 124.588Z" stroke="#6394AB" stroke-opacity="0.2"/>
</svg>
