<svg width="160" height="135" fill="none" xmlns="http://www.w3.org/2000/svg"><path d="M30.56 17.121C30.56 7.687 24.589 0 14.88 0 5.204 0 0 7.722 0 17.121v2.97h30.56v-2.97z" fill="#6394AB" fill-opacity=".5"/><path d="M26.52 17.628v49.994c0 36.803 29.894 66.663 66.74 66.663 36.845 0 66.739-29.86 66.739-66.663V17.628C159.999 7.915 151.823 0 141.846 0H11.069C20.757.396 26.52 8.166 26.52 17.628z" fill="#6394AB" fill-opacity=".2"/><path d="M30.562 17.121v47.64c0 35.746 28.989 64.748 64.719 64.748 35.73 0 64.719-29.002 64.719-64.747v-47.64C160 7.686 152.072 0 142.397 0H15.578c9.395.384 14.984 7.932 14.984 17.121z" fill="#fff"/><path d="M31.062 64.762v-47.64c0-7.599-3.757-14.177-10.343-16.622h121.678c9.412 0 17.103 7.477 17.103 16.621v47.64c0 35.47-28.766 64.248-64.22 64.248-35.453 0-64.218-28.778-64.218-64.247z" stroke="#6394AB" stroke-opacity=".2"/></svg>