<svg width="256" height="256" fill="none" xmlns="http://www.w3.org/2000/svg"><path d="M48.883 48.386C48.883 33.296 39.33 21 23.8 21 8.324 21 0 33.352 0 48.386v4.75h48.883v-4.75z" fill="#6394AB" fill-opacity=".5"/><path d="M42.419 49.197v79.967c0 58.867 47.816 106.628 106.752 106.628 58.935 0 106.751-47.761 106.751-106.628V49.197C255.922 33.66 242.845 21 226.887 21H17.704c15.497.633 24.715 13.062 24.715 28.197z" fill="#6394AB" fill-opacity=".2"/><path d="M48.959 48.386v76.202c0 57.176 46.369 103.565 103.52 103.565C209.63 228.153 256 181.764 256 124.588V48.386C256 33.296 243.318 21 227.843 21H24.993c15.027.615 23.966 12.687 23.966 27.386z" fill="#fff"/><path d="M49.459 124.588V48.386c0-12.721-6.624-23.588-18.119-26.886h196.503c15.212 0 27.657 12.085 27.657 26.886v76.202c0 56.9-46.146 103.065-103.021 103.065s-103.02-46.165-103.02-103.065z" stroke="#6394AB" stroke-opacity=".2"/></svg>