<svg width="480" height="270" fill="none" xmlns="http://www.w3.org/2000/svg"><path fill="#fff" d="M0 0h480v270H0z"/><path fill="#C4C4C4" d="M0 0h480v270H0z"/><path d="M288.75 182.812h-97.5a10.312 10.312 0 01-10.312-10.312v-75a10.312 10.312 0 0110.312-10.313h97.5A10.312 10.312 0 01299.062 97.5v75a10.312 10.312 0 01-10.312 10.312zm-97.5-90a4.69 4.69 0 00-4.688 4.688v75a4.69 4.69 0 004.688 4.688h97.5a4.69 4.69 0 004.688-4.688v-75a4.688 4.688 0 00-4.688-4.688h-97.5z" fill="#999"/><path d="M184.161 173.55a2.78 2.78 0 01-2.1-1.05 2.853 2.853 0 01.263-3.75l35.437-30.975a10.236 10.236 0 0114.213.6l24.975 26.25a2.813 2.813 0 11-4.088 3.75l-24.937-26.25a4.726 4.726 0 00-6.488-.3l-35.4 31.012a2.813 2.813 0 01-1.875.713z" fill="#999"/><path d="M295.501 174.562a2.762 2.762 0 01-1.988-.825l-23.962-23.963a4.765 4.765 0 00-6.6 0l-11.925 11.925a2.812 2.812 0 01-3.975-3.975l11.925-11.925a10.574 10.574 0 0114.55 0l23.962 23.963a2.81 2.81 0 010 3.975 2.773 2.773 0 01-1.987.825zM255 106.875a9.373 9.373 0 019.195 11.204A9.376 9.376 0 11255 106.875zm0-5.625a15.003 15.003 0 00-13.858 9.26 14.991 14.991 0 00-.854 8.666 15.01 15.01 0 004.105 7.681 15.01 15.01 0 007.681 4.105A15 15 0 10255 101.25z" fill="#999"/></svg>