<svg width="480" height="270" viewBox="0 0 480 270" fill="none" xmlns="http://www.w3.org/2000/svg">
<rect width="480" height="270" fill="white"/>
<rect width="480" height="270" fill="#C4C4C4"/>
<path d="M288.75 182.812H191.25C188.515 182.812 185.892 181.726 183.958 179.792C182.024 177.858 180.938 175.235 180.938 172.5V97.5C180.938 94.765 182.024 92.1419 183.958 90.208C185.892 88.274 188.515 87.1875 191.25 87.1875H288.75C291.485 87.1875 294.108 88.274 296.042 90.208C297.976 92.1419 299.062 94.765 299.062 97.5V172.5C299.062 175.235 297.976 177.858 296.042 179.792C294.108 181.726 291.485 182.812 288.75 182.812ZM191.25 92.8125C190.007 92.8125 188.815 93.3064 187.935 94.1854C187.056 95.0645 186.562 96.2568 186.562 97.5V172.5C186.562 173.743 187.056 174.935 187.935 175.815C188.815 176.694 190.007 177.188 191.25 177.188H288.75C289.993 177.188 291.185 176.694 292.065 175.815C292.944 174.935 293.438 173.743 293.438 172.5V97.5C293.438 96.2568 292.944 95.0645 292.065 94.1854C291.185 93.3064 289.993 92.8125 288.75 92.8125H191.25Z" fill="#999999"/>
<path d="M184.161 173.55C183.756 173.539 183.357 173.439 182.995 173.258C182.632 173.076 182.313 172.818 182.061 172.5C181.642 171.949 181.438 171.265 181.486 170.575C181.535 169.885 181.832 169.236 182.324 168.75L217.761 137.775C219.746 136.013 222.337 135.091 224.989 135.203C227.64 135.315 230.144 136.452 231.974 138.375L256.949 164.625C257.271 164.876 257.535 165.194 257.722 165.558C257.909 165.922 258.014 166.322 258.03 166.73C258.047 167.139 257.974 167.546 257.817 167.923C257.66 168.301 257.423 168.639 257.122 168.916C256.82 169.192 256.462 169.4 256.073 169.524C255.683 169.647 255.271 169.685 254.866 169.633C254.46 169.582 254.071 169.443 253.725 169.225C253.378 169.008 253.084 168.718 252.861 168.375L227.924 142.125C227.086 141.255 225.946 140.739 224.74 140.683C223.533 140.628 222.351 141.036 221.436 141.825L186.036 172.837C185.52 173.297 184.852 173.551 184.161 173.55Z" fill="#999999"/>
<path d="M295.501 174.562C295.131 174.564 294.765 174.492 294.424 174.35C294.082 174.208 293.773 174 293.513 173.737L269.551 149.774C268.664 148.922 267.481 148.446 266.251 148.446C265.02 148.446 263.838 148.922 262.951 149.774L251.026 161.699C250.493 162.196 249.787 162.467 249.059 162.454C248.33 162.441 247.635 162.146 247.12 161.631C246.604 161.115 246.309 160.42 246.296 159.691C246.283 158.963 246.554 158.258 247.051 157.724L258.976 145.799C260.94 143.937 263.544 142.899 266.251 142.899C268.958 142.899 271.561 143.937 273.526 145.799L297.488 169.762C298.015 170.289 298.311 171.004 298.311 171.749C298.311 172.495 298.015 173.21 297.488 173.737C297.229 174 296.919 174.208 296.578 174.35C296.236 174.492 295.87 174.564 295.501 174.562Z" fill="#999999"/>
<path d="M255 106.875C256.854 106.875 258.667 107.425 260.208 108.455C261.75 109.485 262.952 110.949 263.661 112.662C264.371 114.375 264.557 116.26 264.195 118.079C263.833 119.898 262.94 121.568 261.629 122.879C260.318 124.19 258.648 125.083 256.829 125.445C255.01 125.807 253.125 125.621 251.412 124.911C249.699 124.202 248.235 123 247.205 121.458C246.175 119.917 245.625 118.104 245.625 116.25C245.625 113.764 246.613 111.379 248.371 109.621C250.129 107.863 252.514 106.875 255 106.875ZM255 101.25C252.033 101.25 249.133 102.13 246.666 103.778C244.2 105.426 242.277 107.769 241.142 110.51C240.006 113.251 239.709 116.267 240.288 119.176C240.867 122.086 242.296 124.759 244.393 126.857C246.491 128.954 249.164 130.383 252.074 130.962C254.983 131.541 257.999 131.244 260.74 130.108C263.481 128.973 265.824 127.05 267.472 124.584C269.12 122.117 270 119.217 270 116.25C270 112.272 268.42 108.456 265.607 105.643C262.794 102.83 258.978 101.25 255 101.25Z" fill="#999999"/>
</svg>
