<svg width="335" height="360" fill="none" xmlns="http://www.w3.org/2000/svg"><g clip-path="url(#clip0)"><path fill="#fff" d="M0 0h335v360H0z"/><path d="M323.922 304.497c0-22.827-18.513-41.507-41.191-41.507H53.191C30.515 262.99 12 244.309 12 221.482c0-22.826 18.514-41.507 41.192-41.507H282.73c22.678 0 41.191-18.681 41.191-41.507 0-22.827-18.513-41.508-41.191-41.508H53.191C30.515 96.96 12 78.28 12 55.453" stroke="#6394AB" stroke-opacity=".5" stroke-width="8" stroke-miterlimit="10"/><path d="M12.065 55.503c0-22.826 18.513-41.457 41.191-41.457h229.539M53.256 346.004h229.539c22.678 0 41.191-18.681 41.191-41.508" stroke="#6394AB" stroke-opacity=".5" stroke-width="8" stroke-miterlimit="10" stroke-dasharray="20 10"/><path d="M44.956 208.172v-5.564h3.172c.468 0 .919.035 1.352.104.433.069.815.208 1.144.416.33.191.59.468.78.832.208.364.312.841.312 1.43s-.104 1.066-.312 1.43c-.19.364-.45.65-.78.858-.33.191-.71.321-1.144.39a8.59 8.59 0 01-1.352.104h-3.172zm-4.082-8.736V218h4.082v-6.656h4.29c1.161 0 2.15-.165 2.964-.494.815-.347 1.473-.797 1.976-1.352a4.92 4.92 0 001.118-1.898 6.951 6.951 0 00.364-2.21c0-.763-.121-1.499-.364-2.21a4.92 4.92 0 00-1.118-1.898c-.503-.555-1.161-.997-1.976-1.326-.815-.347-1.803-.52-2.964-.52h-8.372zm17.342 0V218h4.082v-8.008h7.514V218h4.082v-18.564h-4.082v7.124h-7.514v-7.124h-4.082zm23.951 11.388l2.418-6.812h.052l2.34 6.812h-4.81zm.39-11.388L75.537 218h4.108l1.456-4.134h6.942L89.447 218h4.238l-6.942-18.564h-4.186zm15.511 12.402h-3.952c-.017 1.144.19 2.132.624 2.964a5.896 5.896 0 001.742 2.054 7.467 7.467 0 002.548 1.17c.971.26 1.968.39 2.99.39 1.266 0 2.375-.147 3.328-.442.971-.295 1.777-.702 2.418-1.222a5.188 5.188 0 001.482-1.898c.33-.728.494-1.517.494-2.366 0-1.04-.225-1.889-.676-2.548-.433-.676-.953-1.213-1.56-1.612a6.534 6.534 0 00-1.846-.858 14.487 14.487 0 00-1.43-.39 402.267 402.267 0 01-2.834-.728c-.71-.191-1.274-.381-1.69-.572-.398-.191-.667-.399-.806-.624-.139-.225-.208-.52-.208-.884 0-.399.087-.728.26-.988.174-.26.39-.477.65-.65.277-.173.581-.295.91-.364.33-.069.659-.104.988-.104.503 0 .962.043 1.378.13.434.087.815.234 1.144.442.33.208.59.494.78.858.208.364.33.823.364 1.378h3.952c0-1.075-.208-1.985-.624-2.73a5.158 5.158 0 00-1.638-1.872 6.782 6.782 0 00-2.392-1.04 11.236 11.236 0 00-2.782-.338c-.832 0-1.664.113-2.496.338a6.962 6.962 0 00-2.236 1.04 5.626 5.626 0 00-1.612 1.768c-.398.693-.598 1.517-.598 2.47 0 .849.156 1.577.468 2.184.33.589.754 1.083 1.274 1.482s1.11.728 1.768.988c.659.243 1.335.451 2.028.624a48.59 48.59 0 002.002.52c.659.156 1.248.338 1.768.546.52.208.936.468 1.248.78.33.312.494.719.494 1.222 0 .468-.121.858-.364 1.17a2.605 2.605 0 01-.91.702 4.382 4.382 0 01-1.17.364 9.462 9.462 0 01-1.17.078 6.647 6.647 0 01-1.56-.182 4.435 4.435 0 01-1.326-.598 3.136 3.136 0 01-.884-1.066c-.225-.433-.338-.962-.338-1.586zm14.103-12.402V218h14.092v-3.432h-10.01v-4.55h8.996v-3.172h-8.996v-3.978h9.802v-3.432h-13.884zm28.23 7.722v2.6c.45 0 .918.017 1.404.052.502.017.962.113 1.378.286.416.156.754.416 1.014.78.277.364.416.893.416 1.586 0 .884-.286 1.586-.858 2.106-.572.503-1.274.754-2.106.754-.538 0-1.006-.095-1.404-.286a2.952 2.952 0 01-.962-.754 3.582 3.582 0 01-.598-1.144 5.386 5.386 0 01-.234-1.404h-3.51c-.018 1.057.13 1.993.442 2.808a5.963 5.963 0 001.378 2.08c.589.555 1.3.979 2.132 1.274.849.295 1.785.442 2.808.442a8.33 8.33 0 002.548-.39 6.603 6.603 0 002.158-1.144 5.433 5.433 0 001.482-1.872c.381-.745.572-1.595.572-2.548 0-1.04-.286-1.933-.858-2.678-.572-.745-1.361-1.231-2.366-1.456v-.052c.849-.243 1.482-.702 1.898-1.378.433-.676.65-1.456.65-2.34 0-.815-.182-1.534-.546-2.158a5.208 5.208 0 00-1.43-1.586 5.87 5.87 0 00-1.95-.962 7.363 7.363 0 00-2.184-.338c-.936 0-1.786.156-2.548.468a5.615 5.615 0 00-1.976 1.274 6.082 6.082 0 00-1.274 2.002c-.295.763-.46 1.612-.494 2.548h3.51c-.018-.936.208-1.707.676-2.314.485-.624 1.196-.936 2.132-.936a2.79 2.79 0 011.794.624c.52.416.78 1.014.78 1.794 0 .52-.13.936-.39 1.248a2.41 2.41 0 01-.962.728 4.127 4.127 0 01-1.248.286 7.735 7.735 0 01-1.274 0z" fill="#6394AB" fill-opacity=".5"/><path d="M197.984 318.242h2.448c0-.336.03-.672.09-1.008.072-.348.186-.66.342-.936a1.88 1.88 0 01.612-.684c.264-.18.582-.27.954-.27.552 0 1.002.174 1.35.522.36.336.54.81.54 1.422 0 .384-.09.726-.27 1.026-.168.3-.384.57-.648.81a5.92 5.92 0 01-.846.666c-.312.192-.606.384-.882.576-.54.372-1.056.738-1.548 1.098-.48.36-.9.756-1.26 1.188-.36.42-.648.9-.864 1.44-.204.54-.306 1.176-.306 1.908h9.252v-2.196h-5.958c.312-.432.672-.81 1.08-1.134.408-.324.828-.624 1.26-.9.432-.288.858-.576 1.278-.864a6.959 6.959 0 001.152-.954c.336-.36.606-.768.81-1.224.204-.456.306-1.002.306-1.638 0-.612-.12-1.164-.36-1.656a3.578 3.578 0 00-.936-1.242 4.225 4.225 0 00-1.386-.774 4.937 4.937 0 00-1.638-.27c-.756 0-1.428.132-2.016.396a3.804 3.804 0 00-1.44 1.08 4.566 4.566 0 00-.864 1.62 5.971 5.971 0 00-.252 1.998zm12.27 1.404v-.774c.012-.312.036-.63.072-.954a6.37 6.37 0 01.18-.954c.084-.324.198-.612.342-.864.156-.252.348-.456.576-.612.24-.156.534-.234.882-.234s.642.078.882.234c.24.156.438.36.594.612.156.252.27.54.342.864.084.312.144.63.18.954.048.324.072.642.072.954.012.3.018.558.018.774 0 .36-.012.798-.036 1.314a6.762 6.762 0 01-.234 1.476c-.12.468-.324.87-.612 1.206-.276.336-.678.504-1.206.504-.516 0-.912-.168-1.188-.504a3.273 3.273 0 01-.612-1.206 7.551 7.551 0 01-.216-1.476 28.98 28.98 0 01-.036-1.314zm-2.556 0c0 1.26.12 2.316.36 3.168.252.84.588 1.512 1.008 2.016.42.504.906.864 1.458 1.08a4.94 4.94 0 001.782.324c.636 0 1.23-.108 1.782-.324a3.57 3.57 0 001.476-1.08c.432-.504.768-1.176 1.008-2.016.252-.852.378-1.908.378-3.168 0-1.224-.126-2.25-.378-3.078-.24-.84-.576-1.512-1.008-2.016a3.57 3.57 0 00-1.476-1.08 4.847 4.847 0 00-1.782-.324 4.94 4.94 0 00-1.782.324c-.552.216-1.038.576-1.458 1.08-.42.504-.756 1.176-1.008 2.016-.24.828-.36 1.854-.36 3.078zm12.558 0v-.774c.012-.312.036-.63.072-.954a6.37 6.37 0 01.18-.954c.084-.324.198-.612.342-.864.156-.252.348-.456.576-.612.24-.156.534-.234.882-.234s.642.078.882.234c.24.156.438.36.594.612.156.252.27.54.342.864.084.312.144.63.18.954.048.324.072.642.072.954.012.3.018.558.018.774 0 .36-.012.798-.036 1.314a6.762 6.762 0 01-.234 1.476c-.12.468-.324.87-.612 1.206-.276.336-.678.504-1.206.504-.516 0-.912-.168-1.188-.504a3.273 3.273 0 01-.612-1.206 7.551 7.551 0 01-.216-1.476 28.98 28.98 0 01-.036-1.314zm-2.556 0c0 1.26.12 2.316.36 3.168.252.84.588 1.512 1.008 2.016.42.504.906.864 1.458 1.08a4.94 4.94 0 001.782.324c.636 0 1.23-.108 1.782-.324a3.57 3.57 0 001.476-1.08c.432-.504.768-1.176 1.008-2.016.252-.852.378-1.908.378-3.168 0-1.224-.126-2.25-.378-3.078-.24-.84-.576-1.512-1.008-2.016a3.57 3.57 0 00-1.476-1.08 4.847 4.847 0 00-1.782-.324 4.94 4.94 0 00-1.782.324c-.552.216-1.038.576-1.458 1.08-.42.504-.756 1.176-1.008 2.016-.24.828-.36 1.854-.36 3.078zm12.72-2.826c0-.288.048-.54.144-.756.108-.216.252-.396.432-.54.18-.144.384-.252.612-.324.24-.084.486-.126.738-.126.396 0 .714.06.954.18.252.12.444.27.576.45.144.18.24.372.288.576.048.192.072.372.072.54 0 .54-.18.954-.54 1.242-.36.276-.81.414-1.35.414-.516 0-.966-.138-1.35-.414-.384-.288-.576-.702-.576-1.242zm-2.322-.234c0 .624.156 1.17.468 1.638.312.468.774.786 1.386.954v.036c-.756.18-1.344.54-1.764 1.08-.408.54-.612 1.212-.612 2.016 0 .684.132 1.272.396 1.764.276.492.636.9 1.08 1.224.456.324.966.558 1.53.702.576.156 1.17.234 1.782.234.588 0 1.164-.078 1.728-.234a4.928 4.928 0 001.512-.738 3.604 3.604 0 001.062-1.224c.276-.492.414-1.074.414-1.746 0-.792-.204-1.458-.612-1.998-.408-.552-.99-.912-1.746-1.08v-.036c.612-.204 1.068-.54 1.368-1.008.312-.468.468-1.014.468-1.638 0-.312-.072-.66-.216-1.044a3.004 3.004 0 00-.72-1.098c-.324-.348-.756-.642-1.296-.882s-1.2-.36-1.98-.36c-.516 0-1.026.072-1.53.216-.504.144-.96.36-1.368.648-.396.288-.72.648-.972 1.08-.252.432-.378.93-.378 1.494zm2.034 5.598c0-.648.216-1.14.648-1.476.432-.348.96-.522 1.584-.522.3 0 .576.048.828.144.264.096.492.234.684.414.204.18.36.396.468.648.12.24.18.51.18.81 0 .312-.054.6-.162.864a1.932 1.932 0 01-.468.684c-.192.18-.42.324-.684.432a2.36 2.36 0 01-.846.144c-.3 0-.588-.048-.864-.144a2.396 2.396 0 01-.72-.432 2.306 2.306 0 01-.468-.684 2.107 2.107 0 01-.18-.882zm13.158-2.196v2.196h5.418v-2.196h-5.418zm12.628-6.84V326h2.646v-8.604h.036l5.346 8.604h2.826v-12.852h-2.646v8.622h-.036l-5.364-8.622h-2.808zm15.34 8.208c0-.372.036-.738.108-1.098a2.92 2.92 0 01.36-.954c.18-.276.414-.498.702-.666.288-.18.648-.27 1.08-.27.432 0 .792.09 1.08.27.3.168.534.39.702.666.18.276.306.594.378.954a5.585 5.585 0 010 2.196 2.888 2.888 0 01-.378.954 1.876 1.876 0 01-.702.666c-.288.168-.648.252-1.08.252-.432 0-.792-.084-1.08-.252a2.073 2.073 0 01-.702-.666 3.142 3.142 0 01-.36-.954 5.585 5.585 0 01-.108-1.098zm-2.556 0c0 .744.114 1.416.342 2.016.228.6.552 1.116.972 1.548.42.42.924.744 1.512.972.588.228 1.248.342 1.98.342s1.392-.114 1.98-.342c.6-.228 1.11-.552 1.53-.972.42-.432.744-.948.972-1.548.228-.6.342-1.272.342-2.016s-.114-1.416-.342-2.016a4.254 4.254 0 00-.972-1.548 4.164 4.164 0 00-1.53-.99c-.588-.24-1.248-.36-1.98-.36s-1.392.12-1.98.36a4.254 4.254 0 00-2.484 2.538c-.228.6-.342 1.272-.342 2.016zM290.631 326l2.934-9.306h-2.628l-1.71 6.3h-.036l-1.584-6.3h-2.484l-1.548 6.318h-.036l-1.71-6.318h-2.7l2.952 9.306h2.646l1.584-6.246h.036l1.656 6.246h2.628z" fill="#6394AB"/><path d="M193.956 295.172v-5.564h3.172c.468 0 .919.035 1.352.104a3 3 0 011.144.416c.329.191.589.468.78.832.208.364.312.841.312 1.43s-.104 1.066-.312 1.43c-.191.364-.451.65-.78.858a3.291 3.291 0 01-1.144.39 8.585 8.585 0 01-1.352.104h-3.172zm-4.082-8.736V305h4.082v-6.656h4.29c1.161 0 2.149-.165 2.964-.494.815-.347 1.473-.797 1.976-1.352a4.914 4.914 0 001.118-1.898 6.94 6.94 0 00.364-2.21c0-.763-.121-1.499-.364-2.21a4.914 4.914 0 00-1.118-1.898c-.503-.555-1.161-.997-1.976-1.326-.815-.347-1.803-.52-2.964-.52h-8.372zm17.342 0V305h4.082v-8.008h7.514V305h4.082v-18.564h-4.082v7.124h-7.514v-7.124h-4.082zm23.951 11.388l2.418-6.812h.052l2.34 6.812h-4.81zm.39-11.388L224.537 305h4.108l1.456-4.134h6.942l1.404 4.134h4.238l-6.942-18.564h-4.186zm15.511 12.402h-3.952c-.017 1.144.191 2.132.624 2.964a5.903 5.903 0 001.742 2.054 7.476 7.476 0 002.548 1.17c.971.26 1.968.39 2.99.39 1.266 0 2.375-.147 3.328-.442.971-.295 1.777-.702 2.418-1.222a5.188 5.188 0 001.482-1.898c.33-.728.494-1.517.494-2.366 0-1.04-.225-1.889-.676-2.548-.433-.676-.953-1.213-1.56-1.612a6.534 6.534 0 00-1.846-.858 14.487 14.487 0 00-1.43-.39 402.267 402.267 0 01-2.834-.728c-.71-.191-1.274-.381-1.69-.572-.398-.191-.667-.399-.806-.624-.138-.225-.208-.52-.208-.884 0-.399.087-.728.26-.988.174-.26.39-.477.65-.65.278-.173.581-.295.91-.364.33-.069.659-.104.988-.104.503 0 .962.043 1.378.13.434.087.815.234 1.144.442.33.208.59.494.78.858.208.364.33.823.364 1.378h3.952c0-1.075-.208-1.985-.624-2.73a5.158 5.158 0 00-1.638-1.872 6.782 6.782 0 00-2.392-1.04 11.236 11.236 0 00-2.782-.338c-.832 0-1.664.113-2.496.338a6.965 6.965 0 00-2.236 1.04 5.634 5.634 0 00-1.612 1.768c-.398.693-.598 1.517-.598 2.47 0 .849.156 1.577.468 2.184.33.589.754 1.083 1.274 1.482a7.28 7.28 0 001.768.988c.659.243 1.335.451 2.028.624a48.59 48.59 0 002.002.52c.659.156 1.248.338 1.768.546.52.208.936.468 1.248.78.33.312.494.719.494 1.222 0 .468-.121.858-.364 1.17a2.605 2.605 0 01-.91.702 4.382 4.382 0 01-1.17.364 9.462 9.462 0 01-1.17.078 6.647 6.647 0 01-1.56-.182 4.444 4.444 0 01-1.326-.598 3.144 3.144 0 01-.884-1.066c-.225-.433-.338-.962-.338-1.586zm14.103-12.402V305h14.092v-3.432h-10.01v-4.55h8.996v-3.172h-8.996v-3.978h9.802v-3.432h-13.884zm30.414 4.992v6.318h-4.784l4.706-6.318h.078zm0 9.36V305h3.51v-4.212h2.418v-3.042h-2.418V286.8h-3.302l-7.904 10.608v3.38h7.696z" fill="#FFB600"/><circle cx="321.5" cy="308.5" r="14.5" fill="#FFB600" stroke="#fff" stroke-width="4"/><g clip-path="url(#clip1)"><path d="M326.753 308.96c.053-.292.08-.596.08-.914 0-2.237-2.982-6.896-3.896-8.272L321.755 298l-1.183 1.774c-.04.053-.954 1.442-1.894 3.097-1.801 3.203-2.016 4.487-2.016 5.175 0 .344.041.675.108.993-1.035-.225-2.016-.371-2.634-.463l-2.136-.305.564 2.039c.43 1.562 1.586 5.294 2.902 6.446a4.18 4.18 0 002.755 1.019c.739 0 1.464-.185 2.109-.556v.768h2.822v-.741a4.288 4.288 0 002.176.608 4.151 4.151 0 002.943-1.204c1.236-1.218 2.15-5.03 2.486-6.605l.443-2.078-2.109.437c-.565.119-1.425.304-2.338.556zm-4.998-5.785c1.222 2.065 2.257 4.157 2.257 4.871 0 1.231-1.008 2.224-2.257 2.224-1.25 0-2.258-.993-2.258-2.224-.013-.714 1.021-2.819 2.258-4.871zm-2.526 11.384a1.37 1.37 0 01-1.895.119c-.309-.278-.846-1.496-1.37-2.965 1.545.317 2.821.701 3.157.966.551.49.605 1.337.108 1.88zm7.053.132a1.342 1.342 0 01-.954.384c-.362 0-.698-.133-.953-.384a1.298 1.298 0 01-.39-.94 1.3 1.3 0 01.39-.94c.309-.291 1.558-.741 3.09-1.164-.43 1.509-.9 2.739-1.183 3.044z" fill="#fff"/></g><path d="M49.873 76V63.4H47.84c-.072.48-.222.882-.45 1.206-.228.324-.51.588-.846.792a3.53 3.53 0 01-1.116.414 6.353 6.353 0 01-1.278.09v1.926h3.168V76h2.556zm7.806-6.066c-.324 0-.612-.066-.864-.198a1.977 1.977 0 01-.594-.54 2.745 2.745 0 01-.36-.756 3.623 3.623 0 01-.108-.882c0-.288.042-.57.126-.846.084-.276.21-.522.378-.738a1.97 1.97 0 01.612-.522c.24-.132.51-.198.81-.198.324 0 .612.066.864.198s.462.312.63.54c.18.216.312.468.396.756.096.276.144.558.144.846 0 .312-.042.612-.126.9-.084.276-.21.522-.378.738-.168.216-.378.39-.63.522-.252.12-.552.18-.9.18zm-1.836 2.826h-2.43c.072.552.222 1.044.45 1.476.228.432.522.798.882 1.098.36.3.774.522 1.242.666.468.156.972.234 1.512.234.9 0 1.662-.192 2.286-.576a4.9 4.9 0 001.53-1.53 6.937 6.937 0 00.864-2.124c.18-.78.27-1.56.27-2.34 0-.792-.072-1.578-.216-2.358a6.12 6.12 0 00-.774-2.088 4.242 4.242 0 00-1.494-1.494c-.612-.384-1.398-.576-2.358-.576-.66 0-1.26.12-1.8.36s-1.008.57-1.404.99a4.392 4.392 0 00-.9 1.458 5.154 5.154 0 00-.306 1.8c0 .504.078 1.002.234 1.494.156.492.402.93.738 1.314.36.396.798.714 1.314.954a3.883 3.883 0 001.584.342c.612 0 1.152-.108 1.62-.324.468-.216.876-.576 1.224-1.08l.036.036c-.024.348-.078.744-.162 1.188a4.942 4.942 0 01-.378 1.26 3.14 3.14 0 01-.72.99c-.3.264-.684.396-1.152.396-.444 0-.816-.156-1.116-.468a2.168 2.168 0 01-.576-1.098zm11.838-2.826c-.324 0-.612-.066-.864-.198a1.977 1.977 0 01-.594-.54 2.745 2.745 0 01-.36-.756 3.623 3.623 0 01-.108-.882c0-.288.042-.57.126-.846.084-.276.21-.522.378-.738a1.97 1.97 0 01.612-.522c.24-.132.51-.198.81-.198.324 0 .612.066.864.198s.462.312.63.54c.18.216.312.468.396.756.096.276.144.558.144.846 0 .312-.042.612-.126.9-.084.276-.21.522-.378.738-.168.216-.378.39-.63.522-.252.12-.552.18-.9.18zm-1.836 2.826h-2.43c.072.552.222 1.044.45 1.476.228.432.522.798.882 1.098.36.3.774.522 1.242.666.468.156.972.234 1.512.234.9 0 1.662-.192 2.286-.576a4.9 4.9 0 001.53-1.53 6.937 6.937 0 00.864-2.124c.18-.78.27-1.56.27-2.34 0-.792-.072-1.578-.216-2.358a6.12 6.12 0 00-.774-2.088 4.242 4.242 0 00-1.494-1.494c-.612-.384-1.398-.576-2.358-.576-.66 0-1.26.12-1.8.36s-1.008.57-1.404.99a4.392 4.392 0 00-.9 1.458 5.154 5.154 0 00-.306 1.8c0 .504.078 1.002.234 1.494.156.492.402.93.738 1.314.36.396.798.714 1.314.954a3.883 3.883 0 001.584.342c.612 0 1.152-.108 1.62-.324.468-.216.876-.576 1.224-1.08l.036.036c-.024.348-.078.744-.162 1.188a4.942 4.942 0 01-.378 1.26 3.14 3.14 0 01-.72.99c-.3.264-.684.396-1.152.396-.444 0-.816-.156-1.116-.468a2.168 2.168 0 01-.576-1.098zm11.082-4.266v1.8c.312 0 .636.012.972.036.348.012.666.078.954.198.288.108.522.288.702.54.192.252.288.618.288 1.098 0 .612-.198 1.098-.594 1.458-.396.348-.882.522-1.458.522a2.23 2.23 0 01-.972-.198 2.046 2.046 0 01-.666-.522 2.489 2.489 0 01-.414-.792 3.745 3.745 0 01-.162-.972h-2.43c-.012.732.09 1.38.306 1.944a4.14 4.14 0 00.954 1.44c.408.384.9.678 1.476.882a5.898 5.898 0 001.944.306c.612 0 1.2-.09 1.764-.27a4.571 4.571 0 001.494-.792c.432-.348.774-.78 1.026-1.296.264-.516.396-1.104.396-1.764 0-.72-.198-1.338-.594-1.854-.396-.516-.942-.852-1.638-1.008v-.036c.588-.168 1.026-.486 1.314-.954.3-.468.45-1.008.45-1.62 0-.564-.126-1.062-.378-1.494a3.605 3.605 0 00-.99-1.098 4.059 4.059 0 00-1.35-.666 5.09 5.09 0 00-1.512-.234c-.648 0-1.236.108-1.764.324a3.894 3.894 0 00-1.368.882 4.216 4.216 0 00-.882 1.386 5.424 5.424 0 00-.342 1.764h2.43c-.012-.648.144-1.182.468-1.602.336-.432.828-.648 1.476-.648.468 0 .882.144 1.242.432.36.288.54.702.54 1.242 0 .36-.09.648-.27.864-.168.216-.39.384-.666.504a2.844 2.844 0 01-.864.198 5.406 5.406 0 01-.882 0zm11.862 1.494v2.196h5.418v-2.196h-5.418zM107.231 76V63.4h-2.034c-.072.48-.222.882-.45 1.206-.228.324-.51.588-.846.792a3.53 3.53 0 01-1.116.414 6.353 6.353 0 01-1.278.09v1.926h3.168V76h2.556zm7.806-6.066c-.324 0-.612-.066-.864-.198a1.977 1.977 0 01-.594-.54 2.745 2.745 0 01-.36-.756 3.623 3.623 0 01-.108-.882c0-.288.042-.57.126-.846.084-.276.21-.522.378-.738a1.97 1.97 0 01.612-.522c.24-.132.51-.198.81-.198.324 0 .612.066.864.198s.462.312.63.54c.18.216.312.468.396.756.096.276.144.558.144.846 0 .312-.042.612-.126.9-.084.276-.21.522-.378.738-.168.216-.378.39-.63.522-.252.12-.552.18-.9.18zm-1.836 2.826h-2.43c.072.552.222 1.044.45 1.476.228.432.522.798.882 1.098.36.3.774.522 1.242.666.468.156.972.234 1.512.234.9 0 1.662-.192 2.286-.576a4.9 4.9 0 001.53-1.53 6.937 6.937 0 00.864-2.124c.18-.78.27-1.56.27-2.34 0-.792-.072-1.578-.216-2.358a6.12 6.12 0 00-.774-2.088 4.242 4.242 0 00-1.494-1.494c-.612-.384-1.398-.576-2.358-.576-.66 0-1.26.12-1.8.36s-1.008.57-1.404.99a4.392 4.392 0 00-.9 1.458 5.154 5.154 0 00-.306 1.8c0 .504.078 1.002.234 1.494.156.492.402.93.738 1.314.36.396.798.714 1.314.954a3.883 3.883 0 001.584.342c.612 0 1.152-.108 1.62-.324.468-.216.876-.576 1.224-1.08l.036.036c-.024.348-.078.744-.162 1.188a4.942 4.942 0 01-.378 1.26 3.14 3.14 0 01-.72.99c-.3.264-.684.396-1.152.396-.444 0-.816-.156-1.116-.468a2.168 2.168 0 01-.576-1.098zm11.838-2.826c-.324 0-.612-.066-.864-.198a1.977 1.977 0 01-.594-.54 2.745 2.745 0 01-.36-.756 3.623 3.623 0 01-.108-.882c0-.288.042-.57.126-.846.084-.276.21-.522.378-.738a1.97 1.97 0 01.612-.522c.24-.132.51-.198.81-.198.324 0 .612.066.864.198s.462.312.63.54c.18.216.312.468.396.756.096.276.144.558.144.846 0 .312-.042.612-.126.9-.084.276-.21.522-.378.738-.168.216-.378.39-.63.522-.252.12-.552.18-.9.18zm-1.836 2.826h-2.43c.072.552.222 1.044.45 1.476.228.432.522.798.882 1.098.36.3.774.522 1.242.666.468.156.972.234 1.512.234.9 0 1.662-.192 2.286-.576a4.9 4.9 0 001.53-1.53 6.937 6.937 0 00.864-2.124c.18-.78.27-1.56.27-2.34 0-.792-.072-1.578-.216-2.358a6.12 6.12 0 00-.774-2.088 4.242 4.242 0 00-1.494-1.494c-.612-.384-1.398-.576-2.358-.576-.66 0-1.26.12-1.8.36s-1.008.57-1.404.99a4.392 4.392 0 00-.9 1.458 5.154 5.154 0 00-.306 1.8c0 .504.078 1.002.234 1.494.156.492.402.93.738 1.314.36.396.798.714 1.314.954a3.883 3.883 0 001.584.342c.612 0 1.152-.108 1.62-.324.468-.216.876-.576 1.224-1.08l.036.036c-.024.348-.078.744-.162 1.188a4.942 4.942 0 01-.378 1.26 3.14 3.14 0 01-.72.99c-.3.264-.684.396-1.152.396-.444 0-.816-.156-1.116-.468a2.168 2.168 0 01-.576-1.098zm16.284-7.164V63.4h-8.604v2.376h5.976a19.528 19.528 0 00-2.916 4.788A17.335 17.335 0 00132.629 76h2.736c.012-.84.108-1.746.288-2.718.192-.972.456-1.932.792-2.88.348-.948.774-1.842 1.278-2.682a9.137 9.137 0 011.764-2.124z" fill="#6394AB"/><path d="M44.956 45.172v-5.564h3.172c.468 0 .919.035 1.352.104.433.07.815.208 1.144.416.33.19.59.468.78.832.208.364.312.84.312 1.43s-.104 1.066-.312 1.43c-.19.364-.45.65-.78.858-.33.19-.71.32-1.144.39-.433.07-.884.104-1.352.104h-3.172zm-4.082-8.736V55h4.082v-6.656h4.29c1.161 0 2.15-.165 2.964-.494.815-.347 1.473-.797 1.976-1.352a4.92 4.92 0 001.118-1.898 6.95 6.95 0 00.364-2.21c0-.763-.121-1.5-.364-2.21a4.92 4.92 0 00-1.118-1.898c-.503-.555-1.161-.997-1.976-1.326-.815-.347-1.803-.52-2.964-.52h-8.372zm17.342 0V55h4.082v-8.008h7.514V55h4.082V36.436h-4.082v7.124h-7.514v-7.124h-4.082zm23.951 11.388l2.418-6.812h.052l2.34 6.812h-4.81zm.39-11.388L75.537 55h4.108l1.456-4.134h6.942L89.447 55h4.238l-6.942-18.564h-4.186zm15.511 12.402h-3.952c-.017 1.144.19 2.132.624 2.964a5.898 5.898 0 001.742 2.054 7.456 7.456 0 002.548 1.17c.971.26 1.968.39 2.99.39 1.266 0 2.375-.147 3.328-.442.971-.295 1.777-.702 2.418-1.222a5.19 5.19 0 001.482-1.898c.33-.728.494-1.517.494-2.366 0-1.04-.225-1.89-.676-2.548-.433-.676-.953-1.213-1.56-1.612a6.55 6.55 0 00-1.846-.858c-.606-.19-1.083-.32-1.43-.39a402.267 402.267 0 01-2.834-.728c-.71-.19-1.274-.381-1.69-.572-.398-.19-.667-.399-.806-.624-.139-.225-.208-.52-.208-.884 0-.399.087-.728.26-.988.174-.26.39-.477.65-.65.277-.173.581-.295.91-.364.33-.07.659-.104.988-.104.503 0 .962.043 1.378.13.434.087.815.234 1.144.442.33.208.59.494.78.858.208.364.33.823.364 1.378h3.952c0-1.075-.208-1.985-.624-2.73a5.163 5.163 0 00-1.638-1.872 6.776 6.776 0 00-2.392-1.04 11.222 11.222 0 00-2.782-.338 9.51 9.51 0 00-2.496.338 6.968 6.968 0 00-2.236 1.04 5.63 5.63 0 00-1.612 1.768c-.398.693-.598 1.517-.598 2.47 0 .85.156 1.577.468 2.184.33.59.754 1.083 1.274 1.482s1.11.728 1.768.988c.659.243 1.335.45 2.028.624.676.19 1.344.364 2.002.52.659.156 1.248.338 1.768.546.52.208.936.468 1.248.78.33.312.494.72.494 1.222 0 .468-.121.858-.364 1.17a2.612 2.612 0 01-.91.702 4.382 4.382 0 01-1.17.364 9.462 9.462 0 01-1.17.078c-.537 0-1.057-.06-1.56-.182a4.427 4.427 0 01-1.326-.598 3.136 3.136 0 01-.884-1.066c-.225-.433-.338-.962-.338-1.586zm14.103-12.402V55h14.092v-3.432h-10.01v-4.55h8.996v-3.172h-8.996v-3.978h9.802v-3.432h-13.884zM144.665 55V36.8h-2.938c-.104.693-.321 1.274-.65 1.742-.33.468-.737.85-1.222 1.144a5.104 5.104 0 01-1.612.598 9.184 9.184 0 01-1.846.13v2.782h4.576V55h3.692z" fill="#6394AB" fill-opacity=".5"/><path d="M203.873 159v-12.6h-2.034c-.072.48-.222.882-.45 1.206-.228.324-.51.588-.846.792a3.53 3.53 0 01-1.116.414 6.353 6.353 0 01-1.278.09v1.926h3.168V159h2.556zm7.806-6.066c-.324 0-.612-.066-.864-.198a1.977 1.977 0 01-.594-.54 2.745 2.745 0 01-.36-.756 3.623 3.623 0 01-.108-.882c0-.288.042-.57.126-.846.084-.276.21-.522.378-.738a1.97 1.97 0 01.612-.522c.24-.132.51-.198.81-.198.324 0 .612.066.864.198s.462.312.63.54c.18.216.312.468.396.756.096.276.144.558.144.846 0 .312-.042.612-.126.9-.084.276-.21.522-.378.738-.168.216-.378.39-.63.522-.252.12-.552.18-.9.18zm-1.836 2.826h-2.43c.072.552.222 1.044.45 1.476.228.432.522.798.882 1.098.36.3.774.522 1.242.666.468.156.972.234 1.512.234.9 0 1.662-.192 2.286-.576a4.9 4.9 0 001.53-1.53 6.937 6.937 0 00.864-2.124c.18-.78.27-1.56.27-2.34 0-.792-.072-1.578-.216-2.358a6.12 6.12 0 00-.774-2.088 4.242 4.242 0 00-1.494-1.494c-.612-.384-1.398-.576-2.358-.576-.66 0-1.26.12-1.8.36s-1.008.57-1.404.99a4.392 4.392 0 00-.9 1.458 5.154 5.154 0 00-.306 1.8c0 .504.078 1.002.234 1.494.156.492.402.93.738 1.314.36.396.798.714 1.314.954a3.883 3.883 0 001.584.342c.612 0 1.152-.108 1.62-.324.468-.216.876-.576 1.224-1.08l.036.036c-.024.348-.078.744-.162 1.188a4.942 4.942 0 01-.378 1.26 3.14 3.14 0 01-.72.99c-.3.264-.684.396-1.152.396-.444 0-.816-.156-1.116-.468a2.168 2.168 0 01-.576-1.098zm11.838-2.826c-.324 0-.612-.066-.864-.198a1.977 1.977 0 01-.594-.54 2.745 2.745 0 01-.36-.756 3.623 3.623 0 01-.108-.882c0-.288.042-.57.126-.846.084-.276.21-.522.378-.738a1.97 1.97 0 01.612-.522c.24-.132.51-.198.81-.198.324 0 .612.066.864.198s.462.312.63.54c.18.216.312.468.396.756.096.276.144.558.144.846 0 .312-.042.612-.126.9-.084.276-.21.522-.378.738-.168.216-.378.39-.63.522-.252.12-.552.18-.9.18zm-1.836 2.826h-2.43c.072.552.222 1.044.45 1.476.228.432.522.798.882 1.098.36.3.774.522 1.242.666.468.156.972.234 1.512.234.9 0 1.662-.192 2.286-.576a4.9 4.9 0 001.53-1.53 6.937 6.937 0 00.864-2.124c.18-.78.27-1.56.27-2.34 0-.792-.072-1.578-.216-2.358a6.12 6.12 0 00-.774-2.088 4.242 4.242 0 00-1.494-1.494c-.612-.384-1.398-.576-2.358-.576-.66 0-1.26.12-1.8.36s-1.008.57-1.404.99a4.392 4.392 0 00-.9 1.458 5.154 5.154 0 00-.306 1.8c0 .504.078 1.002.234 1.494.156.492.402.93.738 1.314.36.396.798.714 1.314.954a3.883 3.883 0 001.584.342c.612 0 1.152-.108 1.62-.324.468-.216.876-.576 1.224-1.08l.036.036c-.024.348-.078.744-.162 1.188a4.942 4.942 0 01-.378 1.26 3.14 3.14 0 01-.72.99c-.3.264-.684.396-1.152.396-.444 0-.816-.156-1.116-.468a2.168 2.168 0 01-.576-1.098zm16.284-7.164V146.4h-8.604v2.376h5.976a19.528 19.528 0 00-2.916 4.788 17.335 17.335 0 00-1.314 5.436h2.736c.012-.84.108-1.746.288-2.718.192-.972.456-1.932.792-2.88.348-.948.774-1.842 1.278-2.682a9.137 9.137 0 011.764-2.124zm6.66 4.392v2.196h5.418v-2.196h-5.418zm12.052-1.746h2.448c0-.336.03-.672.09-1.008.072-.348.186-.66.342-.936a1.88 1.88 0 01.612-.684c.264-.18.582-.27.954-.27.552 0 1.002.174 1.35.522.36.336.54.81.54 1.422 0 .384-.09.726-.27 1.026-.168.3-.384.57-.648.81a5.92 5.92 0 01-.846.666c-.312.192-.606.384-.882.576-.54.372-1.056.738-1.548 1.098-.48.36-.9.756-1.26 1.188-.36.42-.648.9-.864 1.44-.204.54-.306 1.176-.306 1.908h9.252v-2.196h-5.958c.312-.432.672-.81 1.08-1.134.408-.324.828-.624 1.26-.9.432-.288.858-.576 1.278-.864a6.959 6.959 0 001.152-.954c.336-.36.606-.768.81-1.224.204-.456.306-1.002.306-1.638 0-.612-.12-1.164-.36-1.656a3.578 3.578 0 00-.936-1.242 4.225 4.225 0 00-1.386-.774 4.937 4.937 0 00-1.638-.27c-.756 0-1.428.132-2.016.396a3.804 3.804 0 00-1.44 1.08 4.566 4.566 0 00-.864 1.62 5.971 5.971 0 00-.252 1.998zm12.27 1.404v-.774c.012-.312.036-.63.072-.954a6.37 6.37 0 01.18-.954c.084-.324.198-.612.342-.864.156-.252.348-.456.576-.612.24-.156.534-.234.882-.234s.642.078.882.234c.24.156.438.36.594.612.156.252.27.54.342.864.084.312.144.63.18.954.048.324.072.642.072.954.012.3.018.558.018.774 0 .36-.012.798-.036 1.314a6.762 6.762 0 01-.234 1.476c-.12.468-.324.87-.612 1.206-.276.336-.678.504-1.206.504-.516 0-.912-.168-1.188-.504a3.273 3.273 0 01-.612-1.206 7.551 7.551 0 01-.216-1.476 28.98 28.98 0 01-.036-1.314zm-2.556 0c0 1.26.12 2.316.36 3.168.252.84.588 1.512 1.008 2.016.42.504.906.864 1.458 1.08a4.94 4.94 0 001.782.324c.636 0 1.23-.108 1.782-.324a3.57 3.57 0 001.476-1.08c.432-.504.768-1.176 1.008-2.016.252-.852.378-1.908.378-3.168 0-1.224-.126-2.25-.378-3.078-.24-.84-.576-1.512-1.008-2.016a3.57 3.57 0 00-1.476-1.08 4.847 4.847 0 00-1.782-.324 4.94 4.94 0 00-1.782.324c-.552.216-1.038.576-1.458 1.08-.42.504-.756 1.176-1.008 2.016-.24.828-.36 1.854-.36 3.078zm12.558 0v-.774c.012-.312.036-.63.072-.954a6.37 6.37 0 01.18-.954c.084-.324.198-.612.342-.864.156-.252.348-.456.576-.612.24-.156.534-.234.882-.234s.642.078.882.234c.24.156.438.36.594.612.156.252.27.54.342.864.084.312.144.63.18.954.048.324.072.642.072.954.012.3.018.558.018.774 0 .36-.012.798-.036 1.314a6.762 6.762 0 01-.234 1.476c-.12.468-.324.87-.612 1.206-.276.336-.678.504-1.206.504-.516 0-.912-.168-1.188-.504a3.273 3.273 0 01-.612-1.206 7.551 7.551 0 01-.216-1.476 28.98 28.98 0 01-.036-1.314zm-2.556 0c0 1.26.12 2.316.36 3.168.252.84.588 1.512 1.008 2.016.42.504.906.864 1.458 1.08a4.94 4.94 0 001.782.324c.636 0 1.23-.108 1.782-.324a3.57 3.57 0 001.476-1.08c.432-.504.768-1.176 1.008-2.016.252-.852.378-1.908.378-3.168 0-1.224-.126-2.25-.378-3.078-.24-.84-.576-1.512-1.008-2.016a3.57 3.57 0 00-1.476-1.08 4.847 4.847 0 00-1.782-.324 4.94 4.94 0 00-1.782.324c-.552.216-1.038.576-1.458 1.08-.42.504-.756 1.176-1.008 2.016-.24.828-.36 1.854-.36 3.078zm16.68 6.354v-12.6h-2.034c-.072.48-.222.882-.45 1.206-.228.324-.51.588-.846.792a3.53 3.53 0 01-1.116.414 6.353 6.353 0 01-1.278.09v1.926h3.168V159h2.556z" fill="#6394AB"/><path d="M193.956 128.172v-5.564h3.172c.468 0 .919.035 1.352.104a3 3 0 011.144.416c.329.191.589.468.78.832.208.364.312.841.312 1.43s-.104 1.066-.312 1.43c-.191.364-.451.65-.78.858a3.291 3.291 0 01-1.144.39 8.585 8.585 0 01-1.352.104h-3.172zm-4.082-8.736V138h4.082v-6.656h4.29c1.161 0 2.149-.165 2.964-.494.815-.347 1.473-.797 1.976-1.352a4.914 4.914 0 001.118-1.898 6.94 6.94 0 00.364-2.21c0-.763-.121-1.499-.364-2.21a4.914 4.914 0 00-1.118-1.898c-.503-.555-1.161-.997-1.976-1.326-.815-.347-1.803-.52-2.964-.52h-8.372zm17.342 0V138h4.082v-8.008h7.514V138h4.082v-18.564h-4.082v7.124h-7.514v-7.124h-4.082zm23.951 11.388l2.418-6.812h.052l2.34 6.812h-4.81zm.39-11.388L224.537 138h4.108l1.456-4.134h6.942l1.404 4.134h4.238l-6.942-18.564h-4.186zm15.511 12.402h-3.952c-.017 1.144.191 2.132.624 2.964a5.903 5.903 0 001.742 2.054 7.476 7.476 0 002.548 1.17c.971.26 1.968.39 2.99.39 1.266 0 2.375-.147 3.328-.442.971-.295 1.777-.702 2.418-1.222a5.188 5.188 0 001.482-1.898c.33-.728.494-1.517.494-2.366 0-1.04-.225-1.889-.676-2.548-.433-.676-.953-1.213-1.56-1.612a6.534 6.534 0 00-1.846-.858 14.487 14.487 0 00-1.43-.39 402.267 402.267 0 01-2.834-.728c-.71-.191-1.274-.381-1.69-.572-.398-.191-.667-.399-.806-.624-.138-.225-.208-.52-.208-.884 0-.399.087-.728.26-.988.174-.26.39-.477.65-.65.278-.173.581-.295.91-.364.33-.069.659-.104.988-.104.503 0 .962.043 1.378.13.434.087.815.234 1.144.442.33.208.59.494.78.858.208.364.33.823.364 1.378h3.952c0-1.075-.208-1.985-.624-2.73a5.158 5.158 0 00-1.638-1.872 6.782 6.782 0 00-2.392-1.04 11.236 11.236 0 00-2.782-.338c-.832 0-1.664.113-2.496.338a6.965 6.965 0 00-2.236 1.04 5.634 5.634 0 00-1.612 1.768c-.398.693-.598 1.517-.598 2.47 0 .849.156 1.577.468 2.184.33.589.754 1.083 1.274 1.482a7.28 7.28 0 001.768.988c.659.243 1.335.451 2.028.624a48.59 48.59 0 002.002.52c.659.156 1.248.338 1.768.546.52.208.936.468 1.248.78.33.312.494.719.494 1.222 0 .468-.121.858-.364 1.17a2.605 2.605 0 01-.91.702 4.382 4.382 0 01-1.17.364 9.462 9.462 0 01-1.17.078 6.647 6.647 0 01-1.56-.182 4.444 4.444 0 01-1.326-.598 3.144 3.144 0 01-.884-1.066c-.225-.433-.338-.962-.338-1.586zm14.103-12.402V138h14.092v-3.432h-10.01v-4.55h8.996v-3.172h-8.996v-3.978h9.802v-3.432h-13.884zm23.264 7.358h3.536c0-.485.043-.971.13-1.456a4.62 4.62 0 01.494-1.352c.225-.416.52-.745.884-.988.381-.26.84-.39 1.378-.39.797 0 1.447.251 1.95.754.52.485.78 1.17.78 2.054 0 .555-.13 1.049-.39 1.482a4.664 4.664 0 01-.936 1.17 8.587 8.587 0 01-1.222.962c-.451.277-.876.555-1.274.832a94.034 94.034 0 00-2.236 1.586c-.694.52-1.3 1.092-1.82 1.716-.52.607-.936 1.3-1.248 2.08-.295.78-.442 1.699-.442 2.756h13.364v-3.172h-8.606a8.2 8.2 0 011.56-1.638 21.814 21.814 0 011.82-1.3c.624-.416 1.239-.832 1.846-1.248a10.063 10.063 0 001.664-1.378 6.415 6.415 0 001.17-1.768c.294-.659.442-1.447.442-2.366 0-.884-.174-1.681-.52-2.392a5.17 5.17 0 00-1.352-1.794 6.115 6.115 0 00-2.002-1.118 7.135 7.135 0 00-2.366-.39c-1.092 0-2.063.191-2.912.572a5.489 5.489 0 00-2.08 1.56c-.555.659-.971 1.439-1.248 2.34-.278.884-.399 1.846-.364 2.886z" fill="#6394AB" fill-opacity=".5"/><path d="M43.483 234.242h2.448c0-.336.03-.672.09-1.008.072-.348.186-.66.342-.936a1.88 1.88 0 01.612-.684c.264-.18.582-.27.954-.27.552 0 1.002.174 1.35.522.36.336.54.81.54 1.422 0 .384-.09.726-.27 1.026-.168.3-.384.57-.648.81a5.92 5.92 0 01-.846.666c-.312.192-.606.384-.882.576-.54.372-1.056.738-1.548 1.098-.48.36-.9.756-1.26 1.188-.36.42-.648.9-.864 1.44-.204.54-.306 1.176-.306 1.908h9.252v-2.196H46.49c.312-.432.672-.81 1.08-1.134.408-.324.828-.624 1.26-.9.432-.288.858-.576 1.278-.864a6.959 6.959 0 001.152-.954c.336-.36.606-.768.81-1.224.204-.456.306-1.002.306-1.638 0-.612-.12-1.164-.36-1.656a3.578 3.578 0 00-.936-1.242 4.225 4.225 0 00-1.386-.774 4.937 4.937 0 00-1.638-.27c-.756 0-1.428.132-2.016.396a3.804 3.804 0 00-1.44 1.08 4.566 4.566 0 00-.864 1.62 5.971 5.971 0 00-.252 1.998zm12.27 1.404v-.774c.012-.312.036-.63.072-.954a6.37 6.37 0 01.18-.954c.084-.324.198-.612.342-.864.156-.252.348-.456.576-.612.24-.156.534-.234.882-.234s.642.078.882.234c.24.156.438.36.594.612.156.252.27.54.342.864.084.312.144.63.18.954.048.324.072.642.072.954.012.3.018.558.018.774 0 .36-.012.798-.036 1.314a6.762 6.762 0 01-.234 1.476c-.12.468-.324.87-.612 1.206-.276.336-.678.504-1.206.504-.516 0-.912-.168-1.188-.504a3.273 3.273 0 01-.612-1.206 7.551 7.551 0 01-.216-1.476 28.98 28.98 0 01-.036-1.314zm-2.556 0c0 1.26.12 2.316.36 3.168.252.84.588 1.512 1.008 2.016.42.504.906.864 1.458 1.08a4.94 4.94 0 001.782.324c.636 0 1.23-.108 1.782-.324a3.57 3.57 0 001.476-1.08c.432-.504.768-1.176 1.008-2.016.252-.852.378-1.908.378-3.168 0-1.224-.126-2.25-.378-3.078-.24-.84-.576-1.512-1.008-2.016a3.57 3.57 0 00-1.476-1.08 4.847 4.847 0 00-1.782-.324 4.94 4.94 0 00-1.782.324c-.552.216-1.038.576-1.458 1.08-.42.504-.756 1.176-1.008 2.016-.24.828-.36 1.854-.36 3.078zm12.558 0v-.774c.012-.312.036-.63.072-.954a6.37 6.37 0 01.18-.954c.084-.324.198-.612.342-.864.156-.252.348-.456.576-.612.24-.156.534-.234.882-.234s.642.078.882.234c.24.156.438.36.594.612.156.252.27.54.342.864.084.312.144.63.18.954.048.324.072.642.072.954.012.3.018.558.018.774 0 .36-.012.798-.036 1.314a6.762 6.762 0 01-.234 1.476c-.12.468-.324.87-.612 1.206-.276.336-.678.504-1.206.504-.516 0-.912-.168-1.188-.504a3.273 3.273 0 01-.612-1.206 7.551 7.551 0 01-.216-1.476 28.98 28.98 0 01-.036-1.314zm-2.556 0c0 1.26.12 2.316.36 3.168.252.84.588 1.512 1.008 2.016.42.504.906.864 1.458 1.08a4.94 4.94 0 001.782.324c.636 0 1.23-.108 1.782-.324a3.57 3.57 0 001.476-1.08c.432-.504.768-1.176 1.008-2.016.252-.852.378-1.908.378-3.168 0-1.224-.126-2.25-.378-3.078-.24-.84-.576-1.512-1.008-2.016a3.57 3.57 0 00-1.476-1.08 4.847 4.847 0 00-1.782-.324 4.94 4.94 0 00-1.782.324c-.552.216-1.038.576-1.458 1.08-.42.504-.756 1.176-1.008 2.016-.24.828-.36 1.854-.36 3.078zm10.29-1.404h2.448c0-.336.03-.672.09-1.008.072-.348.186-.66.342-.936a1.88 1.88 0 01.612-.684c.264-.18.582-.27.954-.27.552 0 1.002.174 1.35.522.36.336.54.81.54 1.422 0 .384-.09.726-.27 1.026-.168.3-.384.57-.648.81a5.92 5.92 0 01-.846.666c-.312.192-.606.384-.882.576-.54.372-1.056.738-1.548 1.098-.48.36-.9.756-1.26 1.188-.36.42-.648.9-.864 1.44-.204.54-.306 1.176-.306 1.908h9.252v-2.196h-5.958c.312-.432.672-.81 1.08-1.134.408-.324.828-.624 1.26-.9.432-.288.858-.576 1.278-.864a6.959 6.959 0 001.152-.954c.336-.36.606-.768.81-1.224.204-.456.306-1.002.306-1.638 0-.612-.12-1.164-.36-1.656a3.578 3.578 0 00-.936-1.242 4.225 4.225 0 00-1.386-.774 4.937 4.937 0 00-1.638-.27c-.756 0-1.428.132-2.016.396a3.804 3.804 0 00-1.44 1.08 4.566 4.566 0 00-.864 1.62 5.971 5.971 0 00-.252 1.998zm15.3 1.746v2.196h5.418v-2.196h-5.418zm12.052-1.746h2.448c0-.336.03-.672.09-1.008.072-.348.186-.66.342-.936a1.88 1.88 0 01.612-.684c.264-.18.582-.27.954-.27.552 0 1.002.174 1.35.522.36.336.54.81.54 1.422 0 .384-.09.726-.27 1.026-.168.3-.384.57-.648.81a5.92 5.92 0 01-.846.666c-.312.192-.606.384-.882.576-.54.372-1.056.738-1.548 1.098-.48.36-.9.756-1.26 1.188-.36.42-.648.9-.864 1.44-.204.54-.306 1.176-.306 1.908h9.252v-2.196h-5.958c.312-.432.672-.81 1.08-1.134.408-.324.828-.624 1.26-.9.432-.288.858-.576 1.278-.864a6.959 6.959 0 001.152-.954c.336-.36.606-.768.81-1.224.204-.456.306-1.002.306-1.638 0-.612-.12-1.164-.36-1.656a3.578 3.578 0 00-.936-1.242 4.225 4.225 0 00-1.386-.774 4.937 4.937 0 00-1.638-.27c-.756 0-1.428.132-2.016.396a3.804 3.804 0 00-1.44 1.08 4.566 4.566 0 00-.864 1.62 5.971 5.971 0 00-.252 1.998zm12.27 1.404v-.774c.012-.312.036-.63.072-.954a6.37 6.37 0 01.18-.954c.084-.324.198-.612.342-.864.156-.252.348-.456.576-.612.24-.156.534-.234.882-.234s.642.078.882.234c.24.156.438.36.594.612.156.252.27.54.342.864.084.312.144.63.18.954.048.324.072.642.072.954.012.3.018.558.018.774 0 .36-.012.798-.036 1.314a6.762 6.762 0 01-.234 1.476c-.12.468-.324.87-.612 1.206-.276.336-.678.504-1.206.504-.516 0-.912-.168-1.188-.504a3.273 3.273 0 01-.612-1.206 7.551 7.551 0 01-.216-1.476 28.98 28.98 0 01-.036-1.314zm-2.556 0c0 1.26.12 2.316.36 3.168.252.84.588 1.512 1.008 2.016.42.504.906.864 1.458 1.08a4.94 4.94 0 001.782.324c.636 0 1.23-.108 1.782-.324a3.57 3.57 0 001.476-1.08c.432-.504.768-1.176 1.008-2.016.252-.852.378-1.908.378-3.168 0-1.224-.126-2.25-.378-3.078-.24-.84-.576-1.512-1.008-2.016a3.57 3.57 0 00-1.476-1.08 4.847 4.847 0 00-1.782-.324 4.94 4.94 0 00-1.782.324c-.552.216-1.038.576-1.458 1.08-.42.504-.756 1.176-1.008 2.016-.24.828-.36 1.854-.36 3.078zm12.558 0v-.774c.012-.312.036-.63.072-.954a6.37 6.37 0 01.18-.954c.084-.324.198-.612.342-.864.156-.252.348-.456.576-.612.24-.156.534-.234.882-.234s.642.078.882.234c.24.156.438.36.594.612.156.252.27.54.342.864.084.312.144.63.18.954.048.324.072.642.072.954.012.3.018.558.018.774 0 .36-.012.798-.036 1.314a6.762 6.762 0 01-.234 1.476c-.12.468-.324.87-.612 1.206-.276.336-.678.504-1.206.504-.516 0-.912-.168-1.188-.504a3.273 3.273 0 01-.612-1.206 7.551 7.551 0 01-.216-1.476 28.98 28.98 0 01-.036-1.314zm-2.556 0c0 1.26.12 2.316.36 3.168.252.84.588 1.512 1.008 2.016.42.504.906.864 1.458 1.08a4.94 4.94 0 001.782.324c.636 0 1.23-.108 1.782-.324a3.57 3.57 0 001.476-1.08c.432-.504.768-1.176 1.008-2.016.252-.852.378-1.908.378-3.168 0-1.224-.126-2.25-.378-3.078-.24-.84-.576-1.512-1.008-2.016a3.57 3.57 0 00-1.476-1.08 4.847 4.847 0 00-1.782-.324 4.94 4.94 0 00-1.782.324c-.552.216-1.038.576-1.458 1.08-.42.504-.756 1.176-1.008 2.016-.24.828-.36 1.854-.36 3.078zm12.72-2.826c0-.288.048-.54.144-.756.108-.216.252-.396.432-.54.18-.144.384-.252.612-.324.24-.084.486-.126.738-.126.396 0 .714.06.954.18.252.12.444.27.576.45.144.18.24.372.288.576.048.192.072.372.072.54 0 .54-.18.954-.54 1.242-.36.276-.81.414-1.35.414-.516 0-.966-.138-1.35-.414-.384-.288-.576-.702-.576-1.242zm-2.322-.234c0 .624.156 1.17.468 1.638.312.468.774.786 1.386.954v.036c-.756.18-1.344.54-1.764 1.08-.408.54-.612 1.212-.612 2.016 0 .684.132 1.272.396 1.764.276.492.636.9 1.08 1.224.456.324.966.558 1.53.702.576.156 1.17.234 1.782.234.588 0 1.164-.078 1.728-.234a4.928 4.928 0 001.512-.738 3.604 3.604 0 001.062-1.224c.276-.492.414-1.074.414-1.746 0-.792-.204-1.458-.612-1.998-.408-.552-.99-.912-1.746-1.08v-.036c.612-.204 1.068-.54 1.368-1.008.312-.468.468-1.014.468-1.638 0-.312-.072-.66-.216-1.044a3.004 3.004 0 00-.72-1.098c-.324-.348-.756-.642-1.296-.882s-1.2-.36-1.98-.36c-.516 0-1.026.072-1.53.216-.504.144-.96.36-1.368.648-.396.288-.72.648-.972 1.08-.252.432-.378.93-.378 1.494zm2.034 5.598c0-.648.216-1.14.648-1.476.432-.348.96-.522 1.584-.522.3 0 .576.048.828.144.264.096.492.234.684.414.204.18.36.396.468.648.12.24.18.51.18.81 0 .312-.054.6-.162.864a1.932 1.932 0 01-.468.684c-.192.18-.42.324-.684.432a2.36 2.36 0 01-.846.144c-.3 0-.588-.048-.864-.144a2.396 2.396 0 01-.72-.432 2.306 2.306 0 01-.468-.684 2.107 2.107 0 01-.18-.882z" fill="#6394AB"/><circle cx="323.5" cy="138.5" r="9.5" fill="#FFB600" stroke="#fff" stroke-width="4"/><circle cx="13.5" cy="54.5" r="9.5" fill="#FFB600" stroke="#fff" stroke-width="4"/><circle cx="13.5" cy="221.5" r="9.5" fill="#FFB600" stroke="#fff" stroke-width="4"/></g><defs><clipPath id="clip0"><path fill="#fff" d="M0 0h335v360H0z"/></clipPath><clipPath id="clip1"/></defs></svg>