<svg width="335" height="360" viewBox="0 0 335 360" fill="none" xmlns="http://www.w3.org/2000/svg">
<g clip-path="url(#clip0)">
<rect width="335" height="360" fill="white"/>
<path d="M323.922 304.497C323.922 281.67 305.409 262.99 282.731 262.99H53.1916C30.5136 262.99 12 244.309 12 221.482C12 198.656 30.5136 179.975 53.1916 179.975H167.961H282.731C305.409 179.975 323.922 161.294 323.922 138.468C323.922 115.641 305.409 96.9604 282.731 96.9604H53.1916C30.5136 96.9604 12 78.2796 12 55.4531" stroke="#6394AB" stroke-opacity="0.5" stroke-width="8" stroke-miterlimit="10"/>
<path d="M12.0645 55.5032C12.0645 32.6767 30.5781 14.0459 53.256 14.0459H282.795" stroke="#6394AB" stroke-opacity="0.5" stroke-width="8" stroke-miterlimit="10" stroke-dasharray="20 10"/>
<path d="M53.2559 346.004H282.795C305.473 346.004 323.986 327.323 323.986 304.496" stroke="#6394AB" stroke-opacity="0.5" stroke-width="8" stroke-miterlimit="10" stroke-dasharray="20 10"/>
<path d="M44.9561 208.172V202.608H48.1281C48.5961 202.608 49.0467 202.643 49.4801 202.712C49.9134 202.781 50.2947 202.92 50.6241 203.128C50.9534 203.319 51.2134 203.596 51.4041 203.96C51.6121 204.324 51.7161 204.801 51.7161 205.39C51.7161 205.979 51.6121 206.456 51.4041 206.82C51.2134 207.184 50.9534 207.47 50.6241 207.678C50.2947 207.869 49.9134 207.999 49.4801 208.068C49.0467 208.137 48.5961 208.172 48.1281 208.172H44.9561ZM40.8741 199.436V218H44.9561V211.344H49.2461C50.4074 211.344 51.3954 211.179 52.2101 210.85C53.0247 210.503 53.6834 210.053 54.1861 209.498C54.7061 208.943 55.0787 208.311 55.3041 207.6C55.5467 206.872 55.6681 206.135 55.6681 205.39C55.6681 204.627 55.5467 203.891 55.3041 203.18C55.0787 202.469 54.7061 201.837 54.1861 201.282C53.6834 200.727 53.0247 200.285 52.2101 199.956C51.3954 199.609 50.4074 199.436 49.2461 199.436H40.8741ZM58.2159 199.436V218H62.2979V209.992H69.8119V218H73.8939V199.436H69.8119V206.56H62.2979V199.436H58.2159ZM82.1674 210.824L84.5854 204.012H84.6374L86.9774 210.824H82.1674ZM82.5574 199.436L75.5374 218H79.6454L81.1014 213.866H88.0434L89.4474 218H93.6854L86.7434 199.436H82.5574ZM98.0682 211.838H94.1162C94.0989 212.982 94.3069 213.97 94.7402 214.802C95.1735 215.634 95.7542 216.319 96.4822 216.856C97.2275 217.393 98.0769 217.783 99.0302 218.026C100.001 218.286 100.998 218.416 102.02 218.416C103.286 218.416 104.395 218.269 105.348 217.974C106.319 217.679 107.125 217.272 107.766 216.752C108.425 216.215 108.919 215.582 109.248 214.854C109.578 214.126 109.742 213.337 109.742 212.488C109.742 211.448 109.517 210.599 109.066 209.94C108.633 209.264 108.113 208.727 107.506 208.328C106.9 207.929 106.284 207.643 105.66 207.47C105.054 207.279 104.577 207.149 104.23 207.08C103.069 206.785 102.124 206.543 101.396 206.352C100.686 206.161 100.122 205.971 99.7062 205.78C99.3075 205.589 99.0389 205.381 98.9002 205.156C98.7615 204.931 98.6922 204.636 98.6922 204.272C98.6922 203.873 98.7789 203.544 98.9522 203.284C99.1255 203.024 99.3422 202.807 99.6022 202.634C99.8795 202.461 100.183 202.339 100.512 202.27C100.842 202.201 101.171 202.166 101.5 202.166C102.003 202.166 102.462 202.209 102.878 202.296C103.312 202.383 103.693 202.53 104.022 202.738C104.352 202.946 104.612 203.232 104.802 203.596C105.01 203.96 105.132 204.419 105.166 204.974H109.118C109.118 203.899 108.91 202.989 108.494 202.244C108.096 201.481 107.55 200.857 106.856 200.372C106.163 199.887 105.366 199.54 104.464 199.332C103.58 199.107 102.653 198.994 101.682 198.994C100.85 198.994 100.018 199.107 99.1862 199.332C98.3542 199.557 97.6089 199.904 96.9502 200.372C96.2915 200.84 95.7542 201.429 95.3382 202.14C94.9395 202.833 94.7402 203.657 94.7402 204.61C94.7402 205.459 94.8962 206.187 95.2082 206.794C95.5375 207.383 95.9622 207.877 96.4822 208.276C97.0022 208.675 97.5915 209.004 98.2502 209.264C98.9089 209.507 99.5849 209.715 100.278 209.888C100.954 210.079 101.622 210.252 102.28 210.408C102.939 210.564 103.528 210.746 104.048 210.954C104.568 211.162 104.984 211.422 105.296 211.734C105.626 212.046 105.79 212.453 105.79 212.956C105.79 213.424 105.669 213.814 105.426 214.126C105.184 214.421 104.88 214.655 104.516 214.828C104.152 215.001 103.762 215.123 103.346 215.192C102.93 215.244 102.54 215.27 102.176 215.27C101.639 215.27 101.119 215.209 100.616 215.088C100.114 214.949 99.6715 214.75 99.2902 214.49C98.9262 214.213 98.6315 213.857 98.4062 213.424C98.1809 212.991 98.0682 212.462 98.0682 211.838ZM112.171 199.436V218H126.263V214.568H116.253V210.018H125.249V206.846H116.253V202.868H126.055V199.436H112.171ZM140.401 207.158V209.758C140.851 209.758 141.319 209.775 141.805 209.81C142.307 209.827 142.767 209.923 143.183 210.096C143.599 210.252 143.937 210.512 144.197 210.876C144.474 211.24 144.613 211.769 144.613 212.462C144.613 213.346 144.327 214.048 143.755 214.568C143.183 215.071 142.481 215.322 141.649 215.322C141.111 215.322 140.643 215.227 140.245 215.036C139.863 214.845 139.543 214.594 139.283 214.282C139.023 213.953 138.823 213.571 138.685 213.138C138.546 212.687 138.468 212.219 138.451 211.734H134.941C134.923 212.791 135.071 213.727 135.383 214.542C135.712 215.357 136.171 216.05 136.761 216.622C137.35 217.177 138.061 217.601 138.893 217.896C139.742 218.191 140.678 218.338 141.701 218.338C142.585 218.338 143.434 218.208 144.249 217.948C145.063 217.688 145.783 217.307 146.407 216.804C147.031 216.301 147.525 215.677 147.889 214.932C148.27 214.187 148.461 213.337 148.461 212.384C148.461 211.344 148.175 210.451 147.603 209.706C147.031 208.961 146.242 208.475 145.237 208.25V208.198C146.086 207.955 146.719 207.496 147.135 206.82C147.568 206.144 147.785 205.364 147.785 204.48C147.785 203.665 147.603 202.946 147.239 202.322C146.875 201.698 146.398 201.169 145.809 200.736C145.237 200.303 144.587 199.982 143.859 199.774C143.131 199.549 142.403 199.436 141.675 199.436C140.739 199.436 139.889 199.592 139.127 199.904C138.364 200.199 137.705 200.623 137.151 201.178C136.613 201.733 136.189 202.4 135.877 203.18C135.582 203.943 135.417 204.792 135.383 205.728H138.893C138.875 204.792 139.101 204.021 139.569 203.414C140.054 202.79 140.765 202.478 141.701 202.478C142.377 202.478 142.975 202.686 143.495 203.102C144.015 203.518 144.275 204.116 144.275 204.896C144.275 205.416 144.145 205.832 143.885 206.144C143.642 206.456 143.321 206.699 142.923 206.872C142.541 207.028 142.125 207.123 141.675 207.158C141.224 207.193 140.799 207.193 140.401 207.158Z" fill="#6394AB" fill-opacity="0.5"/>
<path d="M197.984 318.242H200.432C200.432 317.906 200.462 317.57 200.522 317.234C200.594 316.886 200.708 316.574 200.864 316.298C201.02 316.01 201.224 315.782 201.476 315.614C201.74 315.434 202.058 315.344 202.43 315.344C202.982 315.344 203.432 315.518 203.78 315.866C204.14 316.202 204.32 316.676 204.32 317.288C204.32 317.672 204.23 318.014 204.05 318.314C203.882 318.614 203.666 318.884 203.402 319.124C203.15 319.364 202.868 319.586 202.556 319.79C202.244 319.982 201.95 320.174 201.674 320.366C201.134 320.738 200.618 321.104 200.126 321.464C199.646 321.824 199.226 322.22 198.866 322.652C198.506 323.072 198.218 323.552 198.002 324.092C197.798 324.632 197.696 325.268 197.696 326H206.948V323.804H200.99C201.302 323.372 201.662 322.994 202.07 322.67C202.478 322.346 202.898 322.046 203.33 321.77C203.762 321.482 204.188 321.194 204.608 320.906C205.04 320.618 205.424 320.3 205.76 319.952C206.096 319.592 206.366 319.184 206.57 318.728C206.774 318.272 206.876 317.726 206.876 317.09C206.876 316.478 206.756 315.926 206.516 315.434C206.288 314.942 205.976 314.528 205.58 314.192C205.184 313.856 204.722 313.598 204.194 313.418C203.678 313.238 203.132 313.148 202.556 313.148C201.8 313.148 201.128 313.28 200.54 313.544C199.964 313.796 199.484 314.156 199.1 314.624C198.716 315.08 198.428 315.62 198.236 316.244C198.044 316.856 197.96 317.522 197.984 318.242ZM210.254 319.646C210.254 319.43 210.254 319.172 210.254 318.872C210.266 318.56 210.29 318.242 210.326 317.918C210.362 317.594 210.422 317.276 210.506 316.964C210.59 316.64 210.704 316.352 210.848 316.1C211.004 315.848 211.196 315.644 211.424 315.488C211.664 315.332 211.958 315.254 212.306 315.254C212.654 315.254 212.948 315.332 213.188 315.488C213.428 315.644 213.626 315.848 213.782 316.1C213.938 316.352 214.052 316.64 214.124 316.964C214.208 317.276 214.268 317.594 214.304 317.918C214.352 318.242 214.376 318.56 214.376 318.872C214.388 319.172 214.394 319.43 214.394 319.646C214.394 320.006 214.382 320.444 214.358 320.96C214.334 321.464 214.256 321.956 214.124 322.436C214.004 322.904 213.8 323.306 213.512 323.642C213.236 323.978 212.834 324.146 212.306 324.146C211.79 324.146 211.394 323.978 211.118 323.642C210.842 323.306 210.638 322.904 210.506 322.436C210.386 321.956 210.314 321.464 210.29 320.96C210.266 320.444 210.254 320.006 210.254 319.646ZM207.698 319.646C207.698 320.906 207.818 321.962 208.058 322.814C208.31 323.654 208.646 324.326 209.066 324.83C209.486 325.334 209.972 325.694 210.524 325.91C211.088 326.126 211.682 326.234 212.306 326.234C212.942 326.234 213.536 326.126 214.088 325.91C214.652 325.694 215.144 325.334 215.564 324.83C215.996 324.326 216.332 323.654 216.572 322.814C216.824 321.962 216.95 320.906 216.95 319.646C216.95 318.422 216.824 317.396 216.572 316.568C216.332 315.728 215.996 315.056 215.564 314.552C215.144 314.048 214.652 313.688 214.088 313.472C213.536 313.256 212.942 313.148 212.306 313.148C211.682 313.148 211.088 313.256 210.524 313.472C209.972 313.688 209.486 314.048 209.066 314.552C208.646 315.056 208.31 315.728 208.058 316.568C207.818 317.396 207.698 318.422 207.698 319.646ZM220.256 319.646C220.256 319.43 220.256 319.172 220.256 318.872C220.268 318.56 220.292 318.242 220.328 317.918C220.364 317.594 220.424 317.276 220.508 316.964C220.592 316.64 220.706 316.352 220.85 316.1C221.006 315.848 221.198 315.644 221.426 315.488C221.666 315.332 221.96 315.254 222.308 315.254C222.656 315.254 222.95 315.332 223.19 315.488C223.43 315.644 223.628 315.848 223.784 316.1C223.94 316.352 224.054 316.64 224.126 316.964C224.21 317.276 224.27 317.594 224.306 317.918C224.354 318.242 224.378 318.56 224.378 318.872C224.39 319.172 224.396 319.43 224.396 319.646C224.396 320.006 224.384 320.444 224.36 320.96C224.336 321.464 224.258 321.956 224.126 322.436C224.006 322.904 223.802 323.306 223.514 323.642C223.238 323.978 222.836 324.146 222.308 324.146C221.792 324.146 221.396 323.978 221.12 323.642C220.844 323.306 220.64 322.904 220.508 322.436C220.388 321.956 220.316 321.464 220.292 320.96C220.268 320.444 220.256 320.006 220.256 319.646ZM217.7 319.646C217.7 320.906 217.82 321.962 218.06 322.814C218.312 323.654 218.648 324.326 219.068 324.83C219.488 325.334 219.974 325.694 220.526 325.91C221.09 326.126 221.684 326.234 222.308 326.234C222.944 326.234 223.538 326.126 224.09 325.91C224.654 325.694 225.146 325.334 225.566 324.83C225.998 324.326 226.334 323.654 226.574 322.814C226.826 321.962 226.952 320.906 226.952 319.646C226.952 318.422 226.826 317.396 226.574 316.568C226.334 315.728 225.998 315.056 225.566 314.552C225.146 314.048 224.654 313.688 224.09 313.472C223.538 313.256 222.944 313.148 222.308 313.148C221.684 313.148 221.09 313.256 220.526 313.472C219.974 313.688 219.488 314.048 219.068 314.552C218.648 315.056 218.312 315.728 218.06 316.568C217.82 317.396 217.7 318.422 217.7 319.646ZM230.42 316.82C230.42 316.532 230.468 316.28 230.564 316.064C230.672 315.848 230.816 315.668 230.996 315.524C231.176 315.38 231.38 315.272 231.608 315.2C231.848 315.116 232.094 315.074 232.346 315.074C232.742 315.074 233.06 315.134 233.3 315.254C233.552 315.374 233.744 315.524 233.876 315.704C234.02 315.884 234.116 316.076 234.164 316.28C234.212 316.472 234.236 316.652 234.236 316.82C234.236 317.36 234.056 317.774 233.696 318.062C233.336 318.338 232.886 318.476 232.346 318.476C231.83 318.476 231.38 318.338 230.996 318.062C230.612 317.774 230.42 317.36 230.42 316.82ZM228.098 316.586C228.098 317.21 228.254 317.756 228.566 318.224C228.878 318.692 229.34 319.01 229.952 319.178V319.214C229.196 319.394 228.608 319.754 228.188 320.294C227.78 320.834 227.576 321.506 227.576 322.31C227.576 322.994 227.708 323.582 227.972 324.074C228.248 324.566 228.608 324.974 229.052 325.298C229.508 325.622 230.018 325.856 230.582 326C231.158 326.156 231.752 326.234 232.364 326.234C232.952 326.234 233.528 326.156 234.092 326C234.656 325.832 235.16 325.586 235.604 325.262C236.048 324.938 236.402 324.53 236.666 324.038C236.942 323.546 237.08 322.964 237.08 322.292C237.08 321.5 236.876 320.834 236.468 320.294C236.06 319.742 235.478 319.382 234.722 319.214V319.178C235.334 318.974 235.79 318.638 236.09 318.17C236.402 317.702 236.558 317.156 236.558 316.532C236.558 316.22 236.486 315.872 236.342 315.488C236.198 315.092 235.958 314.726 235.622 314.39C235.298 314.042 234.866 313.748 234.326 313.508C233.786 313.268 233.126 313.148 232.346 313.148C231.83 313.148 231.32 313.22 230.816 313.364C230.312 313.508 229.856 313.724 229.448 314.012C229.052 314.3 228.728 314.66 228.476 315.092C228.224 315.524 228.098 316.022 228.098 316.586ZM230.132 322.184C230.132 321.536 230.348 321.044 230.78 320.708C231.212 320.36 231.74 320.186 232.364 320.186C232.664 320.186 232.94 320.234 233.192 320.33C233.456 320.426 233.684 320.564 233.876 320.744C234.08 320.924 234.236 321.14 234.344 321.392C234.464 321.632 234.524 321.902 234.524 322.202C234.524 322.514 234.47 322.802 234.362 323.066C234.254 323.33 234.098 323.558 233.894 323.75C233.702 323.93 233.474 324.074 233.21 324.182C232.958 324.278 232.676 324.326 232.364 324.326C232.064 324.326 231.776 324.278 231.5 324.182C231.224 324.074 230.984 323.93 230.78 323.75C230.588 323.558 230.432 323.33 230.312 323.066C230.192 322.802 230.132 322.508 230.132 322.184ZM243.29 319.988V322.184H248.708V319.988H243.29ZM255.918 313.148V326H258.564V317.396H258.6L263.946 326H266.772V313.148H264.126V321.77H264.09L258.726 313.148H255.918ZM271.258 321.356C271.258 320.984 271.294 320.618 271.366 320.258C271.438 319.898 271.558 319.58 271.726 319.304C271.906 319.028 272.14 318.806 272.428 318.638C272.716 318.458 273.076 318.368 273.508 318.368C273.94 318.368 274.3 318.458 274.588 318.638C274.888 318.806 275.122 319.028 275.29 319.304C275.47 319.58 275.596 319.898 275.668 320.258C275.74 320.618 275.776 320.984 275.776 321.356C275.776 321.728 275.74 322.094 275.668 322.454C275.596 322.802 275.47 323.12 275.29 323.408C275.122 323.684 274.888 323.906 274.588 324.074C274.3 324.242 273.94 324.326 273.508 324.326C273.076 324.326 272.716 324.242 272.428 324.074C272.14 323.906 271.906 323.684 271.726 323.408C271.558 323.12 271.438 322.802 271.366 322.454C271.294 322.094 271.258 321.728 271.258 321.356ZM268.702 321.356C268.702 322.1 268.816 322.772 269.044 323.372C269.272 323.972 269.596 324.488 270.016 324.92C270.436 325.34 270.94 325.664 271.528 325.892C272.116 326.12 272.776 326.234 273.508 326.234C274.24 326.234 274.9 326.12 275.488 325.892C276.088 325.664 276.598 325.34 277.018 324.92C277.438 324.488 277.762 323.972 277.99 323.372C278.218 322.772 278.332 322.1 278.332 321.356C278.332 320.612 278.218 319.94 277.99 319.34C277.762 318.728 277.438 318.212 277.018 317.792C276.598 317.36 276.088 317.03 275.488 316.802C274.9 316.562 274.24 316.442 273.508 316.442C272.776 316.442 272.116 316.562 271.528 316.802C270.94 317.03 270.436 317.36 270.016 317.792C269.596 318.212 269.272 318.728 269.044 319.34C268.816 319.94 268.702 320.612 268.702 321.356ZM290.631 326L293.565 316.694H290.937L289.227 322.994H289.191L287.607 316.694H285.123L283.575 323.012H283.539L281.829 316.694H279.129L282.081 326H284.727L286.311 319.754H286.347L288.003 326H290.631Z" fill="#6394AB"/>
<path d="M193.956 295.172V289.608H197.128C197.596 289.608 198.047 289.643 198.48 289.712C198.913 289.781 199.295 289.92 199.624 290.128C199.953 290.319 200.213 290.596 200.404 290.96C200.612 291.324 200.716 291.801 200.716 292.39C200.716 292.979 200.612 293.456 200.404 293.82C200.213 294.184 199.953 294.47 199.624 294.678C199.295 294.869 198.913 294.999 198.48 295.068C198.047 295.137 197.596 295.172 197.128 295.172H193.956ZM189.874 286.436V305H193.956V298.344H198.246C199.407 298.344 200.395 298.179 201.21 297.85C202.025 297.503 202.683 297.053 203.186 296.498C203.706 295.943 204.079 295.311 204.304 294.6C204.547 293.872 204.668 293.135 204.668 292.39C204.668 291.627 204.547 290.891 204.304 290.18C204.079 289.469 203.706 288.837 203.186 288.282C202.683 287.727 202.025 287.285 201.21 286.956C200.395 286.609 199.407 286.436 198.246 286.436H189.874ZM207.216 286.436V305H211.298V296.992H218.812V305H222.894V286.436H218.812V293.56H211.298V286.436H207.216ZM231.167 297.824L233.585 291.012H233.637L235.977 297.824H231.167ZM231.557 286.436L224.537 305H228.645L230.101 300.866H237.043L238.447 305H242.685L235.743 286.436H231.557ZM247.068 298.838H243.116C243.099 299.982 243.307 300.97 243.74 301.802C244.174 302.634 244.754 303.319 245.482 303.856C246.228 304.393 247.077 304.783 248.03 305.026C249.001 305.286 249.998 305.416 251.02 305.416C252.286 305.416 253.395 305.269 254.348 304.974C255.319 304.679 256.125 304.272 256.766 303.752C257.425 303.215 257.919 302.582 258.248 301.854C258.578 301.126 258.742 300.337 258.742 299.488C258.742 298.448 258.517 297.599 258.066 296.94C257.633 296.264 257.113 295.727 256.506 295.328C255.9 294.929 255.284 294.643 254.66 294.47C254.054 294.279 253.577 294.149 253.23 294.08C252.069 293.785 251.124 293.543 250.396 293.352C249.686 293.161 249.122 292.971 248.706 292.78C248.308 292.589 248.039 292.381 247.9 292.156C247.762 291.931 247.692 291.636 247.692 291.272C247.692 290.873 247.779 290.544 247.952 290.284C248.126 290.024 248.342 289.807 248.602 289.634C248.88 289.461 249.183 289.339 249.512 289.27C249.842 289.201 250.171 289.166 250.5 289.166C251.003 289.166 251.462 289.209 251.878 289.296C252.312 289.383 252.693 289.53 253.022 289.738C253.352 289.946 253.612 290.232 253.802 290.596C254.01 290.96 254.132 291.419 254.166 291.974H258.118C258.118 290.899 257.91 289.989 257.494 289.244C257.096 288.481 256.55 287.857 255.856 287.372C255.163 286.887 254.366 286.54 253.464 286.332C252.58 286.107 251.653 285.994 250.682 285.994C249.85 285.994 249.018 286.107 248.186 286.332C247.354 286.557 246.609 286.904 245.95 287.372C245.292 287.84 244.754 288.429 244.338 289.14C243.94 289.833 243.74 290.657 243.74 291.61C243.74 292.459 243.896 293.187 244.208 293.794C244.538 294.383 244.962 294.877 245.482 295.276C246.002 295.675 246.592 296.004 247.25 296.264C247.909 296.507 248.585 296.715 249.278 296.888C249.954 297.079 250.622 297.252 251.28 297.408C251.939 297.564 252.528 297.746 253.048 297.954C253.568 298.162 253.984 298.422 254.296 298.734C254.626 299.046 254.79 299.453 254.79 299.956C254.79 300.424 254.669 300.814 254.426 301.126C254.184 301.421 253.88 301.655 253.516 301.828C253.152 302.001 252.762 302.123 252.346 302.192C251.93 302.244 251.54 302.27 251.176 302.27C250.639 302.27 250.119 302.209 249.616 302.088C249.114 301.949 248.672 301.75 248.29 301.49C247.926 301.213 247.632 300.857 247.406 300.424C247.181 299.991 247.068 299.462 247.068 298.838ZM261.171 286.436V305H275.263V301.568H265.253V297.018H274.249V293.846H265.253V289.868H275.055V286.436H261.171ZM291.585 291.428V297.746H286.801L291.507 291.428H291.585ZM291.585 300.788V305H295.095V300.788H297.513V297.746H295.095V286.8H291.793L283.889 297.408V300.788H291.585Z" fill="#FFB600"/>
<circle cx="321.5" cy="308.5" r="14.5" fill="#FFB600" stroke="white" stroke-width="4"/>
<g clip-path="url(#clip1)">
<path d="M326.753 308.96C326.806 308.668 326.833 308.364 326.833 308.046C326.833 305.809 323.851 301.15 322.937 299.774L321.755 298L320.572 299.774C320.532 299.827 319.618 301.216 318.678 302.871C316.877 306.074 316.662 307.358 316.662 308.046C316.662 308.39 316.703 308.721 316.77 309.039C315.735 308.814 314.754 308.668 314.136 308.576L312 308.271L312.564 310.31C312.994 311.872 314.15 315.604 315.466 316.756C316.259 317.444 317.24 317.775 318.221 317.775C318.96 317.775 319.685 317.59 320.33 317.219V317.987H323.152V317.246C323.824 317.643 324.576 317.854 325.328 317.854C326.39 317.854 327.465 317.457 328.271 316.65C329.507 315.432 330.421 311.62 330.757 310.045L331.2 307.967L329.091 308.404C328.526 308.523 327.666 308.708 326.753 308.96ZM321.755 303.175C322.977 305.24 324.012 307.332 324.012 308.046C324.012 309.277 323.004 310.27 321.755 310.27C320.505 310.27 319.497 309.277 319.497 308.046C319.484 307.332 320.518 305.227 321.755 303.175ZM319.229 314.559C318.731 315.101 317.885 315.154 317.334 314.678C317.025 314.4 316.488 313.182 315.964 311.713C317.509 312.03 318.785 312.414 319.121 312.679C319.672 313.169 319.726 314.016 319.229 314.559ZM326.282 314.691C326.027 314.942 325.691 315.075 325.328 315.075C324.966 315.075 324.63 314.942 324.375 314.691C324.119 314.439 323.985 314.109 323.985 313.751C323.985 313.394 324.119 313.063 324.375 312.811C324.684 312.52 325.933 312.07 327.465 311.647C327.035 313.156 326.565 314.386 326.282 314.691Z" fill="white"/>
</g>
<path d="M49.8734 76V63.4H47.8394C47.7674 63.88 47.6174 64.282 47.3894 64.606C47.1614 64.93 46.8794 65.194 46.5434 65.398C46.2194 65.59 45.8474 65.728 45.4274 65.812C45.0194 65.884 44.5934 65.914 44.1494 65.902V67.828H47.3174V76H49.8734ZM57.6793 69.934C57.3553 69.934 57.0673 69.868 56.8153 69.736C56.5753 69.592 56.3773 69.412 56.2213 69.196C56.0653 68.968 55.9453 68.716 55.8613 68.44C55.7893 68.152 55.7533 67.858 55.7533 67.558C55.7533 67.27 55.7953 66.988 55.8793 66.712C55.9633 66.436 56.0893 66.19 56.2573 65.974C56.4253 65.758 56.6293 65.584 56.8693 65.452C57.1093 65.32 57.3793 65.254 57.6793 65.254C58.0033 65.254 58.2913 65.32 58.5433 65.452C58.7953 65.584 59.0053 65.764 59.1733 65.992C59.3533 66.208 59.4853 66.46 59.5693 66.748C59.6653 67.024 59.7133 67.306 59.7133 67.594C59.7133 67.906 59.6713 68.206 59.5873 68.494C59.5033 68.77 59.3773 69.016 59.2093 69.232C59.0413 69.448 58.8313 69.622 58.5793 69.754C58.3273 69.874 58.0273 69.934 57.6793 69.934ZM55.8433 72.76H53.4133C53.4853 73.312 53.6353 73.804 53.8633 74.236C54.0913 74.668 54.3853 75.034 54.7453 75.334C55.1053 75.634 55.5193 75.856 55.9873 76C56.4553 76.156 56.9593 76.234 57.4993 76.234C58.3993 76.234 59.1613 76.042 59.7853 75.658C60.4093 75.262 60.9193 74.752 61.3153 74.128C61.7113 73.492 61.9993 72.784 62.1793 72.004C62.3593 71.224 62.4493 70.444 62.4493 69.664C62.4493 68.872 62.3773 68.086 62.2333 67.306C62.0893 66.526 61.8313 65.83 61.4593 65.218C61.0873 64.594 60.5893 64.096 59.9653 63.724C59.3533 63.34 58.5673 63.148 57.6073 63.148C56.9473 63.148 56.3473 63.268 55.8073 63.508C55.2673 63.748 54.7993 64.078 54.4033 64.498C54.0193 64.906 53.7193 65.392 53.5033 65.956C53.2993 66.508 53.1973 67.108 53.1973 67.756C53.1973 68.26 53.2753 68.758 53.4313 69.25C53.5873 69.742 53.8333 70.18 54.1693 70.564C54.5293 70.96 54.9673 71.278 55.4833 71.518C55.9993 71.746 56.5273 71.86 57.0673 71.86C57.6793 71.86 58.2193 71.752 58.6873 71.536C59.1553 71.32 59.5633 70.96 59.9113 70.456L59.9473 70.492C59.9233 70.84 59.8693 71.236 59.7853 71.68C59.7133 72.124 59.5873 72.544 59.4073 72.94C59.2273 73.324 58.9873 73.654 58.6873 73.93C58.3873 74.194 58.0033 74.326 57.5353 74.326C57.0913 74.326 56.7193 74.17 56.4193 73.858C56.1193 73.546 55.9273 73.18 55.8433 72.76ZM67.6813 69.934C67.3573 69.934 67.0693 69.868 66.8173 69.736C66.5773 69.592 66.3793 69.412 66.2233 69.196C66.0673 68.968 65.9473 68.716 65.8633 68.44C65.7913 68.152 65.7553 67.858 65.7553 67.558C65.7553 67.27 65.7973 66.988 65.8813 66.712C65.9653 66.436 66.0913 66.19 66.2593 65.974C66.4273 65.758 66.6313 65.584 66.8713 65.452C67.1113 65.32 67.3813 65.254 67.6813 65.254C68.0053 65.254 68.2933 65.32 68.5453 65.452C68.7973 65.584 69.0073 65.764 69.1753 65.992C69.3553 66.208 69.4873 66.46 69.5713 66.748C69.6673 67.024 69.7153 67.306 69.7153 67.594C69.7153 67.906 69.6733 68.206 69.5893 68.494C69.5053 68.77 69.3793 69.016 69.2113 69.232C69.0433 69.448 68.8333 69.622 68.5813 69.754C68.3293 69.874 68.0293 69.934 67.6813 69.934ZM65.8453 72.76H63.4153C63.4873 73.312 63.6373 73.804 63.8653 74.236C64.0933 74.668 64.3873 75.034 64.7473 75.334C65.1073 75.634 65.5213 75.856 65.9893 76C66.4573 76.156 66.9613 76.234 67.5013 76.234C68.4013 76.234 69.1633 76.042 69.7873 75.658C70.4113 75.262 70.9213 74.752 71.3173 74.128C71.7133 73.492 72.0013 72.784 72.1813 72.004C72.3613 71.224 72.4513 70.444 72.4513 69.664C72.4513 68.872 72.3793 68.086 72.2353 67.306C72.0913 66.526 71.8333 65.83 71.4613 65.218C71.0893 64.594 70.5913 64.096 69.9673 63.724C69.3553 63.34 68.5693 63.148 67.6093 63.148C66.9493 63.148 66.3493 63.268 65.8093 63.508C65.2693 63.748 64.8013 64.078 64.4053 64.498C64.0213 64.906 63.7213 65.392 63.5053 65.956C63.3013 66.508 63.1993 67.108 63.1993 67.756C63.1993 68.26 63.2773 68.758 63.4333 69.25C63.5893 69.742 63.8353 70.18 64.1713 70.564C64.5313 70.96 64.9693 71.278 65.4853 71.518C66.0013 71.746 66.5293 71.86 67.0693 71.86C67.6813 71.86 68.2213 71.752 68.6893 71.536C69.1573 71.32 69.5653 70.96 69.9133 70.456L69.9493 70.492C69.9253 70.84 69.8713 71.236 69.7873 71.68C69.7153 72.124 69.5893 72.544 69.4093 72.94C69.2293 73.324 68.9893 73.654 68.6893 73.93C68.3893 74.194 68.0053 74.326 67.5373 74.326C67.0933 74.326 66.7213 74.17 66.4213 73.858C66.1213 73.546 65.9293 73.18 65.8453 72.76ZM76.9272 68.494V70.294C77.2392 70.294 77.5632 70.306 77.8992 70.33C78.2472 70.342 78.5652 70.408 78.8532 70.528C79.1412 70.636 79.3752 70.816 79.5552 71.068C79.7472 71.32 79.8432 71.686 79.8432 72.166C79.8432 72.778 79.6452 73.264 79.2492 73.624C78.8532 73.972 78.3672 74.146 77.7912 74.146C77.4192 74.146 77.0952 74.08 76.8192 73.948C76.5552 73.816 76.3332 73.642 76.1532 73.426C75.9732 73.198 75.8352 72.934 75.7392 72.634C75.6432 72.322 75.5892 71.998 75.5772 71.662H73.1472C73.1352 72.394 73.2372 73.042 73.4532 73.606C73.6812 74.17 73.9992 74.65 74.4072 75.046C74.8152 75.43 75.3072 75.724 75.8832 75.928C76.4712 76.132 77.1192 76.234 77.8272 76.234C78.4392 76.234 79.0272 76.144 79.5912 75.964C80.1552 75.784 80.6532 75.52 81.0852 75.172C81.5172 74.824 81.8592 74.392 82.1112 73.876C82.3752 73.36 82.5072 72.772 82.5072 72.112C82.5072 71.392 82.3092 70.774 81.9132 70.258C81.5172 69.742 80.9712 69.406 80.2752 69.25V69.214C80.8632 69.046 81.3012 68.728 81.5892 68.26C81.8892 67.792 82.0392 67.252 82.0392 66.64C82.0392 66.076 81.9132 65.578 81.6612 65.146C81.4092 64.714 81.0792 64.348 80.6712 64.048C80.2752 63.748 79.8252 63.526 79.3212 63.382C78.8172 63.226 78.3132 63.148 77.8092 63.148C77.1612 63.148 76.5732 63.256 76.0452 63.472C75.5172 63.676 75.0612 63.97 74.6772 64.354C74.3052 64.738 74.0112 65.2 73.7952 65.74C73.5912 66.268 73.4772 66.856 73.4532 67.504H75.8832C75.8712 66.856 76.0272 66.322 76.3512 65.902C76.6872 65.47 77.1792 65.254 77.8272 65.254C78.2952 65.254 78.7092 65.398 79.0692 65.686C79.4292 65.974 79.6092 66.388 79.6092 66.928C79.6092 67.288 79.5192 67.576 79.3392 67.792C79.1712 68.008 78.9492 68.176 78.6732 68.296C78.4092 68.404 78.1212 68.47 77.8092 68.494C77.4972 68.518 77.2032 68.518 76.9272 68.494ZM88.789 69.988V72.184H94.207V69.988H88.789ZM107.231 76V63.4H105.197C105.125 63.88 104.975 64.282 104.747 64.606C104.519 64.93 104.237 65.194 103.901 65.398C103.577 65.59 103.205 65.728 102.785 65.812C102.377 65.884 101.951 65.914 101.507 65.902V67.828H104.675V76H107.231ZM115.037 69.934C114.713 69.934 114.425 69.868 114.173 69.736C113.933 69.592 113.735 69.412 113.579 69.196C113.423 68.968 113.303 68.716 113.219 68.44C113.147 68.152 113.111 67.858 113.111 67.558C113.111 67.27 113.153 66.988 113.237 66.712C113.321 66.436 113.447 66.19 113.615 65.974C113.783 65.758 113.987 65.584 114.227 65.452C114.467 65.32 114.737 65.254 115.037 65.254C115.361 65.254 115.649 65.32 115.901 65.452C116.153 65.584 116.363 65.764 116.531 65.992C116.711 66.208 116.843 66.46 116.927 66.748C117.023 67.024 117.071 67.306 117.071 67.594C117.071 67.906 117.029 68.206 116.945 68.494C116.861 68.77 116.735 69.016 116.567 69.232C116.399 69.448 116.189 69.622 115.937 69.754C115.685 69.874 115.385 69.934 115.037 69.934ZM113.201 72.76H110.771C110.843 73.312 110.993 73.804 111.221 74.236C111.449 74.668 111.743 75.034 112.103 75.334C112.463 75.634 112.877 75.856 113.345 76C113.813 76.156 114.317 76.234 114.857 76.234C115.757 76.234 116.519 76.042 117.143 75.658C117.767 75.262 118.277 74.752 118.673 74.128C119.069 73.492 119.357 72.784 119.537 72.004C119.717 71.224 119.807 70.444 119.807 69.664C119.807 68.872 119.735 68.086 119.591 67.306C119.447 66.526 119.189 65.83 118.817 65.218C118.445 64.594 117.947 64.096 117.323 63.724C116.711 63.34 115.925 63.148 114.965 63.148C114.305 63.148 113.705 63.268 113.165 63.508C112.625 63.748 112.157 64.078 111.761 64.498C111.377 64.906 111.077 65.392 110.861 65.956C110.657 66.508 110.555 67.108 110.555 67.756C110.555 68.26 110.633 68.758 110.789 69.25C110.945 69.742 111.191 70.18 111.527 70.564C111.887 70.96 112.325 71.278 112.841 71.518C113.357 71.746 113.885 71.86 114.425 71.86C115.037 71.86 115.577 71.752 116.045 71.536C116.513 71.32 116.921 70.96 117.269 70.456L117.305 70.492C117.281 70.84 117.227 71.236 117.143 71.68C117.071 72.124 116.945 72.544 116.765 72.94C116.585 73.324 116.345 73.654 116.045 73.93C115.745 74.194 115.361 74.326 114.893 74.326C114.449 74.326 114.077 74.17 113.777 73.858C113.477 73.546 113.285 73.18 113.201 72.76ZM125.039 69.934C124.715 69.934 124.427 69.868 124.175 69.736C123.935 69.592 123.737 69.412 123.581 69.196C123.425 68.968 123.305 68.716 123.221 68.44C123.149 68.152 123.113 67.858 123.113 67.558C123.113 67.27 123.155 66.988 123.239 66.712C123.323 66.436 123.449 66.19 123.617 65.974C123.785 65.758 123.989 65.584 124.229 65.452C124.469 65.32 124.739 65.254 125.039 65.254C125.363 65.254 125.651 65.32 125.903 65.452C126.155 65.584 126.365 65.764 126.533 65.992C126.713 66.208 126.845 66.46 126.929 66.748C127.025 67.024 127.073 67.306 127.073 67.594C127.073 67.906 127.031 68.206 126.947 68.494C126.863 68.77 126.737 69.016 126.569 69.232C126.401 69.448 126.191 69.622 125.939 69.754C125.687 69.874 125.387 69.934 125.039 69.934ZM123.203 72.76H120.773C120.845 73.312 120.995 73.804 121.223 74.236C121.451 74.668 121.745 75.034 122.105 75.334C122.465 75.634 122.879 75.856 123.347 76C123.815 76.156 124.319 76.234 124.859 76.234C125.759 76.234 126.521 76.042 127.145 75.658C127.769 75.262 128.279 74.752 128.675 74.128C129.071 73.492 129.359 72.784 129.539 72.004C129.719 71.224 129.809 70.444 129.809 69.664C129.809 68.872 129.737 68.086 129.593 67.306C129.449 66.526 129.191 65.83 128.819 65.218C128.447 64.594 127.949 64.096 127.325 63.724C126.713 63.34 125.927 63.148 124.967 63.148C124.307 63.148 123.707 63.268 123.167 63.508C122.627 63.748 122.159 64.078 121.763 64.498C121.379 64.906 121.079 65.392 120.863 65.956C120.659 66.508 120.557 67.108 120.557 67.756C120.557 68.26 120.635 68.758 120.791 69.25C120.947 69.742 121.193 70.18 121.529 70.564C121.889 70.96 122.327 71.278 122.843 71.518C123.359 71.746 123.887 71.86 124.427 71.86C125.039 71.86 125.579 71.752 126.047 71.536C126.515 71.32 126.923 70.96 127.271 70.456L127.307 70.492C127.283 70.84 127.229 71.236 127.145 71.68C127.073 72.124 126.947 72.544 126.767 72.94C126.587 73.324 126.347 73.654 126.047 73.93C125.747 74.194 125.363 74.326 124.895 74.326C124.451 74.326 124.079 74.17 123.779 73.858C123.479 73.546 123.287 73.18 123.203 72.76ZM139.487 65.596V63.4H130.883V65.776H136.859C135.659 67.228 134.687 68.824 133.943 70.564C133.211 72.304 132.773 74.116 132.629 76H135.365C135.377 75.16 135.473 74.254 135.653 73.282C135.845 72.31 136.109 71.35 136.445 70.402C136.793 69.454 137.219 68.56 137.723 67.72C138.239 66.88 138.827 66.172 139.487 65.596Z" fill="#6394AB"/>
<path d="M44.9561 45.172V39.608H48.1281C48.5961 39.608 49.0467 39.6427 49.4801 39.712C49.9134 39.7813 50.2947 39.92 50.6241 40.128C50.9534 40.3187 51.2134 40.596 51.4041 40.96C51.6121 41.324 51.7161 41.8007 51.7161 42.39C51.7161 42.9793 51.6121 43.456 51.4041 43.82C51.2134 44.184 50.9534 44.47 50.6241 44.678C50.2947 44.8687 49.9134 44.9987 49.4801 45.068C49.0467 45.1373 48.5961 45.172 48.1281 45.172H44.9561ZM40.8741 36.436V55H44.9561V48.344H49.2461C50.4074 48.344 51.3954 48.1793 52.2101 47.85C53.0247 47.5033 53.6834 47.0527 54.1861 46.498C54.7061 45.9433 55.0787 45.3107 55.3041 44.6C55.5467 43.872 55.6681 43.1353 55.6681 42.39C55.6681 41.6273 55.5467 40.8907 55.3041 40.18C55.0787 39.4693 54.7061 38.8367 54.1861 38.282C53.6834 37.7273 53.0247 37.2853 52.2101 36.956C51.3954 36.6093 50.4074 36.436 49.2461 36.436H40.8741ZM58.2159 36.436V55H62.2979V46.992H69.8119V55H73.8939V36.436H69.8119V43.56H62.2979V36.436H58.2159ZM82.1674 47.824L84.5854 41.012H84.6374L86.9774 47.824H82.1674ZM82.5574 36.436L75.5374 55H79.6454L81.1014 50.866H88.0434L89.4474 55H93.6854L86.7434 36.436H82.5574ZM98.0682 48.838H94.1162C94.0989 49.982 94.3069 50.97 94.7402 51.802C95.1735 52.634 95.7542 53.3187 96.4822 53.856C97.2275 54.3933 98.0769 54.7833 99.0302 55.026C100.001 55.286 100.998 55.416 102.02 55.416C103.286 55.416 104.395 55.2687 105.348 54.974C106.319 54.6793 107.125 54.272 107.766 53.752C108.425 53.2147 108.919 52.582 109.248 51.854C109.578 51.126 109.742 50.3373 109.742 49.488C109.742 48.448 109.517 47.5987 109.066 46.94C108.633 46.264 108.113 45.7267 107.506 45.328C106.9 44.9293 106.284 44.6433 105.66 44.47C105.054 44.2793 104.577 44.1493 104.23 44.08C103.069 43.7853 102.124 43.5427 101.396 43.352C100.686 43.1613 100.122 42.9707 99.7062 42.78C99.3075 42.5893 99.0389 42.3813 98.9002 42.156C98.7615 41.9307 98.6922 41.636 98.6922 41.272C98.6922 40.8733 98.7789 40.544 98.9522 40.284C99.1255 40.024 99.3422 39.8073 99.6022 39.634C99.8795 39.4607 100.183 39.3393 100.512 39.27C100.842 39.2007 101.171 39.166 101.5 39.166C102.003 39.166 102.462 39.2093 102.878 39.296C103.312 39.3827 103.693 39.53 104.022 39.738C104.352 39.946 104.612 40.232 104.802 40.596C105.01 40.96 105.132 41.4193 105.166 41.974H109.118C109.118 40.8993 108.91 39.9893 108.494 39.244C108.096 38.4813 107.55 37.8573 106.856 37.372C106.163 36.8867 105.366 36.54 104.464 36.332C103.58 36.1067 102.653 35.994 101.682 35.994C100.85 35.994 100.018 36.1067 99.1862 36.332C98.3542 36.5573 97.6089 36.904 96.9502 37.372C96.2915 37.84 95.7542 38.4293 95.3382 39.14C94.9395 39.8333 94.7402 40.6567 94.7402 41.61C94.7402 42.4593 94.8962 43.1873 95.2082 43.794C95.5375 44.3833 95.9622 44.8773 96.4822 45.276C97.0022 45.6747 97.5915 46.004 98.2502 46.264C98.9089 46.5067 99.5849 46.7147 100.278 46.888C100.954 47.0787 101.622 47.252 102.28 47.408C102.939 47.564 103.528 47.746 104.048 47.954C104.568 48.162 104.984 48.422 105.296 48.734C105.626 49.046 105.79 49.4533 105.79 49.956C105.79 50.424 105.669 50.814 105.426 51.126C105.184 51.4207 104.88 51.6547 104.516 51.828C104.152 52.0013 103.762 52.1227 103.346 52.192C102.93 52.244 102.54 52.27 102.176 52.27C101.639 52.27 101.119 52.2093 100.616 52.088C100.114 51.9493 99.6715 51.75 99.2902 51.49C98.9262 51.2127 98.6315 50.8573 98.4062 50.424C98.1809 49.9907 98.0682 49.462 98.0682 48.838ZM112.171 36.436V55H126.263V51.568H116.253V47.018H125.249V43.846H116.253V39.868H126.055V36.436H112.171ZM144.665 55V36.8H141.727C141.623 37.4933 141.406 38.074 141.077 38.542C140.747 39.01 140.34 39.3913 139.855 39.686C139.387 39.9633 138.849 40.1627 138.243 40.284C137.653 40.388 137.038 40.4313 136.397 40.414V43.196H140.973V55H144.665Z" fill="#6394AB" fill-opacity="0.5"/>
<path d="M203.873 159V146.4H201.839C201.767 146.88 201.617 147.282 201.389 147.606C201.161 147.93 200.879 148.194 200.543 148.398C200.219 148.59 199.847 148.728 199.427 148.812C199.019 148.884 198.593 148.914 198.149 148.902V150.828H201.317V159H203.873ZM211.679 152.934C211.355 152.934 211.067 152.868 210.815 152.736C210.575 152.592 210.377 152.412 210.221 152.196C210.065 151.968 209.945 151.716 209.861 151.44C209.789 151.152 209.753 150.858 209.753 150.558C209.753 150.27 209.795 149.988 209.879 149.712C209.963 149.436 210.089 149.19 210.257 148.974C210.425 148.758 210.629 148.584 210.869 148.452C211.109 148.32 211.379 148.254 211.679 148.254C212.003 148.254 212.291 148.32 212.543 148.452C212.795 148.584 213.005 148.764 213.173 148.992C213.353 149.208 213.485 149.46 213.569 149.748C213.665 150.024 213.713 150.306 213.713 150.594C213.713 150.906 213.671 151.206 213.587 151.494C213.503 151.77 213.377 152.016 213.209 152.232C213.041 152.448 212.831 152.622 212.579 152.754C212.327 152.874 212.027 152.934 211.679 152.934ZM209.843 155.76H207.413C207.485 156.312 207.635 156.804 207.863 157.236C208.091 157.668 208.385 158.034 208.745 158.334C209.105 158.634 209.519 158.856 209.987 159C210.455 159.156 210.959 159.234 211.499 159.234C212.399 159.234 213.161 159.042 213.785 158.658C214.409 158.262 214.919 157.752 215.315 157.128C215.711 156.492 215.999 155.784 216.179 155.004C216.359 154.224 216.449 153.444 216.449 152.664C216.449 151.872 216.377 151.086 216.233 150.306C216.089 149.526 215.831 148.83 215.459 148.218C215.087 147.594 214.589 147.096 213.965 146.724C213.353 146.34 212.567 146.148 211.607 146.148C210.947 146.148 210.347 146.268 209.807 146.508C209.267 146.748 208.799 147.078 208.403 147.498C208.019 147.906 207.719 148.392 207.503 148.956C207.299 149.508 207.197 150.108 207.197 150.756C207.197 151.26 207.275 151.758 207.431 152.25C207.587 152.742 207.833 153.18 208.169 153.564C208.529 153.96 208.967 154.278 209.483 154.518C209.999 154.746 210.527 154.86 211.067 154.86C211.679 154.86 212.219 154.752 212.687 154.536C213.155 154.32 213.563 153.96 213.911 153.456L213.947 153.492C213.923 153.84 213.869 154.236 213.785 154.68C213.713 155.124 213.587 155.544 213.407 155.94C213.227 156.324 212.987 156.654 212.687 156.93C212.387 157.194 212.003 157.326 211.535 157.326C211.091 157.326 210.719 157.17 210.419 156.858C210.119 156.546 209.927 156.18 209.843 155.76ZM221.681 152.934C221.357 152.934 221.069 152.868 220.817 152.736C220.577 152.592 220.379 152.412 220.223 152.196C220.067 151.968 219.947 151.716 219.863 151.44C219.791 151.152 219.755 150.858 219.755 150.558C219.755 150.27 219.797 149.988 219.881 149.712C219.965 149.436 220.091 149.19 220.259 148.974C220.427 148.758 220.631 148.584 220.871 148.452C221.111 148.32 221.381 148.254 221.681 148.254C222.005 148.254 222.293 148.32 222.545 148.452C222.797 148.584 223.007 148.764 223.175 148.992C223.355 149.208 223.487 149.46 223.571 149.748C223.667 150.024 223.715 150.306 223.715 150.594C223.715 150.906 223.673 151.206 223.589 151.494C223.505 151.77 223.379 152.016 223.211 152.232C223.043 152.448 222.833 152.622 222.581 152.754C222.329 152.874 222.029 152.934 221.681 152.934ZM219.845 155.76H217.415C217.487 156.312 217.637 156.804 217.865 157.236C218.093 157.668 218.387 158.034 218.747 158.334C219.107 158.634 219.521 158.856 219.989 159C220.457 159.156 220.961 159.234 221.501 159.234C222.401 159.234 223.163 159.042 223.787 158.658C224.411 158.262 224.921 157.752 225.317 157.128C225.713 156.492 226.001 155.784 226.181 155.004C226.361 154.224 226.451 153.444 226.451 152.664C226.451 151.872 226.379 151.086 226.235 150.306C226.091 149.526 225.833 148.83 225.461 148.218C225.089 147.594 224.591 147.096 223.967 146.724C223.355 146.34 222.569 146.148 221.609 146.148C220.949 146.148 220.349 146.268 219.809 146.508C219.269 146.748 218.801 147.078 218.405 147.498C218.021 147.906 217.721 148.392 217.505 148.956C217.301 149.508 217.199 150.108 217.199 150.756C217.199 151.26 217.277 151.758 217.433 152.25C217.589 152.742 217.835 153.18 218.171 153.564C218.531 153.96 218.969 154.278 219.485 154.518C220.001 154.746 220.529 154.86 221.069 154.86C221.681 154.86 222.221 154.752 222.689 154.536C223.157 154.32 223.565 153.96 223.913 153.456L223.949 153.492C223.925 153.84 223.871 154.236 223.787 154.68C223.715 155.124 223.589 155.544 223.409 155.94C223.229 156.324 222.989 156.654 222.689 156.93C222.389 157.194 222.005 157.326 221.537 157.326C221.093 157.326 220.721 157.17 220.421 156.858C220.121 156.546 219.929 156.18 219.845 155.76ZM236.129 148.596V146.4H227.525V148.776H233.501C232.301 150.228 231.329 151.824 230.585 153.564C229.853 155.304 229.415 157.116 229.271 159H232.007C232.019 158.16 232.115 157.254 232.295 156.282C232.487 155.31 232.751 154.35 233.087 153.402C233.435 152.454 233.861 151.56 234.365 150.72C234.881 149.88 235.469 149.172 236.129 148.596ZM242.789 152.988V155.184H248.207V152.988H242.789ZM254.841 151.242H257.289C257.289 150.906 257.319 150.57 257.379 150.234C257.451 149.886 257.565 149.574 257.721 149.298C257.877 149.01 258.081 148.782 258.333 148.614C258.597 148.434 258.915 148.344 259.287 148.344C259.839 148.344 260.289 148.518 260.637 148.866C260.997 149.202 261.177 149.676 261.177 150.288C261.177 150.672 261.087 151.014 260.907 151.314C260.739 151.614 260.523 151.884 260.259 152.124C260.007 152.364 259.725 152.586 259.413 152.79C259.101 152.982 258.807 153.174 258.531 153.366C257.991 153.738 257.475 154.104 256.983 154.464C256.503 154.824 256.083 155.22 255.723 155.652C255.363 156.072 255.075 156.552 254.859 157.092C254.655 157.632 254.553 158.268 254.553 159H263.805V156.804H257.847C258.159 156.372 258.519 155.994 258.927 155.67C259.335 155.346 259.755 155.046 260.187 154.77C260.619 154.482 261.045 154.194 261.465 153.906C261.897 153.618 262.281 153.3 262.617 152.952C262.953 152.592 263.223 152.184 263.427 151.728C263.631 151.272 263.733 150.726 263.733 150.09C263.733 149.478 263.613 148.926 263.373 148.434C263.145 147.942 262.833 147.528 262.437 147.192C262.041 146.856 261.579 146.598 261.051 146.418C260.535 146.238 259.989 146.148 259.413 146.148C258.657 146.148 257.985 146.28 257.397 146.544C256.821 146.796 256.341 147.156 255.957 147.624C255.573 148.08 255.285 148.62 255.093 149.244C254.901 149.856 254.817 150.522 254.841 151.242ZM267.111 152.646C267.111 152.43 267.111 152.172 267.111 151.872C267.123 151.56 267.147 151.242 267.183 150.918C267.219 150.594 267.279 150.276 267.363 149.964C267.447 149.64 267.561 149.352 267.705 149.1C267.861 148.848 268.053 148.644 268.281 148.488C268.521 148.332 268.815 148.254 269.163 148.254C269.511 148.254 269.805 148.332 270.045 148.488C270.285 148.644 270.483 148.848 270.639 149.1C270.795 149.352 270.909 149.64 270.981 149.964C271.065 150.276 271.125 150.594 271.161 150.918C271.209 151.242 271.233 151.56 271.233 151.872C271.245 152.172 271.251 152.43 271.251 152.646C271.251 153.006 271.239 153.444 271.215 153.96C271.191 154.464 271.113 154.956 270.981 155.436C270.861 155.904 270.657 156.306 270.369 156.642C270.093 156.978 269.691 157.146 269.163 157.146C268.647 157.146 268.251 156.978 267.975 156.642C267.699 156.306 267.495 155.904 267.363 155.436C267.243 154.956 267.171 154.464 267.147 153.96C267.123 153.444 267.111 153.006 267.111 152.646ZM264.555 152.646C264.555 153.906 264.675 154.962 264.915 155.814C265.167 156.654 265.503 157.326 265.923 157.83C266.343 158.334 266.829 158.694 267.381 158.91C267.945 159.126 268.539 159.234 269.163 159.234C269.799 159.234 270.393 159.126 270.945 158.91C271.509 158.694 272.001 158.334 272.421 157.83C272.853 157.326 273.189 156.654 273.429 155.814C273.681 154.962 273.807 153.906 273.807 152.646C273.807 151.422 273.681 150.396 273.429 149.568C273.189 148.728 272.853 148.056 272.421 147.552C272.001 147.048 271.509 146.688 270.945 146.472C270.393 146.256 269.799 146.148 269.163 146.148C268.539 146.148 267.945 146.256 267.381 146.472C266.829 146.688 266.343 147.048 265.923 147.552C265.503 148.056 265.167 148.728 264.915 149.568C264.675 150.396 264.555 151.422 264.555 152.646ZM277.113 152.646C277.113 152.43 277.113 152.172 277.113 151.872C277.125 151.56 277.149 151.242 277.185 150.918C277.221 150.594 277.281 150.276 277.365 149.964C277.449 149.64 277.563 149.352 277.707 149.1C277.863 148.848 278.055 148.644 278.283 148.488C278.523 148.332 278.817 148.254 279.165 148.254C279.513 148.254 279.807 148.332 280.047 148.488C280.287 148.644 280.485 148.848 280.641 149.1C280.797 149.352 280.911 149.64 280.983 149.964C281.067 150.276 281.127 150.594 281.163 150.918C281.211 151.242 281.235 151.56 281.235 151.872C281.247 152.172 281.253 152.43 281.253 152.646C281.253 153.006 281.241 153.444 281.217 153.96C281.193 154.464 281.115 154.956 280.983 155.436C280.863 155.904 280.659 156.306 280.371 156.642C280.095 156.978 279.693 157.146 279.165 157.146C278.649 157.146 278.253 156.978 277.977 156.642C277.701 156.306 277.497 155.904 277.365 155.436C277.245 154.956 277.173 154.464 277.149 153.96C277.125 153.444 277.113 153.006 277.113 152.646ZM274.557 152.646C274.557 153.906 274.677 154.962 274.917 155.814C275.169 156.654 275.505 157.326 275.925 157.83C276.345 158.334 276.831 158.694 277.383 158.91C277.947 159.126 278.541 159.234 279.165 159.234C279.801 159.234 280.395 159.126 280.947 158.91C281.511 158.694 282.003 158.334 282.423 157.83C282.855 157.326 283.191 156.654 283.431 155.814C283.683 154.962 283.809 153.906 283.809 152.646C283.809 151.422 283.683 150.396 283.431 149.568C283.191 148.728 282.855 148.056 282.423 147.552C282.003 147.048 281.511 146.688 280.947 146.472C280.395 146.256 279.801 146.148 279.165 146.148C278.541 146.148 277.947 146.256 277.383 146.472C276.831 146.688 276.345 147.048 275.925 147.552C275.505 148.056 275.169 148.728 274.917 149.568C274.677 150.396 274.557 151.422 274.557 152.646ZM291.237 159V146.4H289.203C289.131 146.88 288.981 147.282 288.753 147.606C288.525 147.93 288.243 148.194 287.907 148.398C287.583 148.59 287.211 148.728 286.791 148.812C286.383 148.884 285.957 148.914 285.513 148.902V150.828H288.681V159H291.237Z" fill="#6394AB"/>
<path d="M193.956 128.172V122.608H197.128C197.596 122.608 198.047 122.643 198.48 122.712C198.913 122.781 199.295 122.92 199.624 123.128C199.953 123.319 200.213 123.596 200.404 123.96C200.612 124.324 200.716 124.801 200.716 125.39C200.716 125.979 200.612 126.456 200.404 126.82C200.213 127.184 199.953 127.47 199.624 127.678C199.295 127.869 198.913 127.999 198.48 128.068C198.047 128.137 197.596 128.172 197.128 128.172H193.956ZM189.874 119.436V138H193.956V131.344H198.246C199.407 131.344 200.395 131.179 201.21 130.85C202.025 130.503 202.683 130.053 203.186 129.498C203.706 128.943 204.079 128.311 204.304 127.6C204.547 126.872 204.668 126.135 204.668 125.39C204.668 124.627 204.547 123.891 204.304 123.18C204.079 122.469 203.706 121.837 203.186 121.282C202.683 120.727 202.025 120.285 201.21 119.956C200.395 119.609 199.407 119.436 198.246 119.436H189.874ZM207.216 119.436V138H211.298V129.992H218.812V138H222.894V119.436H218.812V126.56H211.298V119.436H207.216ZM231.167 130.824L233.585 124.012H233.637L235.977 130.824H231.167ZM231.557 119.436L224.537 138H228.645L230.101 133.866H237.043L238.447 138H242.685L235.743 119.436H231.557ZM247.068 131.838H243.116C243.099 132.982 243.307 133.97 243.74 134.802C244.174 135.634 244.754 136.319 245.482 136.856C246.228 137.393 247.077 137.783 248.03 138.026C249.001 138.286 249.998 138.416 251.02 138.416C252.286 138.416 253.395 138.269 254.348 137.974C255.319 137.679 256.125 137.272 256.766 136.752C257.425 136.215 257.919 135.582 258.248 134.854C258.578 134.126 258.742 133.337 258.742 132.488C258.742 131.448 258.517 130.599 258.066 129.94C257.633 129.264 257.113 128.727 256.506 128.328C255.9 127.929 255.284 127.643 254.66 127.47C254.054 127.279 253.577 127.149 253.23 127.08C252.069 126.785 251.124 126.543 250.396 126.352C249.686 126.161 249.122 125.971 248.706 125.78C248.308 125.589 248.039 125.381 247.9 125.156C247.762 124.931 247.692 124.636 247.692 124.272C247.692 123.873 247.779 123.544 247.952 123.284C248.126 123.024 248.342 122.807 248.602 122.634C248.88 122.461 249.183 122.339 249.512 122.27C249.842 122.201 250.171 122.166 250.5 122.166C251.003 122.166 251.462 122.209 251.878 122.296C252.312 122.383 252.693 122.53 253.022 122.738C253.352 122.946 253.612 123.232 253.802 123.596C254.01 123.96 254.132 124.419 254.166 124.974H258.118C258.118 123.899 257.91 122.989 257.494 122.244C257.096 121.481 256.55 120.857 255.856 120.372C255.163 119.887 254.366 119.54 253.464 119.332C252.58 119.107 251.653 118.994 250.682 118.994C249.85 118.994 249.018 119.107 248.186 119.332C247.354 119.557 246.609 119.904 245.95 120.372C245.292 120.84 244.754 121.429 244.338 122.14C243.94 122.833 243.74 123.657 243.74 124.61C243.74 125.459 243.896 126.187 244.208 126.794C244.538 127.383 244.962 127.877 245.482 128.276C246.002 128.675 246.592 129.004 247.25 129.264C247.909 129.507 248.585 129.715 249.278 129.888C249.954 130.079 250.622 130.252 251.28 130.408C251.939 130.564 252.528 130.746 253.048 130.954C253.568 131.162 253.984 131.422 254.296 131.734C254.626 132.046 254.79 132.453 254.79 132.956C254.79 133.424 254.669 133.814 254.426 134.126C254.184 134.421 253.88 134.655 253.516 134.828C253.152 135.001 252.762 135.123 252.346 135.192C251.93 135.244 251.54 135.27 251.176 135.27C250.639 135.27 250.119 135.209 249.616 135.088C249.114 134.949 248.672 134.75 248.29 134.49C247.926 134.213 247.632 133.857 247.406 133.424C247.181 132.991 247.068 132.462 247.068 131.838ZM261.171 119.436V138H275.263V134.568H265.253V130.018H274.249V126.846H265.253V122.868H275.055V119.436H261.171ZM284.435 126.794H287.971C287.971 126.309 288.014 125.823 288.101 125.338C288.205 124.835 288.369 124.385 288.595 123.986C288.82 123.57 289.115 123.241 289.479 122.998C289.86 122.738 290.319 122.608 290.857 122.608C291.654 122.608 292.304 122.859 292.807 123.362C293.327 123.847 293.587 124.532 293.587 125.416C293.587 125.971 293.457 126.465 293.197 126.898C292.954 127.331 292.642 127.721 292.261 128.068C291.897 128.415 291.489 128.735 291.039 129.03C290.588 129.307 290.163 129.585 289.765 129.862C288.985 130.399 288.239 130.928 287.529 131.448C286.835 131.968 286.229 132.54 285.709 133.164C285.189 133.771 284.773 134.464 284.461 135.244C284.166 136.024 284.019 136.943 284.019 138H297.383V134.828H288.777C289.227 134.204 289.747 133.658 290.337 133.19C290.926 132.722 291.533 132.289 292.157 131.89C292.781 131.474 293.396 131.058 294.003 130.642C294.627 130.226 295.181 129.767 295.667 129.264C296.152 128.744 296.542 128.155 296.837 127.496C297.131 126.837 297.279 126.049 297.279 125.13C297.279 124.246 297.105 123.449 296.759 122.738C296.429 122.027 295.979 121.429 295.407 120.944C294.835 120.459 294.167 120.086 293.405 119.826C292.659 119.566 291.871 119.436 291.039 119.436C289.947 119.436 288.976 119.627 288.127 120.008C287.295 120.372 286.601 120.892 286.047 121.568C285.492 122.227 285.076 123.007 284.799 123.908C284.521 124.792 284.4 125.754 284.435 126.794Z" fill="#6394AB" fill-opacity="0.5"/>
<path d="M43.4834 234.242H45.9314C45.9314 233.906 45.9614 233.57 46.0214 233.234C46.0934 232.886 46.2074 232.574 46.3634 232.298C46.5194 232.01 46.7234 231.782 46.9754 231.614C47.2394 231.434 47.5574 231.344 47.9294 231.344C48.4814 231.344 48.9314 231.518 49.2794 231.866C49.6394 232.202 49.8194 232.676 49.8194 233.288C49.8194 233.672 49.7294 234.014 49.5494 234.314C49.3814 234.614 49.1654 234.884 48.9014 235.124C48.6494 235.364 48.3674 235.586 48.0554 235.79C47.7434 235.982 47.4494 236.174 47.1734 236.366C46.6334 236.738 46.1174 237.104 45.6254 237.464C45.1454 237.824 44.7254 238.22 44.3654 238.652C44.0054 239.072 43.7174 239.552 43.5014 240.092C43.2974 240.632 43.1954 241.268 43.1954 242H52.4474V239.804H46.4894C46.8014 239.372 47.1614 238.994 47.5694 238.67C47.9774 238.346 48.3974 238.046 48.8294 237.77C49.2614 237.482 49.6874 237.194 50.1074 236.906C50.5394 236.618 50.9234 236.3 51.2594 235.952C51.5954 235.592 51.8654 235.184 52.0694 234.728C52.2734 234.272 52.3754 233.726 52.3754 233.09C52.3754 232.478 52.2554 231.926 52.0154 231.434C51.7874 230.942 51.4754 230.528 51.0794 230.192C50.6834 229.856 50.2214 229.598 49.6934 229.418C49.1774 229.238 48.6314 229.148 48.0554 229.148C47.2994 229.148 46.6274 229.28 46.0394 229.544C45.4634 229.796 44.9834 230.156 44.5994 230.624C44.2154 231.08 43.9274 231.62 43.7354 232.244C43.5434 232.856 43.4594 233.522 43.4834 234.242ZM55.7533 235.646C55.7533 235.43 55.7533 235.172 55.7533 234.872C55.7653 234.56 55.7893 234.242 55.8253 233.918C55.8613 233.594 55.9213 233.276 56.0053 232.964C56.0893 232.64 56.2033 232.352 56.3473 232.1C56.5033 231.848 56.6953 231.644 56.9233 231.488C57.1633 231.332 57.4573 231.254 57.8053 231.254C58.1533 231.254 58.4473 231.332 58.6873 231.488C58.9273 231.644 59.1253 231.848 59.2813 232.1C59.4373 232.352 59.5513 232.64 59.6233 232.964C59.7073 233.276 59.7673 233.594 59.8033 233.918C59.8513 234.242 59.8753 234.56 59.8753 234.872C59.8873 235.172 59.8933 235.43 59.8933 235.646C59.8933 236.006 59.8813 236.444 59.8573 236.96C59.8333 237.464 59.7553 237.956 59.6233 238.436C59.5033 238.904 59.2993 239.306 59.0113 239.642C58.7353 239.978 58.3333 240.146 57.8053 240.146C57.2893 240.146 56.8933 239.978 56.6173 239.642C56.3413 239.306 56.1373 238.904 56.0053 238.436C55.8853 237.956 55.8133 237.464 55.7893 236.96C55.7653 236.444 55.7533 236.006 55.7533 235.646ZM53.1973 235.646C53.1973 236.906 53.3173 237.962 53.5573 238.814C53.8093 239.654 54.1453 240.326 54.5653 240.83C54.9853 241.334 55.4713 241.694 56.0233 241.91C56.5873 242.126 57.1813 242.234 57.8053 242.234C58.4413 242.234 59.0353 242.126 59.5873 241.91C60.1513 241.694 60.6433 241.334 61.0633 240.83C61.4953 240.326 61.8313 239.654 62.0713 238.814C62.3233 237.962 62.4493 236.906 62.4493 235.646C62.4493 234.422 62.3233 233.396 62.0713 232.568C61.8313 231.728 61.4953 231.056 61.0633 230.552C60.6433 230.048 60.1513 229.688 59.5873 229.472C59.0353 229.256 58.4413 229.148 57.8053 229.148C57.1813 229.148 56.5873 229.256 56.0233 229.472C55.4713 229.688 54.9853 230.048 54.5653 230.552C54.1453 231.056 53.8093 231.728 53.5573 232.568C53.3173 233.396 53.1973 234.422 53.1973 235.646ZM65.7553 235.646C65.7553 235.43 65.7553 235.172 65.7553 234.872C65.7673 234.56 65.7913 234.242 65.8273 233.918C65.8633 233.594 65.9233 233.276 66.0073 232.964C66.0913 232.64 66.2053 232.352 66.3493 232.1C66.5053 231.848 66.6973 231.644 66.9253 231.488C67.1653 231.332 67.4593 231.254 67.8073 231.254C68.1553 231.254 68.4493 231.332 68.6893 231.488C68.9293 231.644 69.1273 231.848 69.2833 232.1C69.4393 232.352 69.5533 232.64 69.6253 232.964C69.7093 233.276 69.7693 233.594 69.8053 233.918C69.8533 234.242 69.8773 234.56 69.8773 234.872C69.8893 235.172 69.8953 235.43 69.8953 235.646C69.8953 236.006 69.8833 236.444 69.8593 236.96C69.8353 237.464 69.7573 237.956 69.6253 238.436C69.5053 238.904 69.3013 239.306 69.0133 239.642C68.7373 239.978 68.3353 240.146 67.8073 240.146C67.2913 240.146 66.8953 239.978 66.6193 239.642C66.3433 239.306 66.1393 238.904 66.0073 238.436C65.8873 237.956 65.8153 237.464 65.7913 236.96C65.7673 236.444 65.7553 236.006 65.7553 235.646ZM63.1993 235.646C63.1993 236.906 63.3193 237.962 63.5593 238.814C63.8113 239.654 64.1473 240.326 64.5673 240.83C64.9873 241.334 65.4733 241.694 66.0253 241.91C66.5893 242.126 67.1833 242.234 67.8073 242.234C68.4433 242.234 69.0373 242.126 69.5893 241.91C70.1533 241.694 70.6453 241.334 71.0653 240.83C71.4973 240.326 71.8333 239.654 72.0733 238.814C72.3253 237.962 72.4513 236.906 72.4513 235.646C72.4513 234.422 72.3253 233.396 72.0733 232.568C71.8333 231.728 71.4973 231.056 71.0653 230.552C70.6453 230.048 70.1533 229.688 69.5893 229.472C69.0373 229.256 68.4433 229.148 67.8073 229.148C67.1833 229.148 66.5893 229.256 66.0253 229.472C65.4733 229.688 64.9873 230.048 64.5673 230.552C64.1473 231.056 63.8113 231.728 63.5593 232.568C63.3193 233.396 63.1993 234.422 63.1993 235.646ZM73.4892 234.242H75.9372C75.9372 233.906 75.9672 233.57 76.0272 233.234C76.0992 232.886 76.2132 232.574 76.3692 232.298C76.5252 232.01 76.7292 231.782 76.9812 231.614C77.2452 231.434 77.5632 231.344 77.9352 231.344C78.4872 231.344 78.9372 231.518 79.2852 231.866C79.6452 232.202 79.8252 232.676 79.8252 233.288C79.8252 233.672 79.7352 234.014 79.5552 234.314C79.3872 234.614 79.1712 234.884 78.9072 235.124C78.6552 235.364 78.3732 235.586 78.0612 235.79C77.7492 235.982 77.4552 236.174 77.1792 236.366C76.6392 236.738 76.1232 237.104 75.6312 237.464C75.1512 237.824 74.7312 238.22 74.3712 238.652C74.0112 239.072 73.7232 239.552 73.5072 240.092C73.3032 240.632 73.2012 241.268 73.2012 242H82.4532V239.804H76.4952C76.8072 239.372 77.1672 238.994 77.5752 238.67C77.9832 238.346 78.4032 238.046 78.8352 237.77C79.2672 237.482 79.6932 237.194 80.1132 236.906C80.5452 236.618 80.9292 236.3 81.2652 235.952C81.6012 235.592 81.8712 235.184 82.0752 234.728C82.2792 234.272 82.3812 233.726 82.3812 233.09C82.3812 232.478 82.2612 231.926 82.0212 231.434C81.7932 230.942 81.4812 230.528 81.0852 230.192C80.6892 229.856 80.2272 229.598 79.6992 229.418C79.1832 229.238 78.6372 229.148 78.0612 229.148C77.3052 229.148 76.6332 229.28 76.0452 229.544C75.4692 229.796 74.9892 230.156 74.6052 230.624C74.2212 231.08 73.9332 231.62 73.7412 232.244C73.5492 232.856 73.4652 233.522 73.4892 234.242ZM88.789 235.988V238.184H94.207V235.988H88.789ZM100.841 234.242H103.289C103.289 233.906 103.319 233.57 103.379 233.234C103.451 232.886 103.565 232.574 103.721 232.298C103.877 232.01 104.081 231.782 104.333 231.614C104.597 231.434 104.915 231.344 105.287 231.344C105.839 231.344 106.289 231.518 106.637 231.866C106.997 232.202 107.177 232.676 107.177 233.288C107.177 233.672 107.087 234.014 106.907 234.314C106.739 234.614 106.523 234.884 106.259 235.124C106.007 235.364 105.725 235.586 105.413 235.79C105.101 235.982 104.807 236.174 104.531 236.366C103.991 236.738 103.475 237.104 102.983 237.464C102.503 237.824 102.083 238.22 101.723 238.652C101.363 239.072 101.075 239.552 100.859 240.092C100.655 240.632 100.553 241.268 100.553 242H109.805V239.804H103.847C104.159 239.372 104.519 238.994 104.927 238.67C105.335 238.346 105.755 238.046 106.187 237.77C106.619 237.482 107.045 237.194 107.465 236.906C107.897 236.618 108.281 236.3 108.617 235.952C108.953 235.592 109.223 235.184 109.427 234.728C109.631 234.272 109.733 233.726 109.733 233.09C109.733 232.478 109.613 231.926 109.373 231.434C109.145 230.942 108.833 230.528 108.437 230.192C108.041 229.856 107.579 229.598 107.051 229.418C106.535 229.238 105.989 229.148 105.413 229.148C104.657 229.148 103.985 229.28 103.397 229.544C102.821 229.796 102.341 230.156 101.957 230.624C101.573 231.08 101.285 231.62 101.093 232.244C100.901 232.856 100.817 233.522 100.841 234.242ZM113.111 235.646C113.111 235.43 113.111 235.172 113.111 234.872C113.123 234.56 113.147 234.242 113.183 233.918C113.219 233.594 113.279 233.276 113.363 232.964C113.447 232.64 113.561 232.352 113.705 232.1C113.861 231.848 114.053 231.644 114.281 231.488C114.521 231.332 114.815 231.254 115.163 231.254C115.511 231.254 115.805 231.332 116.045 231.488C116.285 231.644 116.483 231.848 116.639 232.1C116.795 232.352 116.909 232.64 116.981 232.964C117.065 233.276 117.125 233.594 117.161 233.918C117.209 234.242 117.233 234.56 117.233 234.872C117.245 235.172 117.251 235.43 117.251 235.646C117.251 236.006 117.239 236.444 117.215 236.96C117.191 237.464 117.113 237.956 116.981 238.436C116.861 238.904 116.657 239.306 116.369 239.642C116.093 239.978 115.691 240.146 115.163 240.146C114.647 240.146 114.251 239.978 113.975 239.642C113.699 239.306 113.495 238.904 113.363 238.436C113.243 237.956 113.171 237.464 113.147 236.96C113.123 236.444 113.111 236.006 113.111 235.646ZM110.555 235.646C110.555 236.906 110.675 237.962 110.915 238.814C111.167 239.654 111.503 240.326 111.923 240.83C112.343 241.334 112.829 241.694 113.381 241.91C113.945 242.126 114.539 242.234 115.163 242.234C115.799 242.234 116.393 242.126 116.945 241.91C117.509 241.694 118.001 241.334 118.421 240.83C118.853 240.326 119.189 239.654 119.429 238.814C119.681 237.962 119.807 236.906 119.807 235.646C119.807 234.422 119.681 233.396 119.429 232.568C119.189 231.728 118.853 231.056 118.421 230.552C118.001 230.048 117.509 229.688 116.945 229.472C116.393 229.256 115.799 229.148 115.163 229.148C114.539 229.148 113.945 229.256 113.381 229.472C112.829 229.688 112.343 230.048 111.923 230.552C111.503 231.056 111.167 231.728 110.915 232.568C110.675 233.396 110.555 234.422 110.555 235.646ZM123.113 235.646C123.113 235.43 123.113 235.172 123.113 234.872C123.125 234.56 123.149 234.242 123.185 233.918C123.221 233.594 123.281 233.276 123.365 232.964C123.449 232.64 123.563 232.352 123.707 232.1C123.863 231.848 124.055 231.644 124.283 231.488C124.523 231.332 124.817 231.254 125.165 231.254C125.513 231.254 125.807 231.332 126.047 231.488C126.287 231.644 126.485 231.848 126.641 232.1C126.797 232.352 126.911 232.64 126.983 232.964C127.067 233.276 127.127 233.594 127.163 233.918C127.211 234.242 127.235 234.56 127.235 234.872C127.247 235.172 127.253 235.43 127.253 235.646C127.253 236.006 127.241 236.444 127.217 236.96C127.193 237.464 127.115 237.956 126.983 238.436C126.863 238.904 126.659 239.306 126.371 239.642C126.095 239.978 125.693 240.146 125.165 240.146C124.649 240.146 124.253 239.978 123.977 239.642C123.701 239.306 123.497 238.904 123.365 238.436C123.245 237.956 123.173 237.464 123.149 236.96C123.125 236.444 123.113 236.006 123.113 235.646ZM120.557 235.646C120.557 236.906 120.677 237.962 120.917 238.814C121.169 239.654 121.505 240.326 121.925 240.83C122.345 241.334 122.831 241.694 123.383 241.91C123.947 242.126 124.541 242.234 125.165 242.234C125.801 242.234 126.395 242.126 126.947 241.91C127.511 241.694 128.003 241.334 128.423 240.83C128.855 240.326 129.191 239.654 129.431 238.814C129.683 237.962 129.809 236.906 129.809 235.646C129.809 234.422 129.683 233.396 129.431 232.568C129.191 231.728 128.855 231.056 128.423 230.552C128.003 230.048 127.511 229.688 126.947 229.472C126.395 229.256 125.801 229.148 125.165 229.148C124.541 229.148 123.947 229.256 123.383 229.472C122.831 229.688 122.345 230.048 121.925 230.552C121.505 231.056 121.169 231.728 120.917 232.568C120.677 233.396 120.557 234.422 120.557 235.646ZM133.277 232.82C133.277 232.532 133.325 232.28 133.421 232.064C133.529 231.848 133.673 231.668 133.853 231.524C134.033 231.38 134.237 231.272 134.465 231.2C134.705 231.116 134.951 231.074 135.203 231.074C135.599 231.074 135.917 231.134 136.157 231.254C136.409 231.374 136.601 231.524 136.733 231.704C136.877 231.884 136.973 232.076 137.021 232.28C137.069 232.472 137.093 232.652 137.093 232.82C137.093 233.36 136.913 233.774 136.553 234.062C136.193 234.338 135.743 234.476 135.203 234.476C134.687 234.476 134.237 234.338 133.853 234.062C133.469 233.774 133.277 233.36 133.277 232.82ZM130.955 232.586C130.955 233.21 131.111 233.756 131.423 234.224C131.735 234.692 132.197 235.01 132.809 235.178V235.214C132.053 235.394 131.465 235.754 131.045 236.294C130.637 236.834 130.433 237.506 130.433 238.31C130.433 238.994 130.565 239.582 130.829 240.074C131.105 240.566 131.465 240.974 131.909 241.298C132.365 241.622 132.875 241.856 133.439 242C134.015 242.156 134.609 242.234 135.221 242.234C135.809 242.234 136.385 242.156 136.949 242C137.513 241.832 138.017 241.586 138.461 241.262C138.905 240.938 139.259 240.53 139.523 240.038C139.799 239.546 139.937 238.964 139.937 238.292C139.937 237.5 139.733 236.834 139.325 236.294C138.917 235.742 138.335 235.382 137.579 235.214V235.178C138.191 234.974 138.647 234.638 138.947 234.17C139.259 233.702 139.415 233.156 139.415 232.532C139.415 232.22 139.343 231.872 139.199 231.488C139.055 231.092 138.815 230.726 138.479 230.39C138.155 230.042 137.723 229.748 137.183 229.508C136.643 229.268 135.983 229.148 135.203 229.148C134.687 229.148 134.177 229.22 133.673 229.364C133.169 229.508 132.713 229.724 132.305 230.012C131.909 230.3 131.585 230.66 131.333 231.092C131.081 231.524 130.955 232.022 130.955 232.586ZM132.989 238.184C132.989 237.536 133.205 237.044 133.637 236.708C134.069 236.36 134.597 236.186 135.221 236.186C135.521 236.186 135.797 236.234 136.049 236.33C136.313 236.426 136.541 236.564 136.733 236.744C136.937 236.924 137.093 237.14 137.201 237.392C137.321 237.632 137.381 237.902 137.381 238.202C137.381 238.514 137.327 238.802 137.219 239.066C137.111 239.33 136.955 239.558 136.751 239.75C136.559 239.93 136.331 240.074 136.067 240.182C135.815 240.278 135.533 240.326 135.221 240.326C134.921 240.326 134.633 240.278 134.357 240.182C134.081 240.074 133.841 239.93 133.637 239.75C133.445 239.558 133.289 239.33 133.169 239.066C133.049 238.802 132.989 238.508 132.989 238.184Z" fill="#6394AB"/>
<circle cx="323.5" cy="138.5" r="9.5" fill="#FFB600" stroke="white" stroke-width="4"/>
<circle cx="13.5" cy="54.5" r="9.5" fill="#FFB600" stroke="white" stroke-width="4"/>
<circle cx="13.5" cy="221.5" r="9.5" fill="#FFB600" stroke="white" stroke-width="4"/>
</g>
<defs>
<clipPath id="clip0">
<rect width="335" height="360" fill="white"/>
</clipPath>
<clipPath id="clip1">
</clipPath>
</defs>
</svg>
